<svg xmlns="http://www.w3.org/2000/svg" width="2026" height="1675" viewBox="0 0 2026 1675" fill="none"> <path d="M1942.32 1075.72C1944.11 1017.84 1914.42 970.621 1901.02 932.734C1874.62 858.104 1835.83 783.411 1797.37 747.631C1777.18 728.842 1757.28 727.356 1735.57 726.685C1722.08 726.268 1701.24 723.051 1695.24 761.131C1686.58 816.164 1698.32 877.455 1700.7 931.301C1704.95 1027.51 1707.03 1144.15 1689.72 1237.12C1679.27 1293.22 1666.81 1346.3 1644.44 1378.49C1618.97 1415.14 1597.82 1385.92 1580.39 1341.88C1506.15 1154.33 1440.44 947.555 1369.12 753.429C1322.84 627.441 1275.45 503.809 1227.5 381.552C1193.55 294.996 1159.13 201.653 1118.39 132.562C1108.23 115.327 1097.41 87.1987 1084.15 83.3852C1075.78 80.9779 1078.13 113.812 1077.85 127.872C1077.32 154.767 1080.06 179.521 1082.35 205.212C1087.05 257.913 1091.42 309.911 1097.53 361.671C1114.68 506.888 1133.06 651.326 1152.17 794.841C1175.91 973.174 1189.93 1151.27 1184.01 1342.58C1181.29 1430.63 1169.9 1517.46 1136.87 1569.29C1108.52 1613.76 1083.66 1586.75 1061.77 1539.74C1008.87 1426.12 965.465 1288.05 922.002 1153.9C876.624 1013.85 831.1 872.799 783.4 737.438C748.879 639.477 710.709 546.506 671.7 459.021C646.974 403.569 620.842 346.232 591.497 304.519C584.19 294.133 556.064 258.431 554.781 299.947C551.42 408.662 574.514 517.202 592.624 611.244C622.303 765.365 643.082 926.03 649.201 1098.41C651.604 1166.12 649.958 1233.14 647.847 1301.42C646.743 1337.14 647.264 1376.63 640.541 1410.38C633.819 1444.14 614.003 1460.05 600.5 1446.16C587.299 1432.58 576.686 1397.13 566.396 1374.78C536.949 1310.82 509.421 1241.45 482.097 1172.3C447.196 1083.96 411.998 996.374 376.95 908.358C356.368 856.669 335.449 805.453 311.212 763.557C306.29 755.049 283.096 712.247 274.184 730.157C269.633 739.301 265.305 777.414 264.111 790.655C261.208 822.843 249.808 853.797 245.732 886.324C239.48 936.228 234.724 984.673 232.79 1036.1C229.047 1135.68 216.437 1254.05 189.088 1335.35C176.609 1372.46 160.462 1387.08 141.245 1386.49C126.702 1386.04 113.212 1382.89 101.77 1361.47C83.5567 1327.37 85.3685 1259.81 83.7459 1208.63" stroke="#b1b0fa" stroke-opacity="0.3" stroke-width="166" stroke-linecap="round"/> 
<path xmlns="http://www.w3.org/2000/svg" d="M1942.32 1075.72C1944.11 1017.84 1914.42 970.621 1901.02 932.734C1874.62 858.104 1835.83 783.411 1797.37 747.631C1777.18 728.842 1757.28 727.356 1735.57 726.685C1722.08 726.268 1701.24 723.051 1695.24 761.131C1686.58 816.164 1698.32 877.455 1700.7 931.301C1704.95 1027.51 1707.03 1144.15 1689.72 1237.12C1679.27 1293.22 1666.81 1346.3 1644.44 1378.49C1618.97 1415.14 1597.82 1385.92 1580.39 1341.88C1506.15 1154.33 1440.44 947.555 1369.12 753.429C1322.84 627.441 1275.45 503.809 1227.5 381.552C1193.55 294.996 1159.13 201.653 1118.39 132.562C1108.23 115.327 1097.41 87.1987 1084.15 83.3852C1075.78 80.9779 1078.13 113.812 1077.85 127.872C1077.32 154.767 1080.06 179.521 1082.35 205.212C1087.05 257.913 1091.42 309.911 1097.53 361.671C1114.68 506.888 1133.06 651.326 1152.17 794.841C1175.91 973.174 1189.93 1151.27 1184.01 1342.58C1181.29 1430.63 1169.9 1517.46 1136.87 1569.29C1108.52 1613.76 1083.66 1586.75 1061.77 1539.74C1008.87 1426.12 965.465 1288.05 922.002 1153.9C876.624 1013.85 831.1 872.799 783.4 737.438C748.879 639.477 710.709 546.506 671.7 459.021C646.974 403.569 620.842 346.232 591.497 304.519C584.19 294.133 556.064 258.431 554.781 299.947C551.42 408.662 574.514 517.202 592.624 611.244C622.303 765.365 643.082 926.03 649.201 1098.41C651.604 1166.12 649.958 1233.14 647.847 1301.42C646.743 1337.14 647.264 1376.63 640.541 1410.38C633.819 1444.14 614.003 1460.05 600.5 1446.16C587.299 1432.58 576.686 1397.13 566.396 1374.78C536.949 1310.82 509.421 1241.45 482.097 1172.3C447.196 1083.96 411.998 996.374 376.95 908.358C356.368 856.669 335.449 805.453 311.212 763.557C306.29 755.049 283.096 712.247 274.184 730.157C269.633 739.301 265.305 777.414 264.111 790.655C261.208 822.843 249.808 853.797 245.732 886.324C239.48 936.228 234.724 984.673 232.79 1036.1C229.047 1135.68 216.437 1254.05 189.088 1335.35C176.609 1372.46 160.462 1387.08 141.245 1386.49C126.702 1386.04 113.212 1382.89 101.77 1361.47C83.5567 1327.37 85.3685 1259.81 83.7459 1208.63" stroke="white" stroke-opacity="0.3" stroke-width="166" stroke-linecap="round"/>
</svg>