<?xml version="1.0" encoding="utf-8"?>
<!-- Generator: Adobe Illustrator 22.0.1, SVG Export Plug-In . SVG Version: 6.00 Build 0)  -->
<svg version="1.1" id="Слой_1" xmlns="http://www.w3.org/2000/svg" xmlns:xlink="http://www.w3.org/1999/xlink" x="0px" y="0px"
	 viewBox="0 0 396.7 252" style="enable-background:new 0 0 396.7 252;" xml:space="preserve">
<style type="text/css">
	.st0{fill:none;}
	.st1{fill:#FFFFFF;stroke:#F15A24;stroke-width:2;stroke-miterlimit:10;}
	.st2{fill:#F15A24;}
	.st3{fill:#F15A24;stroke:#F15A24;stroke-width:2;stroke-miterlimit:10;}
	.st4{fill:none;stroke:#F15A24;stroke-width:2;stroke-miterlimit:10;}
	.st5{fill:#603813;}
	.st6{fill:#736357;}
	.st7{font-family:'Calibri-Bold';}
	.st8{font-size:32.1612px;}
	.st9{font-size:26.2054px;}
	.st10{font-size:29.7789px;}
</style>
<g id="Слой_1_1_">
</g>
<polygon class="st0" points="-3.3,254 1,254 1,254 "/>
<g>
	<g>
		<g>
			<rect x="179.8" y="52.2" class="st1" width="38.3" height="89.3"/>
			<g>
				<g>
					<polygon class="st1" points="365.3,27.3 365.3,157.1 303.5,157.1 303.5,27.3 324.3,27.3 341.8,8.2 359.3,27.3 					"/>
					<rect x="241.7" y="66.5" class="st1" width="61.8" height="90.5"/>
					<g>
						<polygon class="st2" points="388.8,59.4 388.8,59.4 388.8,59.4 						"/>
					</g>
					<g>
						<polygon class="st2" points="387.6,73.7 387.6,73.7 387.6,73.7 						"/>
					</g>
					<g>
						<polygon class="st2" points="387.6,89.2 387.6,89.2 387.6,89.2 						"/>
					</g>
					<g>
						<polygon class="st2" points="387.6,103.5 387.6,103.5 387.6,103.5 						"/>
					</g>
					<g>
						<polygon class="st2" points="387.6,118.9 387.6,118.9 387.6,118.9 						"/>
					</g>
					<g>
						<rect x="249.1" y="80.8" class="st2" width="7.4" height="8.3"/>
						<rect x="265.2" y="80.8" class="st2" width="14.8" height="8.3"/>
						<rect x="288.6" y="80.8" class="st2" width="7.4" height="8.3"/>
					</g>
					<g>
						<rect x="249.1" y="96.3" class="st2" width="7.4" height="8.3"/>
						<rect x="265.2" y="96.3" class="st2" width="14.8" height="8.3"/>
						<rect x="288.6" y="96.3" class="st2" width="7.4" height="8.3"/>
					</g>
					<g>
						<rect x="249.1" y="110.6" class="st2" width="7.4" height="8.3"/>
						<rect x="265.2" y="110.6" class="st2" width="14.8" height="8.3"/>
						<rect x="288.6" y="110.6" class="st2" width="7.4" height="8.3"/>
					</g>
					<g>
						<rect x="249.1" y="126.1" class="st2" width="7.4" height="8.3"/>
						<rect x="265.2" y="126.1" class="st2" width="14.8" height="8.3"/>
						<rect x="288.6" y="126.1" class="st2" width="7.4" height="8.3"/>
					</g>
					<g>
						<rect x="249.1" y="140.4" class="st2" width="7.4" height="8.3"/>
						<rect x="265.2" y="140.4" class="st2" width="14.8" height="8.3"/>
						<rect x="288.6" y="140.4" class="st2" width="7.4" height="8.3"/>
					</g>
					<g>
						<rect x="310.9" y="43.9" class="st2" width="7.4" height="9.4"/>
						<rect x="327" y="43.9" class="st2" width="14.8" height="9.4"/>
						<rect x="350.5" y="43.9" class="st2" width="7.4" height="9.4"/>
					</g>
					<g>
						<rect x="310.9" y="61.3" class="st2" width="7.4" height="9.4"/>
						<rect x="327" y="61.3" class="st2" width="14.8" height="9.4"/>
						<rect x="350.5" y="61.3" class="st2" width="7.4" height="9.4"/>
					</g>
					<g>
						<rect x="310.9" y="77.3" class="st2" width="7.4" height="9.4"/>
						<rect x="327" y="77.3" class="st2" width="14.8" height="9.4"/>
						<rect x="350.5" y="77.3" class="st2" width="7.4" height="9.4"/>
					</g>
					<g>
						<rect x="310.9" y="94.7" class="st2" width="7.4" height="9.4"/>
						<rect x="327" y="94.7" class="st2" width="14.8" height="9.4"/>
						<rect x="350.5" y="94.7" class="st2" width="7.4" height="9.4"/>
					</g>
					<g>
						<rect x="310.9" y="110.8" class="st2" width="7.4" height="9.4"/>
						<rect x="327" y="110.8" class="st2" width="14.8" height="9.4"/>
						<rect x="350.5" y="110.8" class="st2" width="7.4" height="9.4"/>
					</g>
					<rect x="303.5" y="133.2" class="st2" width="61.8" height="22.6"/>
				</g>
				<polygon class="st1" points="241.7,66.5 241.7,155.9 218.2,141.6 218.2,52.2 				"/>
			</g>
			<g>
				<g>
					<polygon class="st1" points="94.5,26.1 94.5,155.9 32.7,155.9 32.7,26.1 38.7,26.1 56.2,7 73.7,26.1 					"/>
					<rect x="94.5" y="65.3" class="st1" width="61.8" height="90.5"/>
					<g>
						<polygon class="st2" points="9.2,58.2 9.2,58.2 9.2,58.2 						"/>
					</g>
					<g>
						<polygon class="st2" points="10.4,72.5 10.4,72.5 10.4,72.5 						"/>
					</g>
					<g>
						<polygon class="st2" points="10.4,88 10.4,88 10.4,88 						"/>
					</g>
					<g>
						<polygon class="st2" points="10.4,102.3 10.4,102.3 10.4,102.3 						"/>
					</g>
					<g>
						<polygon class="st2" points="10.4,117.7 10.4,117.7 10.4,117.7 						"/>
					</g>
					<g>
						<rect x="141.5" y="79.7" class="st2" width="7.4" height="8.3"/>
						<rect x="118.1" y="79.7" class="st2" width="14.8" height="8.3"/>
						<rect x="102" y="79.7" class="st2" width="7.4" height="8.3"/>
					</g>
					<g>
						<rect x="141.5" y="95.2" class="st2" width="7.4" height="8.3"/>
						<rect x="118.1" y="95.2" class="st2" width="14.8" height="8.3"/>
						<rect x="102" y="95.2" class="st2" width="7.4" height="8.3"/>
					</g>
					<g>
						<rect x="141.5" y="109.5" class="st2" width="7.4" height="8.3"/>
						<rect x="118.1" y="109.5" class="st2" width="14.8" height="8.3"/>
						<rect x="102" y="109.5" class="st2" width="7.4" height="8.3"/>
					</g>
					<g>
						<rect x="141.5" y="124.9" class="st2" width="7.4" height="8.3"/>
						<rect x="118.1" y="124.9" class="st2" width="14.8" height="8.3"/>
						<rect x="102" y="124.9" class="st2" width="7.4" height="8.3"/>
					</g>
					<g>
						<rect x="141.5" y="139.2" class="st2" width="7.4" height="8.3"/>
						<rect x="118.1" y="139.2" class="st2" width="14.8" height="8.3"/>
						<rect x="102" y="139.2" class="st2" width="7.4" height="8.3"/>
					</g>
					<g>
						<rect x="79.7" y="42.7" class="st2" width="7.4" height="9.4"/>
						<rect x="56.2" y="42.7" class="st2" width="14.8" height="9.4"/>
						<rect x="40.1" y="42.7" class="st2" width="7.4" height="9.4"/>
					</g>
					<g>
						<rect x="79.7" y="60" class="st2" width="7.4" height="9.4"/>
						<rect x="56.2" y="60" class="st2" width="14.8" height="9.4"/>
						<rect x="40.1" y="60" class="st2" width="7.4" height="9.4"/>
					</g>
					<g>
						<rect x="79.7" y="76.1" class="st2" width="7.4" height="9.4"/>
						<rect x="56.2" y="76.1" class="st2" width="14.8" height="9.4"/>
						<rect x="40.1" y="76.1" class="st2" width="7.4" height="9.4"/>
					</g>
					<g>
						<rect x="79.7" y="93.5" class="st2" width="7.4" height="9.4"/>
						<rect x="56.2" y="93.5" class="st2" width="14.8" height="9.4"/>
						<rect x="40.1" y="93.5" class="st2" width="7.4" height="9.4"/>
					</g>
					<g>
						<rect x="79.7" y="109.5" class="st2" width="7.4" height="9.4"/>
						<rect x="56.2" y="109.5" class="st2" width="14.8" height="9.4"/>
						<rect x="40.1" y="109.5" class="st2" width="7.4" height="9.4"/>
					</g>
					<rect x="32.7" y="132.1" class="st2" width="61.8" height="22.6"/>
				</g>
				<polygon class="st1" points="179.8,51 179.8,140.4 156.3,154.7 156.3,65.3 				"/>
			</g>
		</g>
		<polygon class="st3" points="303.5,36.7 303.5,66.5 241.7,66.5 218.2,52.2 179.8,52.2 179.8,51 156.3,65.3 94.5,65.3 94.5,36.7 		
			"/>
	</g>
	<line class="st4" x1="197.6" y1="51" x2="197.6" y2="140.4"/>
	<line class="st4" x1="186.4" y1="51" x2="186.4" y2="140.4"/>
	<line class="st4" x1="211.2" y1="51" x2="211.2" y2="140.4"/>
</g>
<g>
	<path class="st5" d="M25.3,186.2c0,5,3.4,9.7,9.7,14.2c-16.4-6.6-25.8-14.3-25.8-22.5c0-24.7,85-44.7,189.8-44.7
		c83.8,0,154.9,12.8,180.1,30.5c-32.9-13.2-94-22.2-164-22.2C110.2,141.6,25.3,161.6,25.3,186.2z"/>
	<path class="st6" d="M47.5,200.5c0,5,3.4,9.7,9.7,14.2c-16.4-6.6-25.8-14.3-25.8-22.5c0-24.7,85-44.7,189.8-44.7
		c83.8,0,154.9,12.8,180.1,30.5c-32.9-13.2-94-22.2-164-22.2C132.5,155.9,47.5,175.9,47.5,200.5z"/>
</g>
<text transform="matrix(1.0381 0 0 1 103.3186 195.6359)" class="st7 st8">ЗАБАЙКАЛЬСКИЙ</text>
<rect x="110.7" y="207.1" class="st0" width="239.9" height="59.6"/>
<text transform="matrix(1.0381 0 0 1 110.7171 220.8479)" class="st7 st9">ОНКОЛОГИЧЕСКИЙ</text>
<rect x="218.2" y="282.1" class="st0" width="2.1" height="3.2"/>
<rect x="126.6" y="230.5" class="st0" width="208.1" height="52.8"/>
<text transform="matrix(1.0381 0 0 1 126.5848 249.6965)" class="st7 st10">ДИСПАНСЕР</text>
</svg>
