<?xml version="1.0" encoding="UTF-8" standalone="no"?>
<!-- Created with Inkscape (http://www.inkscape.org/) -->

<svg
   width="400"
   height="400"
   viewBox="0 0 400 400"
   version="1.1"
   id="svg5"
   xml:space="preserve"
   sodipodi:docname="fon.svg"
   inkscape:version="1.2.1 (9c6d41e410, 2022-07-14)"
   xmlns:inkscape="http://www.inkscape.org/namespaces/inkscape"
   xmlns:sodipodi="http://sodipodi.sourceforge.net/DTD/sodipodi-0.dtd"
   xmlns="http://www.w3.org/2000/svg"
   xmlns:svg="http://www.w3.org/2000/svg"><sodipodi:namedview
     id="namedview55"
     pagecolor="#ffffff"
     bordercolor="#000000"
     borderopacity="0.25"
     inkscape:showpageshadow="2"
     inkscape:pageopacity="0.0"
     inkscape:pagecheckerboard="0"
     inkscape:deskcolor="#d1d1d1"
     showgrid="false"
     inkscape:zoom="0.59"
     inkscape:cx="197.45763"
     inkscape:cy="200"
     inkscape:window-width="1440"
     inkscape:window-height="837"
     inkscape:window-x="-8"
     inkscape:window-y="-8"
     inkscape:window-maximized="1"
     inkscape:current-layer="svg5" /><defs
     id="defs2" /><path
     d="m 179.60643,187.65766 a 15.632467,15.632467 0 1 0 -12.68387,-18.10712 15.650174,15.650174 0 0 0 12.68387,18.10712 z m -6.43141,-9.45684 -1.73323,1.21411 q -0.29734,-0.45183 -0.55704,-0.92722 l 1.6712,-1.17066 a 0.53951434,0.53951434 0 1 1 0.61907,0.88377 z m 15.61734,2.36333 a 0.53951228,0.53951228 45 0 1 0.97327,-0.21595 l 1.17066,1.6712 q -0.40614,0.35809 -0.84032,0.68111 l -1.21411,-1.73324 a 0.54285698,0.54285698 0 0 1 -0.0895,-0.40312 z m -4.21463,-21.13156 a 13.018073,13.018073 45 0 1 8.16833,20.62893 l -0.84635,-1.20822 a 3.1450954,3.1450954 0 0 0 -5.15194,3.60888 l 1.10841,1.58233 A 12.983072,12.983072 0 0 1 173.0876,181.4433 l 1.58233,-1.1084 a 3.145095,3.145095 0 0 0 -3.60888,-5.15193 l -1.20823,0.84635 a 13.018073,13.018073 45 0 1 14.72491,-16.59673 z"
     id="path132"
     style="fill:#008080;fill-opacity:1;stroke-width:0.162838" /><path
     d="m 174.80984,173.58526 a 3.2603938,3.2603938 0 0 0 3.77232,-2.64247 l 0.45194,-2.56592 a 3.2567649,3.2567649 0 0 0 -6.41479,-1.12984 l -0.45194,2.56591 a 3.2603938,3.2603938 0 0 0 2.64247,3.77232 z m 0.37539,-5.88629 a 0.65135281,0.65135281 45 0 1 1.28295,0.22596 l -0.45194,2.56592 a 0.65135281,0.65135281 45 0 1 -1.28295,-0.22597 z"
     id="path134"
     style="fill:#008080;fill-opacity:1;stroke-width:0.162838" /><path
     d="m 184.98745,169.92632 a 3.145095,3.145095 0 0 0 3.60889,5.15193 l 1.76789,-1.2384 a 3.1450954,3.1450954 0 0 0 -3.60888,-5.15194 z m 1.49491,2.13408 1.7679,-1.2384 a 0.53951434,0.53951434 0 1 1 0.61907,0.88377 l -1.7679,1.2384 a 0.53951434,0.53951434 0 1 1 -0.61907,-0.88377 z"
     id="path136"
     style="fill:#008080;fill-opacity:1;stroke-width:0.162838" /><path
     d="m 181.71709,167.25282 a 3.1450983,3.1450983 0 0 0 5.15194,-3.60889 l -1.2384,-1.7679 a 3.145095,3.145095 0 0 0 -5.15193,3.60889 z m 1.43117,-4.10373 a 0.54285698,0.54285698 0 0 1 0.34829,0.22184 l 1.23839,1.7679 a 0.53951586,0.53951586 0 1 1 -0.88377,0.61908 l -1.23839,-1.7679 a 0.53951228,0.53951228 45 0 1 0.53548,-0.84092 z"
     id="path138"
     style="fill:#008080;fill-opacity:1;stroke-width:0.162838" /><path
     d="m 183.37094,174.7056 a 3.145095,3.145095 0 0 0 -5.15193,3.60889 l 1.23839,1.7679 a 3.1450954,3.1450954 0 0 0 5.15194,-3.60888 z m -1.43116,4.10373 a 0.54285698,0.54285698 0 0 1 -0.34829,-0.22184 l -1.23839,-1.76791 a 0.53951296,0.53951296 0 1 1 0.88376,-0.61907 l 1.2384,1.76791 a 0.53951228,0.53951228 45 0 1 -0.53548,0.84091 z"
     id="path140"
     style="fill:#008080;fill-opacity:1;stroke-width:0.162838" /><path
     d="m 187.11774,190.63489 a 68.272472,68.272472 45 0 1 1.47967,10.8633 l -6.62431,7.17238 a 18.163434,18.163434 0 0 1 -16.56159,5.58759 l -3.60597,-0.63512 -0.45193,2.56592 3.60597,0.63512 a 20.758025,20.758025 0 0 0 18.92754,-6.38577 l 4.81133,-5.20937 a 68.203033,68.203033 0 0 1 -1.03884,11.80686 7.646089,7.646089 0 0 1 -8.84631,6.19662 l -14.28872,-2.51668 a 9.1291818,9.1291818 0 0 1 -7.39893,-10.56248 l 2.85608,-16.21567 a 11.792312,11.792312 0 0 1 1.7619,-4.42392 9.1743047,9.1743047 0 0 0 2.18602,0.67353 l 0.12902,0.0228 4.97526,7.10271 a 1.3031942,1.3031942 0 0 0 1.8145,0.31959 l 4.52677,-3.17097 a 1.3029027,1.3029027 0 0 0 0.31959,-1.81449 l -3.17097,-4.52677 -2.13408,1.4949 2.42367,3.45976 -2.39288,1.67619 -4.53746,-6.47774 a 1.3030883,1.3030883 0 0 0 -0.84108,-0.5355 l -0.66043,-0.11633 a 6.4709818,6.4709818 0 0 1 -4.20497,-2.67793 l -2.37057,-3.38357 a 1.303002,1.303002 0 0 0 -1.81434,-0.31956 l -3.38403,2.37049 a 6.4705779,6.4705779 0 0 1 -4.86669,1.07997 l -0.66044,-0.11632 a 1.3030883,1.3030883 0 0 0 -0.97341,0.21591 l -6.47762,4.53765 -1.67618,-2.39288 3.45988,-2.42348 a 1.3029042,1.3029042 0 0 0 0.3196,-1.8145 l -2.37049,-3.38403 a 6.4705779,6.4705779 0 0 1 -1.07997,-4.86669 l 0.56825,-3.22635 2.56592,0.45194 -0.49072,2.78611 a 3.8826131,3.8826131 0 0 0 0.64793,2.92013 l 2.55177,3.64283 a 1.3030883,1.3030883 0 0 0 0.84107,0.53551 l 2.25457,0.3971 a 5.1767438,5.1767438 0 0 0 3.89356,-0.86385 l 4.70987,-3.29922 a 1.3030883,1.3030883 0 0 0 0.5355,-0.84107 l 2.79794,-15.88553 0.64669,0.47946 a 1.3027854,1.3027854 0 0 0 1.14764,0.20213 l 0.77158,-0.22966 -2.79787,15.88521 a 1.3030818,1.3030818 0 0 0 0.21591,0.97342 l 3.29938,4.7099 a 5.1772111,5.1772111 0 0 0 3.36396,2.14213 l 2.25457,0.39709 0.45193,-2.56592 -2.25457,-0.39709 a 2.5882139,2.5882139 0 0 1 -1.68196,-1.07114 l -2.98971,-4.26783 2.93025,-16.63679 2.0203,-0.60136 a 1.3027414,1.3027414 0 0 0 0.91122,-1.02259 l 0.76422,-4.33892 2.0203,-0.60136 a 1.3027414,1.3027414 0 0 0 0.91122,-1.02259 l 0.49072,-2.78611 a 4.9873987,4.9873987 0 0 0 -7.77307,-4.94998 l -0.70089,0.49109 -0.49092,-0.70102 a 4.9873987,4.9873987 0 0 0 -8.99652,1.99635 l -0.49072,2.7861 a 1.3027414,1.3027414 0 0 0 0.50702,1.27239 l 1.69326,1.25543 -0.76421,4.33891 a 1.3027414,1.3027414 0 0 0 0.50702,1.27239 l 1.69327,1.25543 -2.93031,16.6371 -3.01783,2.11386 1.23635,-7.01951 a 9.2679882,9.2679882 0 0 0 -15.15121,-8.6512 70.961342,70.961342 0 0 0 -23.707,41.52033 10.254282,10.254282 0 0 0 8.31079,11.86403 l 14.28872,2.51668 a 11.73758,11.73758 0 0 0 13.58033,-9.5129 l 2.85608,-16.21567 a 14.414629,14.414629 0 0 0 -0.16707,-5.78048 9.1821307,9.1821307 45 0 0 1.98569,-1.05665 l 2.31705,-1.62335 1.62303,2.31699 a 9.1801977,9.1801977 0 0 0 1.50547,1.67164 14.412114,14.412114 0 0 0 -2.13234,5.37573 l -2.85608,16.21566 a 11.73758,11.73758 0 0 0 9.5129,13.58034 l 14.28873,2.51668 a 10.254622,10.254622 0 0 0 11.86419,-8.31076 70.451866,70.451866 0 0 0 -0.56254,-27.40938 z m -30.8794,-43.03455 a 2.3818165,2.3818165 0 0 1 4.29652,-0.95337 l 1.2384,1.7679 a 1.3031942,1.3031942 0 0 0 1.8145,0.31958 l 1.76789,-1.23839 a 2.3818165,2.3818165 0 0 1 3.71226,2.36397 l -0.35106,1.99318 -6.97972,2.07755 -5.84986,-4.33724 z m 4.47023,8.81125 a 1.3027854,1.3027854 0 0 0 1.14764,0.20214 l 3.56347,-1.0607 -0.39859,2.26303 -4.18782,1.24653 -3.50993,-2.60234 0.3986,-2.26303 z m -10.9905,35.71826 -2.85608,16.21566 a 9.1291818,9.1291818 0 0 1 -10.56248,7.39892 l -14.28872,-2.51668 a 7.6460206,7.6460206 0 0 1 -6.19678,-8.84634 67.873028,67.873028 0 0 1 2.4787,-9.75373 l 0.84164,1.66037 a 17.747337,17.747337 0 0 0 12.69032,9.40891 14.983744,14.983744 0 0 1 9.56505,5.97221 l 2.10713,-1.53259 a 17.577257,17.577257 0 0 0 -11.2204,-7.00555 15.129058,15.129058 0 0 1 -10.8181,-8.0209 l -1.94458,-3.83613 a 68.474004,68.474004 0 0 1 4.18371,-8.75437 l 4.38363,7.11331 a 14.163133,14.163133 0 0 0 9.59265,6.51218 l 8.43006,1.48478 0.45194,-2.56591 -8.43006,-1.48479 a 11.555302,11.555302 0 0 1 -7.82648,-5.31318 l -5.09574,-8.26867 a 68.151655,68.151655 0 0 1 13.44527,-15.60802 6.6624307,6.6624307 0 0 1 10.89161,6.21924 l -1.55228,8.8132 a 2.6387654,2.6387654 0 0 1 -0.315,-0.0341 l -1.72319,-0.30351 -2.24207,-3.20092 a 1.2935346,1.2935346 0 0 1 -0.2161,-0.97329 l 0.71669,-4.06907 a 1.3027691,1.3027691 0 0 0 -1.057,-1.50892 l -5.13182,-0.90388 a 1.3027691,1.3027691 0 0 0 -1.50893,1.05699 l -0.79423,4.5093 a 9.0596666,9.0596666 0 0 0 1.51181,6.81354 l 1.62318,2.31702 -3.45989,2.42349 a 1.3029042,1.3029042 0 0 0 -0.31959,1.81449 l 3.17097,4.52678 a 1.3030004,1.3030004 0 0 0 1.8145,0.31959 l 7.10258,-4.97544 0.12903,0.0228 a 9.1763036,9.1763036 0 0 0 2.28488,0.11388 11.793337,11.793337 0 0 1 0.14415,4.75936 z"
     id="path142"
     style="fill:#008080;fill-opacity:1;stroke-width:0.162838" /><g
     id="g338"
     transform="matrix(0.07888647,-0.08984695,0.08984695,0.07888647,179.70756,47.829154)"
     style="fill:#008080;fill-opacity:1"><circle
       cx="120"
       cy="176"
       r="8"
       id="circle315"
       style="fill:#008080;fill-opacity:1" /><circle
       cx="136"
       cy="392"
       r="8"
       id="circle317"
       style="fill:#008080;fill-opacity:1" /><path
       d="m 237.65723,170.34326 -8,-8 -96,-96 a 8.00176,8.00176 0 0 0 -3.7168,-2.10449 L 100.08984,56.77637 61.65723,18.34326 a 8.00122,8.00122 0 0 0 -11.31446,0 l -32,32 a 8,8 0 0 0 0,11.31348 l 38.4336,38.4331 7.46289,29.85059 a 8.0021,8.0021 0 0 0 2.10351,3.71631 L 86.644,153.95764 A 39.74249,39.74249 0 0 0 80.35958,170.71826 100.26546,100.26546 0 0 0 24,260.92627 v 65.104 a 92.33549,92.33549 0 0 0 59.91821,86.55591 L 67.47,440 H 24 a 8.00008,8.00008 0 0 0 -8,8 v 40 a 8.00008,8.00008 0 0 0 8,8 h 280 a 8.00008,8.00008 0 0 0 8,-8 v -40 a 8.00008,8.00008 0 0 0 -8,-8 H 200 v -17.582 l 22.15332,-9.49451 2.41895,6.04773 a 8.00006,8.00006 0 0 0 11.00585,4.18408 l 80,-40 a 8.00033,8.00033 0 0 0 3.57715,-10.73291 l -16,-32 a 8,8 0 0 0 -10.50781,-3.686 L 200,379.4967 v -46.621 l 106.64258,-37.32495 a 8.00017,8.00017 0 0 0 4.94726,-10.08057 l -8,-24 a 7.99966,7.99966 0 0 0 -10.23242,-5.021 l -160,56 a 8.00017,8.00017 0 0 0 -4.94726,10.08057 L 136,345.29932 V 360 H 112 A 32.03635,32.03635 0 0 1 80,328 V 272 A 16.02208,16.02208 0 0 1 89.84961,257.23315 23.99556,23.99556 0 0 0 134.62378,256 H 152 a 8.00008,8.00008 0 0 0 8,-8 v -20.686 l 2.34277,2.34271 8,8 A 8.00076,8.00076 0 0 0 176,240 v 16 a 8.00035,8.00035 0 0 0 2.34277,5.65674 l 8,8 A 8.00076,8.00076 0 0 0 192,272 h 16 a 8.00076,8.00076 0 0 0 5.65723,-2.34326 l 8,-8 A 8.00035,8.00035 0 0 0 224,256 v -20.686 l 10.34277,10.34278 A 8.00076,8.00076 0 0 0 240,248 h 8 a 8.00076,8.00076 0 0 0 5.65723,-2.34326 l 16,-16 A 8.00035,8.00035 0 0 0 272,224 v -8 a 8.00035,8.00035 0 0 0 -2.34277,-5.65674 L 240,180.686 V 176 a 8.00035,8.00035 0 0 0 -2.34277,-5.65674 z M 196.68652,224 H 179.314 L 224,179.314 v 17.372 z M 35.31348,56 56,35.314 90.34277,69.65674 a 8.00176,8.00176 0 0 0 3.7168,2.10449 L 112.35181,76.33417 76.334,112.35205 71.76074,94.05957 A 7.996,7.996 0 0 0 69.65723,90.34326 Z M 120,200 a 24,24 0 1 1 24,-24 24.0275,24.0275 0 0 1 -24,24 z M 296,480 H 32 v -24 h 264 z m -3.6875,-125.48682 8.9541,17.90918 -65.06738,32.53418 -8.28809,-20.71972 z m -78.94824,36.4375 2.84521,7.11292 L 200,405.01074 v -7.89209 z m 77.61426,-116.71728 2.93945,8.81933 -144.89649,50.71387 -2.93945,-8.81933 z M 152,349.67566 l 32,-11.2 V 440 h -16 v -72 a 8.00008,8.00008 0 0 0 -8,-8 h -8 z M 144,376 h 8 v 64 H 86.12988 L 124.5293,376 Z M 112,256 a 8,8 0 1 1 8,-8 8.00917,8.00917 0 0 1 -8,8 z m 32,-16 h -9.37622 A 23.99715,23.99715 0 0 0 89.12085,240.75269 32.05,32.05 0 0 0 64,272 v 56 a 48.0608,48.0608 0 0 0 42.0957,47.62378 L 92.31445,398.59229 A 76.36513,76.36513 0 0 1 40,326.03027 v -65.104 a 84.28459,84.28459 0 0 1 41.8562,-72.88263 39.96686,39.96686 0 0 0 60.1858,21.31262 l 1.958,1.95807 z m 9.356,-41.95764 A 39.97361,39.97361 0 0 0 97.958,142.6438 L 83.31372,128.00018 128.00024,83.31372 212.68652,168 168,212.68652 Z M 204.68652,256 h -9.373 L 192,252.68652 V 240 h 8 a 8.00076,8.00076 0 0 0 5.65723,-2.34326 L 208,235.314 v 17.37256 z M 256,220.68652 244.68652,232 h -1.373 L 227.314,216.00006 237.65727,205.65674 a 7.98836,7.98836 0 0 0 1.82788,-2.85785 L 256,219.31348 Z"
       id="path319"
       style="fill:#008080;fill-opacity:1" /><path
       d="m 483.37793,76.30225 -14.1875,7.3955 a 95.74594,95.74594 0 0 1 6.18164,14.76172 l 15.22461,-4.91894 a 111.679,111.679 0 0 0 -7.21875,-17.23828 z"
       id="path321"
       style="fill:#008080;fill-opacity:1" /><path
       d="M 478.87012,113.22119 A 97.08184,97.08184 0 0 1 480,128 95.99258,95.99258 0 1 1 445.3418,54.15039 L 455.57227,41.84863 A 111.99823,111.99823 0 0 0 280,169.56134 V 240 h 16 v -42.79358 a 112.253,112.253 0 0 0 60.80347,39.44751 l -40.38159,20.1908 7.15624,14.31054 L 385.938,239.9754 A 112.08066,112.08066 0 0 0 494.68262,110.77881 Z"
       id="path323"
       style="fill:#008080;fill-opacity:1" /><path
       d="m 432,120 v -16 h -17.0127 a 31.79307,31.79307 0 0 0 -3.43164,-8.24164 l 12.043,-12.04254 -11.31448,-11.31348 -12.04248,12.042 A 31.80336,31.80336 0 0 0 392,81.01263 V 64 h -16 v 17.01263 a 31.80336,31.80336 0 0 0 -8.2417,3.43171 l -12.04248,-12.042 -11.31445,11.31348 12.043,12.04254 A 31.79307,31.79307 0 0 0 353.0127,104 H 336 v 16 h 16 v 16 h -16 v 16 h 17.0127 a 31.79307,31.79307 0 0 0 3.43164,8.24164 l -12.043,12.04254 11.31445,11.31348 12.04248,-12.042 A 31.80336,31.80336 0 0 0 376,174.98737 V 192 h 16 v -17.01263 a 31.80336,31.80336 0 0 0 8.2417,-3.43171 l 12.04248,12.042 11.31445,-11.31348 -12.043,-12.04254 A 31.79307,31.79307 0 0 0 414.9873,152 H 432 v -16 h -16 v -16 z m -48,40 a 16.01833,16.01833 0 0 1 -16,-16 v -32 a 16,16 0 0 1 32,0 v 32 a 16.01833,16.01833 0 0 1 -16,16 z"
       id="path325"
       style="fill:#008080;fill-opacity:1" /></g><g
     id="g351"
     transform="matrix(0.18341703,0.0598358,-0.0598358,0.18341703,214.97411,291.62678)"
     style="fill:#008080;fill-opacity:1"><path
       d="m 464,80 h -4.686 L 413.65674,34.34277 a 7.995,7.995 0 0 0 -7.59717,-2.10351 l -32,8 a 8.00692,8.00692 0 0 0 -3.71631,2.10351 L 338.8042,73.88135 A 31.85025,31.85025 0 0 0 328,72 H 24 a 8.00008,8.00008 0 0 0 -8,8 v 200 a 8.00008,8.00008 0 0 0 8,8 H 144 V 272 H 80 V 88 h 16 v 48 h 16 V 88 h 216 a 16,16 0 0 1 0,32 h -64 a 7.99967,7.99967 0 0 0 -7.15527,4.42188 A 49.61686,49.61686 0 0 1 212.22314,152 H 192 v 16 h 20.22314 a 65.49084,65.49084 0 0 0 56.51075,-32 H 288 v 12.68652 l -16,15.99948 -2.34326,-2.34327 a 8.00182,8.00182 0 0 0 -11.31348,0 l -24,24 a 8.00034,8.00034 0 0 0 0,11.31446 L 260.686,224 244,240.686 l -6.34326,-6.34327 a 8.00182,8.00182 0 0 0 -11.31348,0 L 200,260.686 l -2.34326,-2.34327 a 8.00182,8.00182 0 0 0 -11.31348,0 l -120,120 a 8.00034,8.00034 0 0 0 0,11.31446 L 80.686,404 64,420.686 53.65674,410.34277 a 8.00182,8.00182 0 0 0 -11.31348,0 l -24,24 a 8.00034,8.00034 0 0 0 0,11.31446 l 32,32 a 8.00063,8.00063 0 0 0 11.31348,0 l 24,-24 a 8.00034,8.00034 0 0 0 0,-11.31446 L 75.314,432 92,415.314 l 14.34326,14.34327 a 8.00063,8.00063 0 0 0 11.31348,0 l 120,-120 a 8.00034,8.00034 0 0 0 0,-11.31446 L 235.314,296 261.65678,269.65723 a 8.00034,8.00034 0 0 0 0,-11.31446 L 255.314,252 272,235.314 l 26.34326,26.34327 a 8.00063,8.00063 0 0 0 11.31348,0 l 24,-24 a 8.00034,8.00034 0 0 0 0,-11.31446 L 331.314,224 l 16,-16 H 368 a 8.00035,8.00035 0 0 0 5.65674,-2.34277 L 387.314,192 H 432 a 16,16 0 0 1 0,32 h -72 v 16 h 56 a 16,16 0 0 1 0,32 H 272 v 16 h 144 a 31.98381,31.98381 0 0 0 26.57568,-49.804 31.97339,31.97339 0 0 0 16,-48 31.97339,31.97339 0 0 0 16,-48 A 31.99657,31.99657 0 0 0 464,80 Z M 32,88 H 64 V 272 H 32 Z M 56,460.68652 35.31348,440 48,427.31348 68.68652,448 Z M 208,316.686 197.65674,306.34273 186.34326,317.65719 196.6861,328 184.0001,340.686 173.65678,330.34273 162.3433,341.65719 172.68616,352 l -12.686,12.686 -10.34338,-10.34327 -11.31348,11.31446 10.343,10.343 -12.686,12.686 -10.34344,-10.34351 -11.31348,11.31446 10.343,10.343 L 112,412.68652 83.314,384 192,275.31348 220.686,304 Z m 16.00006,-32 L 211.3139,272 232,251.31348 244.68652,264 Z M 447.14014,90.4541 443.66577,104.35181 391.648,52.334 405.546,48.8594 Z M 360,104 a 31.85336,31.85336 0 0 0 -7.79321,-20.89331 l 23.793,-23.793 60.68652,60.68652 L 384,172.686 343.371,132.05709 A 32.02422,32.02422 0 0 0 360,104 Z M 304,244.68652 251.31348,192 264,179.31348 316.68652,232 Z M 364.686,192 H 344 a 8.00035,8.00035 0 0 0 -5.65674,2.34277 L 320,212.686 283.314,176 301.65678,157.65723 A 8.00076,8.00076 0 0 0 304,152 v -16 h 20.686 l 48,48 z M 448,176 h -44.686 l 32,-32 H 448 a 16,16 0 0 1 0,32 z m 16,-48 h -12.686 l 2.34278,-2.34277 a 8.00176,8.00176 0 0 0 2.10449,-3.7168 L 462.24634,96 H 464 a 16,16 0 0 1 0,32 z"
       id="path340"
       style="fill:#008080;fill-opacity:1" /><rect
       height="16"
       width="16"
       x="96"
       y="152"
       id="rect342"
       style="fill:#008080;fill-opacity:1" /></g><g
     id="g364"
     transform="matrix(0.07017805,-0.07992858,0.07992858,0.07017805,112.85778,97.599193)"
     style="fill:#008080;fill-opacity:1"><path
       d="m 464,80 h -4.686 L 413.65674,34.34277 a 7.995,7.995 0 0 0 -7.59717,-2.10351 l -32,8 a 8.00692,8.00692 0 0 0 -3.71631,2.10351 L 338.8042,73.88135 A 31.85025,31.85025 0 0 0 328,72 H 24 a 8.00008,8.00008 0 0 0 -8,8 v 200 a 8.00008,8.00008 0 0 0 8,8 H 144 V 272 H 80 V 88 h 16 v 48 h 16 V 88 h 216 a 16,16 0 0 1 0,32 h -64 a 7.99967,7.99967 0 0 0 -7.15527,4.42188 A 49.61686,49.61686 0 0 1 212.22314,152 H 192 v 16 h 20.22314 a 65.49084,65.49084 0 0 0 56.51075,-32 H 288 v 12.68652 l -16,15.99948 -2.34326,-2.34327 a 8.00182,8.00182 0 0 0 -11.31348,0 l -24,24 a 8.00034,8.00034 0 0 0 0,11.31446 L 260.686,224 244,240.686 l -6.34326,-6.34327 a 8.00182,8.00182 0 0 0 -11.31348,0 L 200,260.686 l -2.34326,-2.34327 a 8.00182,8.00182 0 0 0 -11.31348,0 l -120,120 a 8.00034,8.00034 0 0 0 0,11.31446 L 80.686,404 64,420.686 53.65674,410.34277 a 8.00182,8.00182 0 0 0 -11.31348,0 l -24,24 a 8.00034,8.00034 0 0 0 0,11.31446 l 32,32 a 8.00063,8.00063 0 0 0 11.31348,0 l 24,-24 a 8.00034,8.00034 0 0 0 0,-11.31446 L 75.314,432 92,415.314 l 14.34326,14.34327 a 8.00063,8.00063 0 0 0 11.31348,0 l 120,-120 a 8.00034,8.00034 0 0 0 0,-11.31446 L 235.314,296 261.65678,269.65723 a 8.00034,8.00034 0 0 0 0,-11.31446 L 255.314,252 272,235.314 l 26.34326,26.34327 a 8.00063,8.00063 0 0 0 11.31348,0 l 24,-24 a 8.00034,8.00034 0 0 0 0,-11.31446 L 331.314,224 l 16,-16 H 368 a 8.00035,8.00035 0 0 0 5.65674,-2.34277 L 387.314,192 H 432 a 16,16 0 0 1 0,32 h -72 v 16 h 56 a 16,16 0 0 1 0,32 H 272 v 16 h 144 a 31.98381,31.98381 0 0 0 26.57568,-49.804 31.97339,31.97339 0 0 0 16,-48 31.97339,31.97339 0 0 0 16,-48 A 31.99657,31.99657 0 0 0 464,80 Z M 32,88 H 64 V 272 H 32 Z M 56,460.68652 35.31348,440 48,427.31348 68.68652,448 Z M 208,316.686 197.65674,306.34273 186.34326,317.65719 196.6861,328 184.0001,340.686 173.65678,330.34273 162.3433,341.65719 172.68616,352 l -12.686,12.686 -10.34338,-10.34327 -11.31348,11.31446 10.343,10.343 -12.686,12.686 -10.34344,-10.34351 -11.31348,11.31446 10.343,10.343 L 112,412.68652 83.314,384 192,275.31348 220.686,304 Z m 16.00006,-32 L 211.3139,272 232,251.31348 244.68652,264 Z M 447.14014,90.4541 443.66577,104.35181 391.648,52.334 405.546,48.8594 Z M 360,104 a 31.85336,31.85336 0 0 0 -7.79321,-20.89331 l 23.793,-23.793 60.68652,60.68652 L 384,172.686 343.371,132.05709 A 32.02422,32.02422 0 0 0 360,104 Z M 304,244.68652 251.31348,192 264,179.31348 316.68652,232 Z M 364.686,192 H 344 a 8.00035,8.00035 0 0 0 -5.65674,2.34277 L 320,212.686 283.314,176 301.65678,157.65723 A 8.00076,8.00076 0 0 0 304,152 v -16 h 20.686 l 48,48 z M 448,176 h -44.686 l 32,-32 H 448 a 16,16 0 0 1 0,32 z m 16,-48 h -12.686 l 2.34278,-2.34277 a 8.00176,8.00176 0 0 0 2.10449,-3.7168 L 462.24634,96 H 464 a 16,16 0 0 1 0,32 z"
       id="path353"
       style="fill:#008080;fill-opacity:1" /><rect
       height="16"
       width="16"
       x="96"
       y="152"
       id="rect355"
       style="fill:#008080;fill-opacity:1" /></g><g
     id="layer1-0"
     transform="matrix(3.9879944,-4.5420861,4.5420861,3.9879944,-1006.7761,-918.57917)"
     style="fill:#008080;fill-opacity:1"><path
       d="m 8.73124,293.82498 a 0.26458335,0.26458335 0 0 1 -0.26458,0.26458 0.26458335,0.26458335 0 0 1 -0.26458,-0.26458 0.26458335,0.26458335 0 0 1 0.26458,-0.26459 0.26458335,0.26458335 0 0 1 0.26458,0.26459 z"
       id="circle1738"
       style="display:inline;opacity:1;fill:#008080;fill-opacity:1;stroke:none;stroke-width:0.529167;stroke-linecap:butt;stroke-linejoin:round;stroke-miterlimit:4;stroke-dasharray:none;stroke-dashoffset:0;stroke-opacity:1;paint-order:normal" /><path
       d="m 7.9375,293.03121 a 0.26458335,0.26458335 0 0 1 -0.26459,0.26459 0.26458335,0.26458335 0 0 1 -0.26458,-0.26459 0.26458335,0.26458335 0 0 1 0.26458,-0.26458 0.26458335,0.26458335 0 0 1 0.26459,0.26458 z"
       id="circle1740"
       style="display:inline;opacity:1;fill:#008080;fill-opacity:1;stroke:none;stroke-width:0.529167;stroke-linecap:butt;stroke-linejoin:round;stroke-miterlimit:4;stroke-dasharray:none;stroke-dashoffset:0;stroke-opacity:1;paint-order:normal" /><path
       d="m 9.52499,293.03121 a 0.26458335,0.26458335 0 0 1 -0.26458,0.26459 0.26458335,0.26458335 0 0 1 -0.26459,-0.26459 0.26458335,0.26458335 0 0 1 0.26459,-0.26458 0.26458335,0.26458335 0 0 1 0.26458,0.26458 z"
       id="circle1742"
       style="display:inline;opacity:1;fill:#008080;fill-opacity:1;stroke:none;stroke-width:0.529167;stroke-linecap:butt;stroke-linejoin:round;stroke-miterlimit:4;stroke-dasharray:none;stroke-dashoffset:0;stroke-opacity:1;paint-order:normal" /><path
       d="m 10.31874,293.82498 a 0.26458335,0.26458335 0 0 1 -0.26459,0.26458 0.26458335,0.26458335 0 0 1 -0.26458,-0.26458 0.26458335,0.26458335 0 0 1 0.26458,-0.26459 0.26458335,0.26458335 0 0 1 0.26459,0.26459 z"
       id="circle1744"
       style="display:inline;opacity:1;fill:#008080;fill-opacity:1;stroke:none;stroke-width:0.529167;stroke-linecap:butt;stroke-linejoin:round;stroke-miterlimit:4;stroke-dasharray:none;stroke-dashoffset:0;stroke-opacity:1;paint-order:normal" /><path
       d="m 5.0270781,281.91873 c -0.5817394,0 -1.0583334,0.4766 -1.0583334,1.05834 v 1.20612 c -0.1564296,-0.0916 -0.3359124,-0.14779 -0.5291667,-0.14779 -0.5817394,0 -1.0583333,0.4766 -1.0583333,1.05833 v 2.11667 c 0,0.58174 0.4765939,1.05833 1.0583333,1.05833 0.5817394,0 1.0583334,-0.47659 1.0583334,-1.05833 v -1.20613 c 0.1564296,0.0916 0.3359123,0.1478 0.5291667,0.1478 0.5817499,0 1.0583333,-0.47661 1.0583333,-1.05834 v -2.11666 c 0,-0.58174 -0.476594,-1.05834 -1.0583333,-1.05834 z m 0,0.52917 c 0.2977409,0 0.5291666,0.23143 0.5291666,0.52917 v 0.79375 H 4.4979114 v -0.79375 c 0,-0.29774 0.2314257,-0.52917 0.5291667,-0.52917 z m -0.5291667,1.85208 h 1.0583333 v 0.79375 c 0,0.29774 -0.2314257,0.52917 -0.5291666,0.52917 -0.2977304,0 -0.5291667,-0.23143 -0.5291667,-0.52917 z m -1.0583334,0.26459 c 0.2977409,0 0.5291667,0.23142 0.5291667,0.52916 v 0.79375 H 2.9104113 v -0.79375 c 0,-0.29774 0.2314258,-0.52916 0.5291667,-0.52916 z m -0.5291667,1.85208 h 1.0583334 v 0.79375 c 0,0.29774 -0.2314258,0.52917 -0.5291667,0.52917 -0.2977409,0 -0.5291667,-0.23143 -0.5291667,-0.52917 z"
       id="rect1746"
       style="color:#000000;font-style:normal;font-variant:normal;font-weight:normal;font-stretch:normal;font-size:medium;line-height:normal;font-family:sans-serif;font-variant-ligatures:normal;font-variant-position:normal;font-variant-caps:normal;font-variant-numeric:normal;font-variant-alternates:normal;font-feature-settings:normal;text-indent:0;text-align:start;text-decoration:none;text-decoration-line:none;text-decoration-style:solid;text-decoration-color:#000000;letter-spacing:normal;word-spacing:normal;text-transform:none;writing-mode:lr-tb;direction:ltr;text-orientation:mixed;dominant-baseline:auto;baseline-shift:baseline;text-anchor:start;white-space:normal;shape-padding:0;clip-rule:nonzero;display:inline;overflow:visible;visibility:visible;opacity:1;isolation:auto;mix-blend-mode:normal;color-interpolation:sRGB;color-interpolation-filters:linearRGB;solid-color:#000000;solid-opacity:1;fill:#008080;fill-opacity:1;fill-rule:nonzero;stroke:none;stroke-width:0.529167;stroke-linecap:butt;stroke-linejoin:round;stroke-miterlimit:4;stroke-dasharray:none;stroke-dashoffset:0;stroke-opacity:1;paint-order:normal;color-rendering:auto;image-rendering:auto;shape-rendering:auto;text-rendering:auto;enable-background:accumulate" /><path
       d="m 10.84791,290.91457 c -0.58137,0 -1.05833,0.47696 -1.05833,1.05833 0,0.58136 0.47696,1.05833 1.05833,1.05833 0.58136,0 1.05834,-0.47697 1.05834,-1.05833 0,-0.58137 -0.47698,-1.05833 -1.05834,-1.05833 z m 0,0.52916 c 0.29538,0 0.52917,0.23378 0.52917,0.52917 0,0.29538 -0.23379,0.52917 -0.52917,0.52917 -0.29539,0 -0.52916,-0.23379 -0.52916,-0.52917 0,-0.29539 0.23377,-0.52917 0.52916,-0.52917 z"
       id="circle1748"
       style="color:#000000;font-style:normal;font-variant:normal;font-weight:normal;font-stretch:normal;font-size:medium;line-height:normal;font-family:sans-serif;font-variant-ligatures:normal;font-variant-position:normal;font-variant-caps:normal;font-variant-numeric:normal;font-variant-alternates:normal;font-feature-settings:normal;text-indent:0;text-align:start;text-decoration:none;text-decoration-line:none;text-decoration-style:solid;text-decoration-color:#000000;letter-spacing:normal;word-spacing:normal;text-transform:none;writing-mode:lr-tb;direction:ltr;text-orientation:mixed;dominant-baseline:auto;baseline-shift:baseline;text-anchor:start;white-space:normal;shape-padding:0;clip-rule:nonzero;display:inline;overflow:visible;visibility:visible;opacity:1;isolation:auto;mix-blend-mode:normal;color-interpolation:sRGB;color-interpolation-filters:linearRGB;solid-color:#000000;solid-opacity:1;fill:#008080;fill-opacity:1;fill-rule:nonzero;stroke:none;stroke-width:0.529167;stroke-linecap:butt;stroke-linejoin:round;stroke-miterlimit:4;stroke-dasharray:none;stroke-dashoffset:0;stroke-opacity:1;paint-order:normal;color-rendering:auto;image-rendering:auto;shape-rendering:auto;text-rendering:auto;enable-background:accumulate" /><path
       d="m 12.170828,281.91873 c -0.20524,-2e-5 -0.411104,0.10313 -0.551905,0.24392 -0.14079,0.14079 -0.241845,0.32935 -0.241845,0.54983 0,0.19012 0.07527,0.3802 0.218591,0.524 0.08151,0.0822 0.153379,0.15339 0.235127,0.23565 l -1.246952,1.24695 c -0.379354,-0.37806 -0.7574702,-0.75567 -1.1363641,-1.13481 -0.074999,-0.0781 -0.1605677,-0.078 -0.1870684,-0.078 -0.1455288,-4e-5 -0.2645833,0.11907 -0.2645833,0.26459 0,0 1.455e-4,0.10816 0.078549,0.18655 l 0.606163,0.60668 -5.8993803,5.89938 c -0.0513,0.0516 -0.076999,0.11909 -0.076999,0.18655 0,0.0675 0.025691,0.13496 0.076999,0.18656 l 0.7400052,0.74 -1.7983386,1.79679 c -0.076801,0.0768 -0.076999,0.16057 -0.076999,0.18707 0,0.14552 0.1190334,0.26458 0.2645833,0.26458 0.026501,0 0.1105694,2e-5 0.1870684,-0.0765 l 1.7967908,-1.79885 0.7389733,0.73897 c 0.0517,0.0519 0.1196948,0.078 0.1875843,0.078 0.0679,0 0.1358768,-0.0261 0.1875843,-0.078 l 5.8983491,-5.89835 0.606681,0.60668 c 0.0667,0.0781 0.160052,0.078 0.186553,0.078 0.145521,0 0.264583,-0.11906 0.264583,-0.26458 0,-0.0265 -2.3e-4,-0.10873 -0.07803,-0.18655 -0.37888,-0.37842 -0.756615,-0.75759 -1.134813,-1.13637 l 1.244883,-1.24488 c 0.07323,0.0734 0.164372,0.16471 0.234095,0.23461 0.14777,0.1482 0.324247,0.216 0.527616,0.21652 0.20338,5.3e-4 0.409565,-0.10312 0.550355,-0.24391 0.1408,-0.14079 0.243395,-0.32936 0.243395,-0.54984 0,-0.18996 -0.07413,-0.38213 -0.218075,-0.52606 l -1.636593,-1.63659 c -0.143939,-0.1439 -0.321331,-0.21857 -0.526582,-0.2186 z m 0,0.52917 c 0.0494,-2e-5 0.107903,0.019 0.151413,0.0625 l 1.636591,1.63814 c 0.0435,0.0435 0.06408,0.0968 0.06408,0.15141 0,0.0441 -0.02963,0.1191 -0.08733,0.17674 -0.0571,0.0571 -0.133009,0.0874 -0.17725,0.0879 -0.0591,-2.7e-4 -0.113493,-0.021 -0.152961,-0.0605 -0.545203,-0.54658 -1.091393,-1.09362 -1.636593,-1.64021 -0.0439,-0.044 -0.06253,-0.0968 -0.06253,-0.15142 0,-0.0441 0.03015,-0.11909 0.08785,-0.17673 0.0576,-0.0576 0.127354,-0.0879 0.176733,-0.0879 z m 0.03307,1.39888 c 0.144166,0.14465 0.280183,0.2815 0.419095,0.42065 l -1.245918,1.24488 -0.420129,-0.42013 z m -2.147673,1.09296 c 0.490193,0.49317 0.983215,0.98321 1.474846,1.47485 l -1.081588,1.0821 -1.4753616,-1.47536 z m -1.4552085,1.45469 1.4743295,1.4764 -0.6841963,0.68471 -0.4733555,-0.47336 c -0.078301,-0.0783 -0.1600914,-0.078 -0.1865524,-0.078 -0.1455605,3e-5 -0.2645727,0.11906 -0.2645833,0.26458 0,0.0265 2.46e-4,0.11072 0.078549,0.18656 l 0.4728369,0.47335 -0.9487774,0.9493 -0.473874,-0.47336 c -0.075499,-0.0776 -0.1605174,-0.0775 -0.1870684,-0.0775 -0.1454705,-2e-5 -0.2645833,0.11906 -0.2645833,0.26458 0,0.0265 9.79e-5,0.1112 0.076999,0.1881 l 0.4743874,0.47233 -0.8722969,0.87281 -0.4728395,-0.47491 c -0.076999,-0.077 -0.1615917,-0.077 -0.1881029,-0.077 -0.1455103,4e-5 -0.2645834,0.11906 -0.2645834,0.26458 0,0.0265 -8.46e-5,0.10999 0.077515,0.18759 l 0.4738741,0.47335 -0.6283855,0.6289 L 4.3434,290.64998 Z"
       id="path1751"
       style="color:#000000;font-style:normal;font-variant:normal;font-weight:normal;font-stretch:normal;font-size:medium;line-height:normal;font-family:sans-serif;font-variant-ligatures:normal;font-variant-position:normal;font-variant-caps:normal;font-variant-numeric:normal;font-variant-alternates:normal;font-feature-settings:normal;text-indent:0;text-align:start;text-decoration:none;text-decoration-line:none;text-decoration-style:solid;text-decoration-color:#000000;letter-spacing:normal;word-spacing:normal;text-transform:none;writing-mode:lr-tb;direction:ltr;text-orientation:mixed;dominant-baseline:auto;baseline-shift:baseline;text-anchor:start;white-space:normal;shape-padding:0;clip-rule:nonzero;display:inline;overflow:visible;visibility:visible;opacity:1;isolation:auto;mix-blend-mode:normal;color-interpolation:sRGB;color-interpolation-filters:linearRGB;solid-color:#000000;solid-opacity:1;fill:#008080;fill-opacity:1;fill-rule:nonzero;stroke:none;stroke-width:0.529167;stroke-linecap:butt;stroke-linejoin:round;stroke-miterlimit:4;stroke-dasharray:none;stroke-dashoffset:0;stroke-opacity:1;paint-order:normal;color-rendering:auto;image-rendering:auto;shape-rendering:auto;text-rendering:auto;enable-background:accumulate" /><path
       d="m 12.7,293.03123 c -0.58137,0 -1.05834,0.47698 -1.05834,1.05834 0,0.58137 0.47697,1.05833 1.05834,1.05833 0.58137,0 1.05833,-0.47696 1.05833,-1.05833 0,-0.58136 -0.47696,-1.05834 -1.05833,-1.05834 z m 0,0.52917 c 0.29538,0 0.52916,0.23379 0.52916,0.52917 0,0.29539 -0.23378,0.52916 -0.52916,0.52916 -0.29539,0 -0.52917,-0.23377 -0.52917,-0.52916 0,-0.29538 0.23378,-0.52917 0.52917,-0.52917 z"
       id="circle1761"
       style="color:#000000;font-style:normal;font-variant:normal;font-weight:normal;font-stretch:normal;font-size:medium;line-height:normal;font-family:sans-serif;font-variant-ligatures:normal;font-variant-position:normal;font-variant-caps:normal;font-variant-numeric:normal;font-variant-alternates:normal;font-feature-settings:normal;text-indent:0;text-align:start;text-decoration:none;text-decoration-line:none;text-decoration-style:solid;text-decoration-color:#000000;letter-spacing:normal;word-spacing:normal;text-transform:none;writing-mode:lr-tb;direction:ltr;text-orientation:mixed;dominant-baseline:auto;baseline-shift:baseline;text-anchor:start;white-space:normal;shape-padding:0;clip-rule:nonzero;display:inline;overflow:visible;visibility:visible;opacity:1;isolation:auto;mix-blend-mode:normal;color-interpolation:sRGB;color-interpolation-filters:linearRGB;solid-color:#000000;solid-opacity:1;fill:#008080;fill-opacity:1;fill-rule:nonzero;stroke:none;stroke-width:0.529167;stroke-linecap:butt;stroke-linejoin:round;stroke-miterlimit:4;stroke-dasharray:none;stroke-dashoffset:0;stroke-opacity:1;paint-order:normal;color-rendering:auto;image-rendering:auto;shape-rendering:auto;text-rendering:auto;enable-background:accumulate" /><path
       d="m 13.49375,290.3854 c -0.58137,0 -1.05834,0.47696 -1.05834,1.05833 0,0.58137 0.47697,1.05834 1.05834,1.05834 0.58137,0 1.05833,-0.47697 1.05833,-1.05834 0,-0.58137 -0.47696,-1.05833 -1.05833,-1.05833 z m 0,0.52917 c 0.29539,0 0.52916,0.23378 0.52916,0.52916 0,0.29538 -0.23377,0.52917 -0.52916,0.52917 -0.29538,0 -0.52917,-0.23379 -0.52917,-0.52917 0,-0.29538 0.23379,-0.52916 0.52917,-0.52916 z"
       id="circle1763"
       style="color:#000000;font-style:normal;font-variant:normal;font-weight:normal;font-stretch:normal;font-size:medium;line-height:normal;font-family:sans-serif;font-variant-ligatures:normal;font-variant-position:normal;font-variant-caps:normal;font-variant-numeric:normal;font-variant-alternates:normal;font-feature-settings:normal;text-indent:0;text-align:start;text-decoration:none;text-decoration-line:none;text-decoration-style:solid;text-decoration-color:#000000;letter-spacing:normal;word-spacing:normal;text-transform:none;writing-mode:lr-tb;direction:ltr;text-orientation:mixed;dominant-baseline:auto;baseline-shift:baseline;text-anchor:start;white-space:normal;shape-padding:0;clip-rule:nonzero;display:inline;overflow:visible;visibility:visible;opacity:1;isolation:auto;mix-blend-mode:normal;color-interpolation:sRGB;color-interpolation-filters:linearRGB;solid-color:#000000;solid-opacity:1;fill:#008080;fill-opacity:1;fill-rule:nonzero;stroke:none;stroke-width:0.529167;stroke-linecap:butt;stroke-linejoin:round;stroke-miterlimit:4;stroke-dasharray:none;stroke-dashoffset:0;stroke-opacity:1;paint-order:normal;color-rendering:auto;image-rendering:auto;shape-rendering:auto;text-rendering:auto;enable-background:accumulate" /></g><g
     id="g412"
     transform="matrix(0.54341183,-0.61891343,0.61891343,0.54341183,62.824578,351.70836)"
     style="fill:#008080;fill-opacity:1"><path
       d="M 47.086,9.154 A 2.376,2.376 0 0 0 45.015,7.9 c -2.183,0.082 -4.339,4.336 -5.156,6.142 a 30.63,30.63 0 0 1 -4.87,0.355 0.75,0.75 0 0 0 0,1.5 v 0 a 34.456,34.456 0 0 0 4.433,-0.273 c -0.554,2.6 -2.058,9.284 -3.536,12.724 A 21.593,21.593 0 0 1 32.22,34.42 C 28.9,36.44 24.835,38.6 24,38.6 c -0.835,0 -4.9,-2.165 -8.225,-4.189 A 21.363,21.363 0 0 1 12.11,28.339 C 10.632,24.9 9.128,18.212 8.574,15.616 a 37.9,37.9 0 0 0 6.765,0.218 18.741,18.741 0 0 0 8.661,-2.758 18.741,18.741 0 0 0 8.661,2.763 0.75081622,0.75081622 0 1 0 0.07,-1.5 17.437,17.437 0 0 1 -8.3,-2.774 0.753,0.753 0 0 0 -0.869,0 17.341,17.341 0 0 1 -8.3,2.774 34.25,34.25 0 0 1 -7.128,-0.3 C 7.324,12.232 5.168,7.978 2.985,7.9 A 2.4,2.4 0 0 0 0.914,9.154 c -1.136,1.791 -1.42,5.473 0.29,8.767 1.989,3.828 7.821,8.532 8.9,9.385 0.206,0.587 0.415,1.141 0.625,1.63 a 21.783,21.783 0 0 0 4.048,6.607 0.712,0.712 0 0 0 0.134,0.1 c 1.715,1.049 7.433,4.457 9.089,4.457 1.656,0 7.374,-3.413 9.087,-4.459 a 0.712,0.712 0 0 0 0.134,-0.1 21.783,21.783 0 0 0 4.048,-6.607 c 0.21,-0.489 0.419,-1.043 0.625,-1.63 1.081,-0.853 6.913,-5.557 8.9,-9.385 1.712,-3.292 1.428,-6.974 0.292,-8.765 z M 2.536,17.229 C 1.155,14.57 1.276,11.384 2.181,9.957 2.348,9.694 2.61,9.397 2.929,9.395 c 0.939,0.035 2.8,2.878 3.969,5.538 0.129,0.642 1.117,5.465 2.362,9.721 -2.127,-1.831 -5.413,-4.9 -6.724,-7.425 z m 42.928,0 c -1.31,2.523 -4.6,5.593 -6.724,7.425 1.246,-4.26 2.235,-9.088 2.363,-9.723 1.168,-2.659 3.027,-5.5 3.968,-5.536 0.3,0 0.581,0.3 0.748,0.562 0.905,1.427 1.026,4.613 -0.355,7.272 z"
       style="fill:#008080;fill-opacity:1"
       id="path392" /><path
       d="M 36.122,20.456 A 0.745,0.745 0 0 0 35.1,20.176 c -0.065,0.036 -6.549,3.7 -11.1,3.7 -4.551,0 -11.035,-3.661 -11.1,-3.7 a 0.75,0.75 0 0 0 -0.742,1.3 c 0.279,0.159 6.9,3.894 11.842,3.894 4.942,0 11.562,-3.735 11.842,-3.894 a 0.75,0.75 0 0 0 0.28,-1.02 z"
       style="fill:#008080;fill-opacity:1"
       id="path394" /><path
       d="m 34.429,25.66 a 0.749,0.749 0 0 0 -1.035,-0.232 c -0.046,0.029 -4.643,2.9 -9.394,2.9 a 14.1,14.1 0 0 1 -2.86,-0.311 0.75,0.75 0 1 0 -0.3,1.468 15.584,15.584 0 0 0 3.16,0.345 c 5.182,0 9.993,-3.007 10.2,-3.135 a 0.75,0.75 0 0 0 0.229,-1.035 z"
       style="fill:#008080;fill-opacity:1"
       id="path396" /><path
       d="m 18.6,28.843 a 0.75,0.75 0 0 0 0.243,-1.46 22.651,22.651 0 0 1 -4.238,-1.955 0.74921442,0.74921442 0 1 0 -0.8,1.267 23.6,23.6 0 0 0 4.551,2.105 0.774,0.774 0 0 0 0.244,0.043 z"
       style="fill:#008080;fill-opacity:1"
       id="path398" /><path
       d="M 15.748,32.033 A 19.109,19.109 0 0 0 24,34.206 19.109,19.109 0 0 0 32.252,32.033 0.74949466,0.74949466 0 1 0 31.527,30.721 17.83,17.83 0 0 1 24,32.706 17.91,17.91 0 0 1 16.473,30.721 0.74949466,0.74949466 0 1 0 15.748,32.033 Z"
       style="fill:#008080;fill-opacity:1"
       id="path400" /></g><g
     id="g445"
     transform="matrix(-0.8583098,-0.83681248,0.83681248,-0.8583098,166.1115,328.51139)"
     style="fill:#008080;fill-opacity:1"><path
       d="m 24.027,37.912 a 2.78,2.78 0 0 0 -3.608,-1.56 l -7.93,3.142 a 2.781,2.781 0 0 0 1.024,5.365 2.789,2.789 0 0 0 1.024,-0.2 l 7.93,-3.142 a 2.784,2.784 0 0 0 1.56,-3.605 z m -10.043,5.355 a 1.279,1.279 0 0 1 -1.645,-1.7 1.274,1.274 0 0 1 0.7,-0.682 l 3.267,-1.294 0.943,2.379 z m 7.93,-3.142 -3.267,1.3 -0.947,-2.384 3.268,-1.294 a 1.28,1.28 0 0 1 1.661,0.717 1.281,1.281 0 0 1 -0.715,1.661 z"
       id="path416"
       style="fill:#008080;fill-opacity:1" /><path
       d="M 35.177,37.317 31.8,34.708 v 0 L 28.431,32.1 a 2.778,2.778 0 0 0 -3.9,0.5 2.784,2.784 0 0 0 0.5,3.9 l 6.746,5.219 a 2.7802878,2.7802878 0 1 0 3.4,-4.4 z m -9.458,-3.8 a 1.269,1.269 0 0 1 0.849,-0.486 1.3,1.3 0 0 1 0.164,-0.01 1.265,1.265 0 0 1 0.781,0.268 l 2.78,2.15 -1.566,2.024 -2.78,-2.15 a 1.283,1.283 0 0 1 -0.228,-1.8 z m 8.77,6.785 a 1.281,1.281 0 0 1 -1.8,0.229 l -2.78,-2.15 1.566,-2.024 2.78,2.15 a 1.282,1.282 0 0 1 0.234,1.793 z"
       id="path418"
       style="fill:#008080;fill-opacity:1" /><path
       d="m 32.354,42.441 h -8.529 a 2.78,2.78 0 0 0 0,5.559 h 8.529 a 2.78,2.78 0 1 0 0,-5.559 z m -9.808,2.78 a 1.281,1.281 0 0 1 1.279,-1.28 H 27.34 V 46.5 H 23.825 A 1.281,1.281 0 0 1 22.546,45.221 Z M 32.354,46.5 H 28.84 v -2.559 h 3.514 a 1.28,1.28 0 1 1 0,2.559 z"
       id="path420"
       style="fill:#008080;fill-opacity:1" /><path
       d="m 45.551,40.6 a 4.458,4.458 0 1 0 -3.635,7.392 c 0.1,0.006 0.2,0.009 0.292,0.009 a 4.458,4.458 0 0 0 3.343,-7.4 z m -5.3,0.722 a 2.937,2.937 0 0 1 3.6,-0.225 l -4.282,3.765 a 2.924,2.924 0 0 1 0.682,-3.54 z m 3.906,4.442 a 2.925,2.925 0 0 1 -3.6,0.224 l 4.281,-3.763 a 2.954,2.954 0 0 1 -0.683,3.538 z"
       id="path422"
       style="fill:#008080;fill-opacity:1" /><path
       d="M 39.894,37.987 A 4.458,4.458 0 1 0 34.985,34.03 v 0 a 4.458,4.458 0 0 0 4.423,3.982 4.665,4.665 0 0 0 0.486,-0.025 z M 37.115,31.7 a 2.943,2.943 0 0 1 1.985,-1.087 3.06,3.06 0 0 1 0.317,-0.017 2.958,2.958 0 0 1 2.751,1.909 l -5.667,0.608 A 2.929,2.929 0 0 1 37.115,31.7 Z m 0.447,4.159 a 2.925,2.925 0 0 1 -0.9,-1.253 L 42.332,34 a 2.948,2.948 0 0 1 -4.77,1.861 z"
       id="path424"
       style="fill:#008080;fill-opacity:1" /><path
       d="m 24.768,41.766 a 4.789,4.789 0 0 0 2.818,-0.909 0.75,0.75 0 1 0 -0.877,-1.216 3.306,3.306 0 0 1 -1.941,0.625 0.75,0.75 0 1 0 0,1.5 z"
       id="path426"
       style="fill:#008080;fill-opacity:1" /><path
       d="M 9.185,40.266 H 6.166 A 3.331,3.331 0 0 1 2.84,36.939 V 35.1 H 22.5 a 0.75,0.75 0 1 0 0,-1.5 H 2.84 V 18.387 H 6.2 a 0.75,0.75 0 0 0 0,-1.5 H 2.84 v -3.354 a 3.33,3.33 0 0 1 3.326,-3.326 h 18.6 a 3.33,3.33 0 0 1 3.326,3.326 v 3.354 H 8.77 a 0.75,0.75 0 0 0 0,1.5 h 19.324 v 11.934 a 0.75,0.75 0 1 0 1.5,0 V 13.533 A 4.832,4.832 0 0 0 24.768,8.707 h -2.7 v -2.4 h 3.7 a 0.75,0.75 0 0 0 0.75,-0.75 V 0.75 A 0.75,0.75 0 0 0 25.768,0 H 5.173 a 0.75,0.75 0 0 0 -0.75,0.75 v 4.807 a 0.75,0.75 0 0 0 0.75,0.75 h 3.694 v 2.4 h -2.7 A 4.832,4.832 0 0 0 1.34,13.533 v 23.406 a 4.832,4.832 0 0 0 4.826,4.827 h 3.019 a 0.75,0.75 0 1 0 0,-1.5 z M 10.367,6.307 h 7.182 a 0.75,0.75 0 0 0 0,-1.5 H 5.923 V 1.5 h 19.088 v 3.307 h -4.947 a 0.75,0.75 0 0 0 0,1.5 h 0.5 v 2.4 h -10.2 z"
       id="path428"
       style="fill:#008080;fill-opacity:1" /><path
       d="m 17.309,31.276 h -3.684 a 0.75,0.75 0 0 1 -0.75,-0.75 v -1.963 h -1.963 a 0.75,0.75 0 0 1 -0.75,-0.75 v -3.684 a 0.75,0.75 0 0 1 0.75,-0.75 h 1.963 v -1.963 a 0.75,0.75 0 0 1 0.75,-0.75 h 3.684 a 0.75,0.75 0 0 1 0.75,0.75 v 1.963 h 1.962 a 0.75,0.75 0 0 1 0.75,0.75 v 3.684 a 0.75,0.75 0 0 1 -0.75,0.75 h -1.962 v 1.963 a 0.75,0.75 0 0 1 -0.75,0.75 z m -2.934,-1.5 h 2.184 v -1.963 a 0.75,0.75 0 0 1 0.75,-0.75 h 1.962 v -2.184 h -1.962 a 0.75,0.75 0 0 1 -0.75,-0.75 v -1.963 h -2.184 v 1.963 a 0.75,0.75 0 0 1 -0.75,0.75 h -1.963 v 2.184 h 1.963 a 0.75,0.75 0 0 1 0.75,0.75 z"
       id="path430"
       style="fill:#008080;fill-opacity:1" /></g><g
     id="g466"
     transform="matrix(1.0228763,0.72962032,-0.72962032,1.0228763,51.546108,20.084565)"
     style="fill:#008080;fill-opacity:1"><path
       d="M 17.277,14.449 H 16.464 V 8.809 A 0.752,0.752 0 0 0 15.712,8.057 H 14.168 V 4.5 h 0.788 a 0.752,0.752 0 0 0 0.752,-0.752 v -3 A 0.752,0.752 0 0 0 14.956,0 H 6.1 A 6.08,6.08 0 0 0 1.29,2.184 0.754,0.754 0 0 0 1.282,3.062 l 0.88,1.248 a 0.76,0.76 0 0 0 0.977,0.224 6.121,6.121 0 0 1 4.323,-0.059 0.777,0.777 0 0 0 0.2,0.028 H 8.45 V 8.057 H 6.909 A 0.752,0.752 0 0 0 6.157,8.809 v 5.64 H 5.344 A 4.187,4.187 0 0 0 1.162,18.632 V 43.82 A 4.187,4.187 0 0 0 5.344,48 H 17.277 A 4.187,4.187 0 0 0 21.46,43.82 V 18.632 A 4.187,4.187 0 0 0 17.277,14.449 Z M 14.2,3 H 8.417 V 1.5 H 14.2 Z M 3.049,2.958 2.863,2.694 A 4.747,4.747 0 0 1 6.1,1.5 H 6.916 V 2.8 A 7.909,7.909 0 0 0 3.049,2.958 Z M 9.957,4.5 h 2.707 V 8.057 H 9.957 Z m 10,39.317 A 2.681,2.681 0 0 1 17.277,46.5 H 5.344 A 2.681,2.681 0 0 1 2.666,43.82 V 18.632 A 2.681,2.681 0 0 1 5.344,15.953 H 8.29 a 0.752,0.752 0 0 0 0,-1.5 H 7.661 V 9.561 h 7.3 v 4.888 H 10.77 a 0.752,0.752 0 0 0 0,1.5 h 6.507 a 2.681,2.681 0 0 1 2.679,2.679 z"
       id="path449"
       style="fill:#008080;fill-opacity:1" /><path
       d="M 16.863,28.546 H 14.308 V 25.991 A 0.752,0.752 0 0 0 13.556,25.239 H 9.065 a 0.752,0.752 0 0 0 -0.752,0.752 v 2.555 H 5.758 a 0.752,0.752 0 0 0 -0.752,0.752 v 4.491 a 0.752,0.752 0 0 0 0.752,0.752 H 8.313 V 37.1 a 0.752,0.752 0 0 0 0.752,0.752 h 4.491 A 0.752,0.752 0 0 0 14.308,37.1 v -2.559 h 2.555 a 0.752,0.752 0 0 0 0.752,-0.752 V 29.3 a 0.752,0.752 0 0 0 -0.752,-0.754 z m -0.752,4.491 h -2.555 a 0.752,0.752 0 0 0 -0.752,0.752 v 2.556 H 9.817 V 33.789 A 0.752,0.752 0 0 0 9.065,33.037 H 6.51 V 30.05 H 9.065 A 0.752,0.752 0 0 0 9.817,29.298 V 26.743 H 12.8 V 29.3 a 0.752,0.752 0 0 0 0.752,0.752 h 2.555 z"
       id="path451"
       style="fill:#008080;fill-opacity:1" /><path
       d="M 43.8,29.027 37.379,21.3 a 7.073,7.073 0 0 1 -1.63,-4.511 v -4.732 a 0.75,0.75 0 0 0 -0.75,-0.75 H 33.875 V 9.5 h 2.216 a 0.748,0.748 0 0 0 0.611,-0.315 l 1.133,-1.6 a 8.685,8.685 0 0 0 0.983,3.5 7.662,7.662 0 0 0 4.4,3.073 0.725,0.725 0 0 0 0.173,0.021 0.75,0.75 0 0 0 0.6,-1.2 A 10.25,10.25 0 0 1 42.114,7.9 V 4.573 h 3.3 a 0.75,0.75 0 0 0 0.75,-0.75 V 0.75 A 0.75,0.75 0 0 0 45.414,0 H 29.836 A 4.419,4.419 0 0 0 25.421,4.415 V 8.75 a 0.75,0.75 0 0 0 0.75,0.75 h 1.392 v 1.807 h -1.358 a 0.75,0.75 0 0 0 -0.75,0.75 v 6.4 a 0.75,0.75 0 0 0 1.5,0 v -5.65 h 7.294 v 3.983 a 8.58,8.58 0 0 0 1.976,5.47 l 6.421,7.726 a 11.752,11.752 0 0 1 2.708,7.494 v 6.251 A 2.773,2.773 0 0 1 42.584,46.5 H 29.724 A 2.772,2.772 0 0 1 26.955,43.731 V 20.94 a 0.75,0.75 0 1 0 -1.5,0 V 43.731 A 4.274,4.274 0 0 0 29.724,48 h 12.86 a 4.275,4.275 0 0 0 4.27,-4.269 V 37.48 A 13.255,13.255 0 0 0 43.8,29.027 Z M 40.1,10.306 A 9.494,9.494 0 0 1 39.253,6.092 h 1.361 V 7.9 A 9.532,9.532 0 0 0 41.587,11.8 4.868,4.868 0 0 1 40.1,10.306 Z M 44.662,3.073 H 42.114 V 1.5 h 2.548 z M 26.921,4.415 A 2.919,2.919 0 0 1 29.836,1.5 h 10.778 v 3.092 h -2.1 A 0.751,0.751 0 0 0 37.902,4.907 L 35.7,8 H 26.921 Z M 29.063,9.5 h 3.312 v 1.807 h -3.312 z"
       id="path453"
       style="fill:#008080;fill-opacity:1" /><path
       d="m 36.953,29.088 h -4.182 a 0.75,0.75 0 0 0 -0.75,0.75 v 2.33 h -2.33 a 0.75,0.75 0 0 0 -0.75,0.75 V 37.1 a 0.75,0.75 0 0 0 0.75,0.75 h 2.33 v 2.33 a 0.75,0.75 0 0 0 0.75,0.75 h 4.182 a 0.75,0.75 0 0 0 0.75,-0.75 v -2.33 h 2.33 a 0.75,0.75 0 0 0 0.75,-0.75 v -4.182 a 0.75,0.75 0 0 0 -0.75,-0.75 H 37.7 v -2.33 a 0.75,0.75 0 0 0 -0.747,-0.75 z m 2.33,4.58 v 2.682 h -2.33 a 0.75,0.75 0 0 0 -0.75,0.75 v 2.33 H 33.521 V 37.1 a 0.75,0.75 0 0 0 -0.75,-0.75 h -2.33 v -2.682 h 2.33 a 0.75,0.75 0 0 0 0.75,-0.75 v -2.33 H 36.2 v 2.33 a 0.75,0.75 0 0 0 0.75,0.75 z"
       id="path455"
       style="fill:#008080;fill-opacity:1" /></g><g
     id="g438"
     transform="matrix(-0.14155012,-1.2391163,1.2391163,-0.14155012,308.72192,113.30942)"
     inkscape:transform-center-x="-21.629464"
     inkscape:transform-center-y="16.820664"
     style="fill:#008080"><path
       d="m 22.632,10.508 h 6.293 v 7.863 a 0.75,0.75 0 0 0 1.5,0 V 9.758 a 0.75,0.75 0 0 0 -0.75,-0.75 h -7.043 a 0.75,0.75 0 0 0 0,1.5 z"
       id="path394-2"
       style="fill:#008080" /><path
       d="m 28.925,24.4 v 7.138 a 0.75,0.75 0 0 0 1.5,0 V 24.4 a 0.75,0.75 0 0 0 -1.5,0 z"
       id="path396-8"
       style="fill:#008080" /><path
       d="m 29.675,35.97 a 0.75,0.75 0 0 0 -0.75,0.75 V 46.5 H 1.5 V 10.508 h 6.363 a 0.75,0.75 0 0 0 0,-1.5 H 0.75 A 0.75,0.75 0 0 0 0,9.758 V 47.25 A 0.75,0.75 0 0 0 0.75,48 h 28.925 a 0.75,0.75 0 0 0 0.75,-0.75 V 36.72 a 0.75,0.75 0 0 0 -0.75,-0.75 z"
       id="path398-5"
       style="fill:#008080" /><path
       d="m 27.058,19.121 a 0.75,0.75 0 0 0 0.75,-0.75 v -6 a 0.75,0.75 0 0 0 -0.75,-0.75 H 3.367 a 0.75,0.75 0 0 0 -0.75,0.75 v 32.262 a 0.75,0.75 0 0 0 0.75,0.75 h 23.691 a 0.75,0.75 0 0 0 0.75,-0.75 v -7.359 a 0.75,0.75 0 0 0 -1.5,0 v 6.609 H 4.117 V 13.125 h 22.191 v 5.246 a 0.75,0.75 0 0 0 0.75,0.75 z"
       id="path400-2"
       style="fill:#008080" /><path
       d="m 26.308,23.421 v 8.96 a 0.75,0.75 0 0 0 1.5,0 v -8.96 a 0.75,0.75 0 0 0 -1.5,0 z"
       id="path402"
       style="fill:#008080" /><path
       d="m 10.319,10.508 h 9.786 A 0.75,0.75 0 0 0 20.834,9.579 L 20.183,6.934 A 0.75,0.75 0 0 0 19.455,6.362 H 10.97 A 0.75,0.75 0 0 0 10.242,6.934 L 9.591,9.579 a 0.75,0.75 0 0 0 0.728,0.929 z m 1.239,-2.646 h 7.309 l 0.281,1.146 h -7.872 z"
       id="path404"
       style="fill:#008080" /><path
       d="m 47.25,0 h -1.7 a 0.75,0.75 0 0 0 0,1.5 h 0.95 v 6.107 a 5.753,5.753 0 0 1 -11.506,0 V 1.5 h 1.363 a 0.75,0.75 0 0 0 0,-1.5 h -2.113 a 0.75,0.75 0 0 0 -0.75,0.75 V 7.607 A 7.263,7.263 0 0 0 40,14.821 v 2.153 c 0,10.5 -7.437,17.005 -14.328,17.005 a 6.052,6.052 0 0 1 -6.215,-6.28 6.061,6.061 0 0 1 1.611,-4.216 6.794,6.794 0 0 1 5.078,-1.911 c 2.69,0 5.775,1.842 9.169,5.473 a 0.75142797,0.75142797 0 1 0 1.1,-1.024 C 32.726,22.074 29.272,20.072 26.15,20.072 a 8.248,8.248 0 0 0 -6.164,2.377 7.553,7.553 0 0 0 -2.025,5.25 7.59,7.59 0 0 0 7.715,7.78 c 9.777,0 15.828,-9.6 15.828,-18.5 V 14.821 A 7.263,7.263 0 0 0 48,7.607 V 0.75 A 0.75,0.75 0 0 0 47.25,0 Z"
       id="path406"
       style="fill:#008080" /><path
       d="m 44.023,34.943 a 3.534,3.534 0 0 0 -0.924,0.137 58.732,58.732 0 0 0 -3.7,-5.489 0.75001667,0.75001667 0 1 0 -1.194,0.908 58.5,58.5 0 0 1 3.56,5.273 3.549,3.549 0 1 0 2.258,-0.829 z m 0,5.642 a 2.071,2.071 0 1 1 2.071,-2.071 2.073,2.073 0 0 1 -2.071,2.071 z"
       id="path408"
       style="fill:#008080" /><path
       d="m 20.4,18.137 a 0.75,0.75 0 0 0 -0.75,-0.75 H 7.5 a 0.75,0.75 0 1 0 0,1.5 h 12.154 a 0.75,0.75 0 0 0 0.746,-0.75 z"
       id="path410"
       style="fill:#008080" /><path
       d="M 15.976,22.671 H 7.5 a 0.75,0.75 0 1 0 0,1.5 h 8.474 a 0.75,0.75 0 0 0 0,-1.5 z"
       id="path412"
       style="fill:#008080" /><path
       d="m 7.5,29.455 h 8.474 a 0.75,0.75 0 0 0 0,-1.5 H 7.5 a 0.75,0.75 0 0 0 0,1.5 z"
       id="path414"
       style="fill:#008080" /><path
       d="m 7.5,34.739 h 8.474 a 0.75,0.75 0 0 0 0,-1.5 H 7.5 a 0.75,0.75 0 0 0 0,1.5 z"
       id="path416-0"
       style="fill:#008080" /><path
       d="m 7.5,40.023 h 15.459 a 0.75,0.75 0 0 0 0,-1.5 H 7.5 a 0.75,0.75 0 0 0 0,1.5 z"
       id="path418-7"
       style="fill:#008080" /></g><g
     id="g501"
     transform="rotate(-171.57168,195.11134,161.84525)"
     style="fill:#008080"><path
       d="m 22.025,8.773 a 15.391,15.391 0 0 1 5.91,0.378 c 0.014,0.005 0.024,0.016 0.039,0.019 0.015,0.003 0.037,0 0.056,0.008 a 15.252,15.252 0 0 1 5.27,2.6 0.7502248,0.7502248 0 1 0 0.91,-1.193 A 16.747,16.747 0 0 0 29.08,7.94 L 29.763,5.391 A 2.7,2.7 0 1 0 27.1,2 v 0 a 2.693,2.693 0 0 0 1.215,3 L 27.63,7.557 a 16.9,16.9 0 0 0 -5.8,-0.266 0.75,0.75 0 1 0 0.191,1.487 z M 28.55,2.389 A 1.2,1.2 0 0 1 30.018,1.542 1.2,1.2 0 0 1 29.398,3.856 1.2,1.2 0 0 1 28.55,2.389 Z"
       id="path442"
       style="fill:#008080" /><path
       d="m 25.982,39.226 a 15.388,15.388 0 0 1 -5.916,-0.377 c -0.015,0 -0.025,-0.015 -0.04,-0.019 a 0.245,0.245 0 0 0 -0.027,0 15.279,15.279 0 0 1 -5.239,-2.564 0.75,0.75 0 1 0 -0.9,1.2 16.777,16.777 0 0 0 5.061,2.609 l -0.682,2.546 A 2.662,2.662 0 0 0 15.686,44.6 v 0 a 2.7,2.7 0 0 0 1.908,3.3 2.691,2.691 0 0 0 2.09,-4.9 l 0.684,-2.551 a 16.8,16.8 0 0 0 3.6,0.4 17.062,17.062 0 0 0 2.2,-0.142 0.75,0.75 0 1 0 -0.192,-1.487 z m -6.532,6.385 a 1.2,1.2 0 0 1 -1.468,0.847 1.2,1.2 0 0 1 -0.847,-1.466 v 0 a 1.2,1.2 0 0 1 2.315,0.62 z"
       id="path444"
       style="fill:#008080" /><path
       d="M 8.406,11.1 A 2.669,2.669 0 0 0 9.7,10.761 l 1.878,1.878 a 16.687,16.687 0 0 0 -3.129,4.861 0.749,0.749 0 0 0 0.4,0.981 0.734,0.734 0 0 0 0.288,0.058 0.751,0.751 0 0 0 0.693,-0.461 15.412,15.412 0 0 1 8.3,-8.266 0.75015882,0.75015882 0 1 0 -0.572,-1.387 16.741,16.741 0 0 0 -4.923,3.158 L 10.761,9.7 A 2.664,2.664 0 0 0 10.314,6.5 2.7,2.7 0 1 0 8.406,11.1 Z M 7.559,7.559 a 1.2,1.2 0 1 1 1.694,1.694 1.224,1.224 0 0 1 -1.694,0 1.2,1.2 0 0 1 0,-1.694 z"
       id="path446"
       style="fill:#008080" /><path
       d="m 38.307,37.246 -1.885,-1.885 a 16.709,16.709 0 0 0 3.116,-4.822 0.75004167,0.75004167 0 1 0 -1.383,-0.581 15.414,15.414 0 0 1 -8.214,8.2 0.75030927,0.75030927 0 0 0 0.58,1.384 16.714,16.714 0 0 0 4.84,-3.123 l 1.878,1.881 a 2.692,2.692 0 0 0 4.261,3.2 2.7,2.7 0 0 0 0,-3.815 2.764,2.764 0 0 0 -3.193,-0.439 z m 2.134,3.2 a 1.2,1.2 0 0 1 -2.045,-0.847 1.2,1.2 0 0 1 2.045,-0.847 1.2,1.2 0 0 1 0,1.689 z"
       id="path448"
       style="fill:#008080" /><path
       d="m 7.941,29.08 a 16.757,16.757 0 0 0 2.626,5.1 0.75001667,0.75001667 0 0 0 1.194,-0.908 15.269,15.269 0 0 1 -2.588,-5.259 c 0,-0.013 0,-0.027 0,-0.04 0,-0.013 -0.011,-0.02 -0.015,-0.032 A 15.4,15.4 0 0 1 8.764,22.1 0.75016282,0.75016282 0 0 0 7.275,21.916 16.889,16.889 0 0 0 7.554,27.629 L 5,28.316 A 2.7,2.7 0 0 0 2,27.1 v 0 a 2.7,2.7 0 0 0 -0.65,4.943 2.67,2.67 0 0 0 1.344,0.363 2.719,2.719 0 0 0 0.7,-0.093 2.664,2.664 0 0 0 1.989,-2.549 z m -4.2,1.227 a 1.2,1.2 0 1 1 0.12,-0.91 v 0 a 1.189,1.189 0 0 1 -0.125,0.91 z"
       id="path450"
       style="fill:#008080" /><path
       d="m 47.908,17.594 a 2.7,2.7 0 0 0 -3.3,-1.908 v 0 a 2.665,2.665 0 0 0 -1.988,2.549 l -2.557,0.685 a 16.743,16.743 0 0 0 -2.593,-5.059 0.75,0.75 0 1 0 -1.2,0.9 15.271,15.271 0 0 1 2.559,5.222 c 0,0.013 0,0.026 0,0.039 a 0.221,0.221 0 0 0 0.012,0.027 15.4,15.4 0 0 1 0.405,5.758 0.75,0.75 0 0 0 0.656,0.833 c 0.03,0 0.06,0.005 0.089,0.005 a 0.75,0.75 0 0 0 0.744,-0.662 16.9,16.9 0 0 0 -0.29,-5.617 L 43,19.685 a 2.693,2.693 0 0 0 4.908,-2.091 z m -2.3,1.856 A 1.2,1.2 0 0 1 44.14,18.603 v 0 a 1.2,1.2 0 0 1 0.847,-1.467 v 0 a 1.2,1.2 0 0 1 0.62,2.315 z"
       id="path452"
       style="fill:#008080" /><path
       d="m 33.995,12.944 a 0.75024029,0.75024029 0 1 0 1.061,1.061 L 37.7,11.361 a 2.207,2.207 0 1 0 -1.085,-1.036 z m 4.084,-4.092 a 0.7,0.7 0 1 1 0,0.99 0.7,0.7 0 0 1 0,-0.99 z"
       id="path454"
       style="fill:#008080" /><path
       d="M 14.02,35.041 A 0.75024029,0.75024029 0 1 0 12.959,33.98 l -2.644,2.644 a 2.2,2.2 0 0 0 -2.43,0.458 v 0 a 2.2,2.2 0 1 0 3.516,0.577 z m -4.084,4.092 a 0.7,0.7 0 1 1 0,-0.99 0.7,0.7 0 0 1 0,0.99 z"
       id="path456"
       style="fill:#008080" /><path
       d="m 18.475,6.244 0.958,3.575 a 0.75,0.75 0 0 0 0.724,0.556 0.765,0.765 0 0 0 0.194,-0.025 0.752,0.752 0 0 0 0.531,-0.919 L 19.914,5.819 a 2.2,2.2 0 0 0 0.818,-2.333 v 0 a 2.2,2.2 0 1 0 -2.257,2.759 z m -0.05,-2.865 a 0.709,0.709 0 0 1 0.181,-0.024 0.7,0.7 0 1 1 -0.181,0.024 z"
       id="path458"
       style="fill:#008080" /><path
       d="M 30.508,42.025 A 2.179,2.179 0 0 0 29.54,41.743 l -0.958,-3.576 a 0.751,0.751 0 1 0 -1.45,0.388 l 0.967,3.609 A 2.195,2.195 0 0 0 27.282,44.5 v 0 a 2.2,2.2 0 0 0 2.118,1.631 2.249,2.249 0 0 0 0.573,-0.075 2.2,2.2 0 0 0 0.531,-4.031 z m -0.494,2.256 a 0.7,0.7 0 1 1 -0.787,-1.027 0.7,0.7 0 0 1 0.856,0.5 0.7,0.7 0 0 1 -0.069,0.527 z"
       id="path460"
       style="fill:#008080" /><path
       d="m 3.471,20.826 a 2.2,2.2 0 0 0 2.4,-0.915 l 3.57,0.957 a 0.767,0.767 0 0 0 0.2,0.025 0.75,0.75 0 0 0 0.193,-1.475 L 6.223,18.451 A 2.2,2.2 0 0 0 4.61,16.575 v 0 A 2.2004728,2.2004728 0 1 0 3.471,20.826 Z M 3.364,18.52 a 0.7,0.7 0 1 1 0.5,0.857 0.7,0.7 0 0 1 -0.5,-0.857 z"
       id="path462"
       style="fill:#008080" /><path
       d="m 44.543,27.16 a 2.168,2.168 0 0 0 -2.4,0.916 l -3.577,-0.958 a 0.75002417,0.75002417 0 1 0 -0.388,1.449 l 3.612,0.968 a 2.2,2.2 0 0 0 1.61,1.875 v 0 a 2.2,2.2 0 0 0 1.138,-4.25 z m 0.107,2.306 a 0.7,0.7 0 1 1 -0.495,-0.857 0.7,0.7 0 0 1 0.495,0.857 z"
       id="path464"
       style="fill:#008080" /><path
       d="m 11.017,24.806 a 3.12,3.12 0 1 0 3.119,-3.12 3.123,3.123 0 0 0 -3.119,3.12 z m 4.739,0 a 1.62,1.62 0 1 1 -1.62,-1.62 1.622,1.622 0 0 1 1.62,1.62 z"
       id="path466"
       style="fill:#008080" /><path
       d="M 24,37.892 A 4.842,4.842 0 1 0 19.158,33.05 4.847,4.847 0 0 0 24,37.892 Z m 0,-8.184 A 3.342,3.342 0 1 1 20.658,33.05 3.346,3.346 0 0 1 24,29.708 Z"
       id="path468"
       style="fill:#008080" /><path
       d="m 22.681,10.483 a 3.523,3.523 0 1 0 3.519,3.523 3.526,3.526 0 0 0 -3.519,-3.523 z m 0,5.545 a 2.023,2.023 0 1 1 2.019,-2.022 2.024,2.024 0 0 1 -2.019,2.022 z"
       id="path470"
       style="fill:#008080" /><path
       d="m 33.245,15.751 a 2.934,2.934 0 1 0 2.933,2.934 2.936,2.936 0 0 0 -2.933,-2.934 z m 0,4.367 a 1.434,1.434 0 1 1 1.433,-1.433 1.435,1.435 0 0 1 -1.433,1.433 z"
       id="path472"
       style="fill:#008080" /><path
       d="m 22.734,22.436 a 2.3,2.3 0 1 0 2.3,-2.3 2.3,2.3 0 0 0 -2.3,2.3 z m 3.1,0 a 0.8,0.8 0 1 1 -0.8,-0.8 0.8,0.8 0 0 1 0.802,0.8 z"
       id="path474"
       style="fill:#008080" /><path
       d="m 33.245,28.208 a 2.3,2.3 0 1 0 2.3,2.3 2.3,2.3 0 0 0 -2.3,-2.3 z m 0,3.1 a 0.8,0.8 0 1 1 0.8,-0.8 0.8,0.8 0 0 1 -0.8,0.802 z"
       id="path476"
       style="fill:#008080" /></g><g
     id="g531"
     transform="rotate(-46.579155,234.7508,109.28785)"
     style="fill:#008080"><path
       d="M 38.183,34.748 28.254,30.3 v -0.68 h 0.885 a 6.841,6.841 0 0 0 6.827,-7.279 C 35.585,16.392 35.505,14.776 35.505,14.468 A 9.645,9.645 0 0 0 33.768,8.357 L 35.45,5.413 A 0.75,0.75 0 0 0 35.235,4.431 C 34.982,4.25 28.981,0 23.824,0 18.667,0 12.666,4.25 12.413,4.431 a 0.752,0.752 0 0 0 -0.215,0.982 l 1.682,2.944 a 9.645,9.645 0 0 0 -1.737,6.111 c 0,0.258 -0.06,1.623 -0.46,7.873 a 6.84,6.84 0 0 0 6.826,7.279 h 0.9 v 0.685 l -9.642,4.431 a 5.771,5.771 0 0 0 -3.352,5.231 v 7.283 a 0.75,0.75 0 0 0 1.5,0 V 39.967 A 4.267,4.267 0 0 1 10.394,36.1 l 9.483,-4.359 3.323,5.243 a 0.75,0.75 0 0 0 1.268,0 l 3.324,-5.248 9.779,4.381 A 4.259,4.259 0 0 1 40.085,40 v 7.25 a 0.75,0.75 0 0 0 1.5,0 V 40 a 5.763,5.763 0 0 0 -3.402,-5.252 z m -20.341,-12.2 c 1.263,-0.579 4.159,-1.808 6,-1.808 1.841,0 4.721,1.227 5.982,1.806 a 6.6,6.6 0 0 1 -11.979,0 z m -0.619,-2.773 v -4.3 c 0.012,-0.488 0.221,-1.992 0.983,-2.487 a 17.155,17.155 0 0 0 2.266,-1.778 8.64,8.64 0 0 0 3.688,2.58 10.9,10.9 0 0 0 6.28,0.276 v 5.708 a 6.578,6.578 0 0 1 -0.137,1.34 c -1.428,-0.648 -4.4,-1.875 -6.464,-1.875 -2.064,0 -5.05,1.23 -6.478,1.878 a 6.607,6.607 0 0 1 -0.138,-1.343 z m 1.286,8.346 a 5.34,5.34 0 0 1 -5.33,-5.683 c 0.307,-4.8 0.464,-7.479 0.464,-7.969 0,-3.424 1.227,-4.995 1.562,-5.36 0.28,-0.094 0.944,-0.3 1.881,-0.532 A 0.75017998,0.75017998 0 1 0 16.732,7.119 c -0.671,0.163 -1.21,0.318 -1.585,0.433 l -1.3,-2.277 C 15.417,4.25 20,1.5 23.824,1.5 c 3.824,0 8.4,2.75 9.978,3.774 L 32.5,7.55 A 30.345,30.345 0 0 0 23.829,6.25 29.591,29.591 0 0 0 19,6.656 a 0.75015265,0.75015265 0 0 0 0.246,1.48 28.035,28.035 0 0 1 4.583,-0.389 28.9,28.9 0 0 1 8.612,1.361 c 0.333,0.362 1.563,1.931 1.563,5.36 0,0.486 0.152,3.093 0.465,7.969 a 5.343,5.343 0 0 1 -5.331,5.683 h -0.885 v -1.567 a 8.131,8.131 0 0 0 3.2,-4.037 V 22.51 c 0,-0.01 0,-0.021 0.008,-0.031 a 8.033,8.033 0 0 0 0.475,-2.7 V 13.058 A 0.75,0.75 0 0 0 30.91,12.358 9.613,9.613 0 0 1 24.678,12.382 6.812,6.812 0 0 1 21.233,9.7 0.75,0.75 0 0 0 20.022,9.547 15.561,15.561 0 0 1 17.39,11.728 c -1.551,1.006 -1.66,3.432 -1.667,3.725 v 4.32 A 8.025,8.025 0 0 0 16.2,22.5 v 0.01 0 a 8.113,8.113 0 0 0 3.2,4.036 v 1.574 z m 5.323,7.062 -2.923,-4.614 v -3.256 a 8.116,8.116 0 0 0 2.938,0.554 8.03,8.03 0 0 0 2.907,-0.549 v 3.25 z"
       id="path505"
       style="fill:#008080" /><path
       d="m 20.352,15.136 h -0.54 a 0.75,0.75 0 0 0 0,1.5 h 0.54 a 0.75,0.75 0 0 0 0,-1.5 z"
       id="path507"
       style="fill:#008080" /><path
       d="m 27.058,16.636 h 0.54 a 0.75,0.75 0 0 0 0,-1.5 h -0.54 a 0.75,0.75 0 0 0 0,1.5 z"
       id="path509"
       style="fill:#008080" /><path
       d="m 22.691,4.594 h 0.383 v 0.382 a 0.75,0.75 0 0 0 1.5,0 V 4.594 h 0.382 a 0.75,0.75 0 0 0 0,-1.5 H 24.574 V 2.711 a 0.75,0.75 0 0 0 -1.5,0 v 0.383 h -0.383 a 0.75,0.75 0 1 0 0,1.5 z"
       id="path511"
       style="fill:#008080" /><path
       d="m 13.737,43.02 a 0.75,0.75 0 0 0 -0.75,0.75 v 3.48 a 0.75,0.75 0 0 0 1.5,0 v -3.48 a 0.75,0.75 0 0 0 -0.75,-0.75 z"
       id="path513"
       style="fill:#008080" /><path
       d="m 33.927,43.02 a 0.75,0.75 0 0 0 -0.75,0.75 v 3.48 a 0.75,0.75 0 0 0 1.5,0 v -3.48 a 0.75,0.75 0 0 0 -0.75,-0.75 z"
       id="path515"
       style="fill:#008080" /><path
       d="m 30.56,33.714 a 0.75,0.75 0 0 0 -0.859,0.624 l -0.662,4.18 -2.06,-1.463 a 0.75,0.75 0 0 0 -1.182,0.666 l 0.2,2.761 -1.42,1.458 v -3.326 a 0.75,0.75 0 0 0 -1.5,0 v 3.309 l -1.42,-1.443 0.2,-2.759 A 0.75,0.75 0 0 0 20.675,37.055 L 18.615,38.518 18,34.547 a 0.75025812,0.75025812 0 0 0 -1.482,0.235 l 0.818,5.164 a 0.749,0.749 0 0 0 1.176,0.494 l 1.74,-1.24 -0.111,1.507 a 0.749,0.749 0 0 0 0.213,0.582 l 2.728,2.771 v 3.19 a 0.75,0.75 0 0 0 1.5,0 v -3.161 l 2.73,-2.8 a 0.749,0.749 0 0 0 0.21,-0.579 l -0.111,-1.51 1.745,1.239 a 0.749,0.749 0 0 0 1.176,-0.494 l 0.852,-5.374 A 0.752,0.752 0 0 0 30.56,33.714 Z"
       id="path517"
       style="fill:#008080" /></g><g
     id="g995"
     transform="rotate(-171.57168,65.994489,144.0932)"
     style="fill:#008080"><path
       d="m 22.025,8.773 a 15.391,15.391 0 0 1 5.91,0.378 c 0.014,0.005 0.024,0.016 0.039,0.019 0.015,0.003 0.037,0 0.056,0.008 a 15.252,15.252 0 0 1 5.27,2.6 0.7502248,0.7502248 0 1 0 0.91,-1.193 A 16.747,16.747 0 0 0 29.08,7.94 L 29.763,5.391 A 2.7,2.7 0 1 0 27.1,2 v 0 a 2.693,2.693 0 0 0 1.215,3 L 27.63,7.557 a 16.9,16.9 0 0 0 -5.8,-0.266 0.75,0.75 0 1 0 0.191,1.487 z M 28.55,2.389 A 1.2,1.2 0 0 1 30.018,1.542 1.2,1.2 0 0 1 29.398,3.856 1.2,1.2 0 0 1 28.55,2.389 Z"
       id="path959"
       style="fill:#008080" /><path
       d="m 25.982,39.226 a 15.388,15.388 0 0 1 -5.916,-0.377 c -0.015,0 -0.025,-0.015 -0.04,-0.019 a 0.245,0.245 0 0 0 -0.027,0 15.279,15.279 0 0 1 -5.239,-2.564 0.75,0.75 0 1 0 -0.9,1.2 16.777,16.777 0 0 0 5.061,2.609 l -0.682,2.546 A 2.662,2.662 0 0 0 15.686,44.6 v 0 a 2.7,2.7 0 0 0 1.908,3.3 2.691,2.691 0 0 0 2.09,-4.9 l 0.684,-2.551 a 16.8,16.8 0 0 0 3.6,0.4 17.062,17.062 0 0 0 2.2,-0.142 0.75,0.75 0 1 0 -0.192,-1.487 z m -6.532,6.385 a 1.2,1.2 0 0 1 -1.468,0.847 1.2,1.2 0 0 1 -0.847,-1.466 v 0 a 1.2,1.2 0 0 1 2.315,0.62 z"
       id="path961"
       style="fill:#008080" /><path
       d="M 8.406,11.1 A 2.669,2.669 0 0 0 9.7,10.761 l 1.878,1.878 a 16.687,16.687 0 0 0 -3.129,4.861 0.749,0.749 0 0 0 0.4,0.981 0.734,0.734 0 0 0 0.288,0.058 0.751,0.751 0 0 0 0.693,-0.461 15.412,15.412 0 0 1 8.3,-8.266 0.75015882,0.75015882 0 1 0 -0.572,-1.387 16.741,16.741 0 0 0 -4.923,3.158 L 10.761,9.7 A 2.664,2.664 0 0 0 10.314,6.5 2.7,2.7 0 1 0 8.406,11.1 Z M 7.559,7.559 a 1.2,1.2 0 1 1 1.694,1.694 1.224,1.224 0 0 1 -1.694,0 1.2,1.2 0 0 1 0,-1.694 z"
       id="path963"
       style="fill:#008080" /><path
       d="m 38.307,37.246 -1.885,-1.885 a 16.709,16.709 0 0 0 3.116,-4.822 0.75004167,0.75004167 0 1 0 -1.383,-0.581 15.414,15.414 0 0 1 -8.214,8.2 0.75030927,0.75030927 0 0 0 0.58,1.384 16.714,16.714 0 0 0 4.84,-3.123 l 1.878,1.881 a 2.692,2.692 0 0 0 4.261,3.2 2.7,2.7 0 0 0 0,-3.815 2.764,2.764 0 0 0 -3.193,-0.439 z m 2.134,3.2 a 1.2,1.2 0 0 1 -2.045,-0.847 1.2,1.2 0 0 1 2.045,-0.847 1.2,1.2 0 0 1 0,1.689 z"
       id="path965"
       style="fill:#008080" /><path
       d="m 7.941,29.08 a 16.757,16.757 0 0 0 2.626,5.1 0.75001667,0.75001667 0 0 0 1.194,-0.908 15.269,15.269 0 0 1 -2.588,-5.259 c 0,-0.013 0,-0.027 0,-0.04 0,-0.013 -0.011,-0.02 -0.015,-0.032 A 15.4,15.4 0 0 1 8.764,22.1 0.75016282,0.75016282 0 0 0 7.275,21.916 16.889,16.889 0 0 0 7.554,27.629 L 5,28.316 A 2.7,2.7 0 0 0 2,27.1 v 0 a 2.7,2.7 0 0 0 -0.65,4.943 2.67,2.67 0 0 0 1.344,0.363 2.719,2.719 0 0 0 0.7,-0.093 2.664,2.664 0 0 0 1.989,-2.549 z m -4.2,1.227 a 1.2,1.2 0 1 1 0.12,-0.91 v 0 a 1.189,1.189 0 0 1 -0.125,0.91 z"
       id="path967"
       style="fill:#008080" /><path
       d="m 47.908,17.594 a 2.7,2.7 0 0 0 -3.3,-1.908 v 0 a 2.665,2.665 0 0 0 -1.988,2.549 l -2.557,0.685 a 16.743,16.743 0 0 0 -2.593,-5.059 0.75,0.75 0 1 0 -1.2,0.9 15.271,15.271 0 0 1 2.559,5.222 c 0,0.013 0,0.026 0,0.039 a 0.221,0.221 0 0 0 0.012,0.027 15.4,15.4 0 0 1 0.405,5.758 0.75,0.75 0 0 0 0.656,0.833 c 0.03,0 0.06,0.005 0.089,0.005 a 0.75,0.75 0 0 0 0.744,-0.662 16.9,16.9 0 0 0 -0.29,-5.617 L 43,19.685 a 2.693,2.693 0 0 0 4.908,-2.091 z m -2.3,1.856 A 1.2,1.2 0 0 1 44.14,18.603 v 0 a 1.2,1.2 0 0 1 0.847,-1.467 v 0 a 1.2,1.2 0 0 1 0.62,2.315 z"
       id="path969"
       style="fill:#008080" /><path
       d="m 33.995,12.944 a 0.75024029,0.75024029 0 1 0 1.061,1.061 L 37.7,11.361 a 2.207,2.207 0 1 0 -1.085,-1.036 z m 4.084,-4.092 a 0.7,0.7 0 1 1 0,0.99 0.7,0.7 0 0 1 0,-0.99 z"
       id="path971"
       style="fill:#008080" /><path
       d="M 14.02,35.041 A 0.75024029,0.75024029 0 1 0 12.959,33.98 l -2.644,2.644 a 2.2,2.2 0 0 0 -2.43,0.458 v 0 a 2.2,2.2 0 1 0 3.516,0.577 z m -4.084,4.092 a 0.7,0.7 0 1 1 0,-0.99 0.7,0.7 0 0 1 0,0.99 z"
       id="path973"
       style="fill:#008080" /><path
       d="m 18.475,6.244 0.958,3.575 a 0.75,0.75 0 0 0 0.724,0.556 0.765,0.765 0 0 0 0.194,-0.025 0.752,0.752 0 0 0 0.531,-0.919 L 19.914,5.819 a 2.2,2.2 0 0 0 0.818,-2.333 v 0 a 2.2,2.2 0 1 0 -2.257,2.759 z m -0.05,-2.865 a 0.709,0.709 0 0 1 0.181,-0.024 0.7,0.7 0 1 1 -0.181,0.024 z"
       id="path975"
       style="fill:#008080" /><path
       d="M 30.508,42.025 A 2.179,2.179 0 0 0 29.54,41.743 l -0.958,-3.576 a 0.751,0.751 0 1 0 -1.45,0.388 l 0.967,3.609 A 2.195,2.195 0 0 0 27.282,44.5 v 0 a 2.2,2.2 0 0 0 2.118,1.631 2.249,2.249 0 0 0 0.573,-0.075 2.2,2.2 0 0 0 0.531,-4.031 z m -0.494,2.256 a 0.7,0.7 0 1 1 -0.787,-1.027 0.7,0.7 0 0 1 0.856,0.5 0.7,0.7 0 0 1 -0.069,0.527 z"
       id="path977"
       style="fill:#008080" /><path
       d="m 3.471,20.826 a 2.2,2.2 0 0 0 2.4,-0.915 l 3.57,0.957 a 0.767,0.767 0 0 0 0.2,0.025 0.75,0.75 0 0 0 0.193,-1.475 L 6.223,18.451 A 2.2,2.2 0 0 0 4.61,16.575 v 0 A 2.2004728,2.2004728 0 1 0 3.471,20.826 Z M 3.364,18.52 a 0.7,0.7 0 1 1 0.5,0.857 0.7,0.7 0 0 1 -0.5,-0.857 z"
       id="path979"
       style="fill:#008080" /><path
       d="m 44.543,27.16 a 2.168,2.168 0 0 0 -2.4,0.916 l -3.577,-0.958 a 0.75002417,0.75002417 0 1 0 -0.388,1.449 l 3.612,0.968 a 2.2,2.2 0 0 0 1.61,1.875 v 0 a 2.2,2.2 0 0 0 1.138,-4.25 z m 0.107,2.306 a 0.7,0.7 0 1 1 -0.495,-0.857 0.7,0.7 0 0 1 0.495,0.857 z"
       id="path981"
       style="fill:#008080" /><path
       d="m 11.017,24.806 a 3.12,3.12 0 1 0 3.119,-3.12 3.123,3.123 0 0 0 -3.119,3.12 z m 4.739,0 a 1.62,1.62 0 1 1 -1.62,-1.62 1.622,1.622 0 0 1 1.62,1.62 z"
       id="path983"
       style="fill:#008080" /><path
       d="M 24,37.892 A 4.842,4.842 0 1 0 19.158,33.05 4.847,4.847 0 0 0 24,37.892 Z m 0,-8.184 A 3.342,3.342 0 1 1 20.658,33.05 3.346,3.346 0 0 1 24,29.708 Z"
       id="path985"
       style="fill:#008080" /><path
       d="m 22.681,10.483 a 3.523,3.523 0 1 0 3.519,3.523 3.526,3.526 0 0 0 -3.519,-3.523 z m 0,5.545 a 2.023,2.023 0 1 1 2.019,-2.022 2.024,2.024 0 0 1 -2.019,2.022 z"
       id="path987"
       style="fill:#008080" /><path
       d="m 33.245,15.751 a 2.934,2.934 0 1 0 2.933,2.934 2.936,2.936 0 0 0 -2.933,-2.934 z m 0,4.367 a 1.434,1.434 0 1 1 1.433,-1.433 1.435,1.435 0 0 1 -1.433,1.433 z"
       id="path989"
       style="fill:#008080" /><path
       d="m 22.734,22.436 a 2.3,2.3 0 1 0 2.3,-2.3 2.3,2.3 0 0 0 -2.3,2.3 z m 3.1,0 a 0.8,0.8 0 1 1 -0.8,-0.8 0.8,0.8 0 0 1 0.802,0.8 z"
       id="path991"
       style="fill:#008080" /><path
       d="m 33.245,28.208 a 2.3,2.3 0 1 0 2.3,2.3 2.3,2.3 0 0 0 -2.3,-2.3 z m 0,3.1 a 0.8,0.8 0 1 1 0.8,-0.8 0.8,0.8 0 0 1 -0.8,0.802 z"
       id="path993"
       style="fill:#008080" /></g></svg>
