<?xml version="1.0" encoding="UTF-8" standalone="no"?>
<!-- Created with Inkscape (http://www.inkscape.org/) -->

<svg
   width="400"
   height="400"
   viewBox="0 0 400 400"
   version="1.1"
   id="svg5"
   xml:space="preserve"
   sodipodi:docname="fonadmin.svg"
   inkscape:version="1.2.1 (9c6d41e410, 2022-07-14)"
   xmlns:inkscape="http://www.inkscape.org/namespaces/inkscape"
   xmlns:sodipodi="http://sodipodi.sourceforge.net/DTD/sodipodi-0.dtd"
   xmlns="http://www.w3.org/2000/svg"
   xmlns:svg="http://www.w3.org/2000/svg"><sodipodi:namedview
     id="namedview55"
     pagecolor="#ffffff"
     bordercolor="#000000"
     borderopacity="0.25"
     inkscape:showpageshadow="2"
     inkscape:pageopacity="0.0"
     inkscape:pagecheckerboard="0"
     inkscape:deskcolor="#d1d1d1"
     showgrid="false"
     inkscape:zoom="0.59"
     inkscape:cx="197.45763"
     inkscape:cy="200"
     inkscape:window-width="1440"
     inkscape:window-height="837"
     inkscape:window-x="-8"
     inkscape:window-y="-8"
     inkscape:window-maximized="1"
     inkscape:current-layer="svg5" /><defs
     id="defs2" /><g
     id="g521"
     transform="matrix(0.01085815,0.1255369,-0.1255369,0.01085815,125.95193,295.7763)"
     style="fill:#ffff00"><g
       id="g462"
       style="fill:#ffff00">
	<g
   id="g460"
   style="fill:#ffff00">
		<g
   id="g458"
   style="fill:#ffff00">
			<path
   d="m 448.972,59.094 36.172,-36.172 c 4.133,-4.134 4.133,-10.834 0,-14.968 -4.134,-4.132 -10.834,-4.132 -14.968,0 l -36.381,36.38 C 383.966,3.426 310.033,6.224 263.511,52.744 c -20.357,20.358 -33.273,47.339 -36.372,75.978 -2.744,25.359 2.249,51.133 14.106,73.474 l -84.681,84.682 -46.102,-46.104 c -1.984,-1.984 -4.677,-3.1 -7.484,-3.1 -2.807,0 -5.5,1.115 -7.484,3.1 l -37.42,37.42 c -4.134,4.134 -4.134,10.834 0,14.968 l 46.102,46.102 -21.198,21.198 -27.488,-27.488 c -4.132,-4.13 -10.833,-4.132 -14.967,0 L 3.101,370.397 c -4.134,4.133 -4.134,10.834 0,14.968 l 51.049,51.051 c 7.894,7.894 18.271,11.842 28.646,11.842 10.363,0 20.726,-3.939 28.619,-11.817 L 293.62,254.584 c 18.314,9.75 38.777,14.869 59.678,14.869 33.952,0 65.84,-13.189 89.788,-37.137 47.447,-47.45 49.389,-123.4 5.886,-173.222 z m -95.674,189.192 c -19.784,0 -39.093,-5.498 -55.836,-15.904 -4.177,-2.596 -9.585,-1.973 -13.063,1.499 L 96.462,421.459 c -7.544,7.527 -19.809,7.524 -27.344,-0.013 L 25.553,377.88 48.006,355.427 75.494,382.915 c 1.984,1.984 4.677,3.1 7.484,3.1 2.807,0 5.5,-1.115 7.484,-3.1 l 36.165,-36.167 c 4.134,-4.134 4.134,-10.834 0,-14.968 l -46.102,-46.102 22.453,-22.453 46.102,46.104 c 1.984,1.984 4.677,3.1 7.484,3.1 2.807,0 5.5,-1.115 7.484,-3.1 l 97.894,-97.894 c 3.478,-3.478 4.101,-8.893 1.506,-13.071 -26.089,-41.984 -19.907,-95.712 15.033,-130.653 38.258,-38.26 98.755,-41.013 140.247,-8.31 l -27.345,27.344 c -18.474,-10.685 -42.561,-8.14 -58.352,7.65 -18.83,18.83 -18.833,49.475 -0.007,68.31 0.003,0.003 0.007,0.005 0.007,0.008 9.113,9.113 21.245,14.131 34.158,14.131 12.913,0 25.047,-5.018 34.158,-14.131 16.729,-16.731 18.584,-42.775 5.594,-61.588 l 27.024,-27.024 c 35.272,41.528 33.344,104.055 -5.848,143.246 -19.949,19.951 -46.52,30.939 -74.819,30.939 z m 15.007,-123.493 c 2.068,2.066 4.775,3.1 7.484,3.1 2.709,0 5.418,-1.033 7.484,-3.1 l 8.234,-8.234 c 4.989,10.139 3.296,22.762 -5.128,31.186 -5.113,5.115 -11.93,7.931 -19.19,7.931 -7.246,0 -14.048,-2.805 -19.157,-7.898 -0.024,-0.025 -0.046,-0.048 -0.07,-0.071 -10.546,-10.584 -10.531,-27.774 0.037,-38.342 7.405,-7.407 18.056,-9.609 27.414,-6.648 l -7.108,7.108 c -4.133,4.134 -4.133,10.834 0,14.968 z"
   id="path450"
   style="fill:#ffff00" />
			<path
   d="M 501.417,324.572 H 366.471 c -5.845,0 -10.584,4.739 -10.584,10.584 v 59.535 c 0,5.845 4.739,10.584 10.584,10.584 h 134.946 c 5.845,0 10.584,-4.739 10.584,-10.584 v -59.535 c 0,-5.845 -4.739,-10.584 -10.584,-10.584 z m -10.584,59.535 H 377.055 V 345.74 h 113.778 z"
   id="path452"
   style="fill:#ffff00" />
			<path
   d="M 501.417,426.443 H 366.471 c -5.845,0 -10.584,4.739 -10.584,10.584 v 59.535 c 0,5.845 4.739,10.584 10.584,10.584 h 134.946 c 5.845,0 10.584,-4.739 10.584,-10.584 v -59.535 c 0,-5.845 -4.739,-10.584 -10.584,-10.584 z m -10.584,59.535 H 377.055 v -38.367 h 113.778 z"
   id="path454"
   style="fill:#ffff00" />
			<path
   d="M 324.135,426.443 H 189.19 c -5.845,0 -10.584,4.739 -10.584,10.584 v 59.535 c 0,5.845 4.739,10.584 10.584,10.584 h 134.946 c 5.845,0 10.584,-4.739 10.584,-10.584 v -59.535 c -0.001,-5.845 -4.74,-10.584 -10.585,-10.584 z m -10.584,59.535 H 199.774 v -38.367 h 113.778 v 38.367 z"
   id="path456"
   style="fill:#ffff00" />
		</g>
	</g>
</g><g
       id="g464"
       style="fill:#ffff00">
</g><g
       id="g466"
       style="fill:#ffff00">
</g><g
       id="g468"
       style="fill:#ffff00">
</g><g
       id="g470"
       style="fill:#ffff00">
</g><g
       id="g472"
       style="fill:#ffff00">
</g><g
       id="g474"
       style="fill:#ffff00">
</g><g
       id="g476"
       style="fill:#ffff00">
</g><g
       id="g478"
       style="fill:#ffff00">
</g><g
       id="g480"
       style="fill:#ffff00">
</g><g
       id="g482"
       style="fill:#ffff00">
</g><g
       id="g484"
       style="fill:#ffff00">
</g><g
       id="g486"
       style="fill:#ffff00">
</g><g
       id="g488"
       style="fill:#ffff00">
</g><g
       id="g490"
       style="fill:#ffff00">
</g><g
       id="g492"
       style="fill:#ffff00">
</g></g><g
     id="g529"
     transform="matrix(0.21396084,0.18799266,-0.1788791,0.20358839,294.3843,172.10994)"
     style="fill:#ffff00">
	<path
   d="m 218.4,495.2 c 6.8,0 12.3,-5.5 12.3,-12.3 0,-6.8 -5.5,-12.3 -12.3,-12.3 -100.4,0 -182,-81.6 -182,-182 V 117.1 l 182,-75.9 182,75.9 v 71.5 c 0,6.8 5.5,12.3 12.3,12.3 6.8,0 12.3,-5.5 12.3,-12.3 V 109 c 0,-4.9 -3,-9.4 -7.5,-11.3 L 223.1,16.6 c -3,-1.3 -6.4,-1.3 -9.4,0 l -194.3,81 c -4.6,1.9 -7.5,6.4 -7.5,11.3 v 179.7 c 0,113.9 92.6,206.6 206.5,206.6 z"
   id="path523"
   style="fill:#ffff00" />
	<path
   d="m 353.1,285.5 c -35.2,0 -63.9,28.6 -63.9,63.9 0,35.3 28.6,63.9 63.9,63.9 35.2,0 63.9,-28.6 63.9,-63.9 0,-35.3 -28.7,-63.9 -63.9,-63.9 z m 0,103.2 c -21.7,0 -39.4,-17.7 -39.4,-39.4 0,-21.7 17.7,-39.4 39.4,-39.4 21.7,0 39.4,17.7 39.4,39.4 0,21.7 -17.7,39.4 -39.4,39.4 z"
   id="path525"
   style="fill:#ffff00" />
	<path
   d="M 411.2,244.3 C 403.3,239.9 395,236.5 386.4,234 v -10.5 c 0,-11.7 -9.5,-21.1 -21.1,-21.1 H 341 c -11.7,0 -21.1,9.5 -21.1,21.1 V 234 c -8.6,2.5 -16.9,5.9 -24.8,10.3 l -7.4,-7.4 c -4,-4 -9.3,-6.2 -14.9,-6.2 -5.6,0 -11,2.2 -14.9,6.2 L 240.6,254 c -4,4 -6.2,9.3 -6.2,14.9 0,5.7 2.2,11 6.2,14.9 l 7.4,7.4 c -4.4,7.9 -7.8,16.2 -10.3,24.8 h -10.5 c -11.7,0 -21.1,9.5 -21.1,21.1 v 24.2 c 0,11.7 9.5,21.1 21.1,21.1 h 10.5 c 2.5,8.6 5.9,16.9 10.3,24.8 l -7.4,7.4 c -8.2,8.2 -8.2,21.7 0,29.9 l 17.1,17.1 c 4,4 9.3,6.2 14.9,6.2 5.6,0 11,-2.2 14.9,-6.2 l 7.4,-7.4 c 7.9,4.4 16.2,7.8 24.8,10.3 V 475 c 0,11.7 9.5,21.1 21.1,21.1 H 365 c 11.7,0 21.1,-9.5 21.1,-21.1 v -10.5 c 8.6,-2.5 16.9,-5.9 24.8,-10.3 l 7.4,7.4 c 4,4 9.3,6.2 14.9,6.2 5.6,0 11,-2.2 14.9,-6.2 l 17.1,-17.1 c 4,-4 6.2,-9.3 6.2,-15 0,-5.6 -2.2,-11 -6.2,-14.9 l -7.4,-7.4 c 4.4,-7.9 7.8,-16.2 10.3,-24.8 H 479 c 11.7,0 21.1,-9.5 21.1,-21.1 V 337.1 C 500.1,325.4 490.6,316 479,316 h -10.5 c -2.5,-8.6 -5.9,-16.9 -10.3,-24.8 l 7.4,-7.4 c 4,-4 6.2,-9.3 6.2,-15 0,-5.6 -2.2,-11 -6.2,-14.9 l -17.1,-17.1 c -4,-4 -9.3,-6.2 -14.9,-6.2 -5.6,0 -11,2.2 -15,6.2 z m 22.4,12.3 12.4,12.4 -11.9,11.9 c -4.1,4.1 -4.8,10.6 -1.5,15.5 7,10.5 11.8,22.1 14.3,34.5 1.1,5.7 6.2,9.9 12,9.9 h 16.8 v 17.5 h -16.8 c -5.8,0 -10.9,4.1 -12,9.9 -2.4,12.4 -7.2,24 -14.3,34.5 -3.3,4.9 -2.6,11.3 1.5,15.5 l 11.9,11.9 -12.4,12.4 -11.9,-11.9 c -4.1,-4.1 -10.6,-4.8 -15.5,-1.5 -10.5,7 -22.1,11.8 -34.5,14.3 -5.7,1.1 -9.9,6.2 -9.9,12 v 16.8 h -17.5 v -16.8 c 0,-5.9 -4.1,-10.9 -9.9,-12 -12.4,-2.4 -24,-7.2 -34.5,-14.3 -4.9,-3.3 -11.3,-2.6 -15.5,1.5 l -11.9,11.9 -12.4,-12.4 11.9,-11.9 c 4.1,-4.1 4.8,-10.6 1.5,-15.5 -7,-10.5 -11.8,-22.1 -14.3,-34.5 -1.1,-5.7 -6.2,-9.9 -12,-9.9 h -16.8 v -17.5 h 16.8 c 5.8,0 10.9,-4.1 12,-9.9 2.4,-12.4 7.2,-24 14.3,-34.5 3.3,-4.9 2.6,-11.3 -1.5,-15.5 l -11.7,-11.9 12.4,-12.4 11.9,11.9 c 4.1,4.1 10.6,4.8 15.5,1.5 10.5,-7 22.1,-11.8 34.5,-14.3 5.7,-1.1 9.9,-6.2 9.9,-12 V 226.9 H 362 v 16.8 c 0,5.8 4.1,10.9 9.9,12 12.4,2.5 24,7.3 34.5,14.3 4.9,3.3 11.3,2.6 15.5,-1.5 z"
   id="path527"
   style="fill:#ffff00" />
</g><path
     d="m 61.864407,248.20339 c -27.0914,0 -49.05085,-21.95945 -49.05085,-49.05084 0,-27.0914 21.95945,-49.05085 49.05085,-49.05085 27.09139,0 49.050843,21.95945 49.050843,49.05085 0,27.09139 -21.959453,49.05084 -49.050843,49.05084 z m -0.31577,-84.61884 v -0.0215 l 14.86241,41.72081 a 0.91970339,0.91970339 0 0 1 -0.607,1.28452 l -11.01805,3.03502 c -0.89825,0.2238 -0.69591,1.70759 0.22686,1.75357 l 28.07854,5.59793 c 0.53956,0.0889 1.07912,0.26978 1.64014,0.26978 a 95249.143,95249.143 0 0 0 -31.56422,-54.40655 c -0.44759,-0.96569 -2.06627,-0.24525 -1.61868,0.76642 z m -1.61868,0.092 c -10.57965,18.27144 -21.1777,36.53062 -31.78801,54.78367 v 0.52116 c 0.22379,0.3127 0.49357,0.62847 0.89824,0.62847 0.56409,-0.0675 0.85533,-0.60701 1.19255,-0.96569 l 28.95533,-34.01676 c 0.29431,-0.4292 0.94423,-0.69591 1.39488,-0.29124 2.78977,2.96757 5.48757,6.02405 8.31719,8.99163 0.53956,0.58248 1.6432,-0.0675 1.3489,-0.85226 -3.3048,-9.44229 -6.71997,-18.88458 -10.0493,-28.32686 a 3.2189619,3.2189619 0 0 0 -0.26978,-0.47212 z m -8.85674,32.39502 c -6.76595,8.04741 -13.48898,16.18678 -20.23347,24.28017 h 64.31792 l 0.4292,-0.45065 v -0.62847 c -0.2238,-0.18087 -0.4292,-0.40467 -0.72044,-0.45065 -15.15058,-3.03502 -30.30423,-6.18041 -45.45787,-9.21543 -0.47212,-0.0245 -0.91971,-0.47212 -0.7419,-0.96875 1.17109,-3.88728 2.36058,-7.77763 3.48568,-11.68943 0.18087,-0.65299 -0.53956,-1.03314 -1.07912,-0.87679 z"
     id="path540"
     style="fill:#ffff00;stroke-width:3.06568" /><g
     id="g689"
     transform="matrix(0.0968892,-0.18847812,0.19160535,0.09849678,231.17743,103.54369)"
     style="fill:#ffff00"><g
       id="g553"
       style="fill:#ffff00">
	<g
   id="g551"
   style="fill:#ffff00">
		<path
   d="m 185.912,222.574 c -16.602,2.525 -31.862,5.966 -45.153,10.248 -31.95,10.291 -38.479,20.901 -38.479,23.178 0,2.278 6.531,12.887 38.479,23.177 13.29,4.281 28.551,7.724 45.153,10.249 -0.678,-10.917 -1.027,-22.094 -1.027,-33.426 -0.001,-11.332 0.349,-22.509 1.027,-33.426 z"
   id="path549"
   style="fill:#ffff00" />
	</g>
</g><g
       id="g559"
       style="fill:#ffff00">
	<g
   id="g557"
   style="fill:#ffff00">
		<path
   d="m 371.242,232.823 c -13.291,-4.281 -28.552,-7.724 -45.154,-10.248 0.678,10.917 1.027,22.094 1.027,33.426 0,11.332 -0.35,22.509 -1.027,33.426 16.602,-2.525 31.863,-5.968 45.154,-10.248 31.948,-10.29 38.478,-20.901 38.478,-23.177 10e-4,-2.277 -6.53,-12.889 -38.478,-23.179 z"
   id="path555"
   style="fill:#ffff00" />
	</g>
</g><g
       id="g565"
       style="fill:#ffff00">
	<g
   id="g563"
   style="fill:#ffff00">
		<path
   d="m 293.083,218.916 c -12.006,-0.882 -24.418,-1.35 -37.083,-1.35 -12.665,0 -25.078,0.467 -37.084,1.351 -0.883,12.006 -1.351,24.419 -1.351,37.083 0,12.664 0.467,25.077 1.351,37.083 12.006,0.883 24.419,1.351 37.084,1.351 12.665,0 25.077,-0.467 37.083,-1.351 0.883,-12.006 1.351,-24.419 1.351,-37.083 0,-12.664 -0.468,-25.078 -1.351,-37.084 z"
   id="path561"
   style="fill:#ffff00" />
	</g>
</g><g
       id="g571"
       style="fill:#ffff00">
	<g
   id="g569"
   style="fill:#ffff00">
		<path
   d="m 255.999,327.116 c -11.33,-10e-4 -22.508,-0.351 -33.425,-1.027 2.525,16.602 5.966,31.863 10.248,45.154 10.29,31.948 20.901,38.478 23.178,38.478 2.278,0 12.887,-6.531 23.177,-38.478 4.281,-13.291 7.724,-28.552 10.248,-45.154 -10.917,0.677 -22.094,1.027 -33.426,1.027 z"
   id="path567"
   style="fill:#ffff00" />
	</g>
</g><g
       id="g577"
       style="fill:#ffff00">
	<g
   id="g575"
   style="fill:#ffff00">
		<path
   d="m 279.178,140.757 c -10.291,-31.948 -20.9,-38.478 -23.178,-38.478 -2.278,0 -12.888,6.531 -23.178,38.478 -4.281,13.291 -7.724,28.552 -10.248,45.154 10.917,-0.678 22.094,-1.027 33.426,-1.027 11.332,0.001 22.509,0.351 33.426,1.027 -2.525,-16.601 -5.966,-31.862 -10.248,-45.154 z"
   id="path573"
   style="fill:#ffff00" />
	</g>
</g><g
       id="g583"
       style="fill:#ffff00">
	<g
   id="g581"
   style="fill:#ffff00">
		<path
   d="m 201.715,381.261 c -5.492,-17.053 -9.733,-36.873 -12.586,-58.391 -21.518,-2.852 -41.337,-7.093 -58.39,-12.585 -7.454,-2.401 -15.287,-5.361 -22.77,-8.945 15.027,48.962 53.727,87.663 102.69,102.69 -3.584,-7.482 -6.543,-15.315 -8.944,-22.769 z"
   id="path579"
   style="fill:#ffff00" />
	</g>
</g><g
       id="g589"
       style="fill:#ffff00">
	<g
   id="g587"
   style="fill:#ffff00">
		<path
   d="m 301.34,107.969 c 3.584,7.483 6.543,15.315 8.944,22.769 5.494,17.054 9.734,36.874 12.586,58.392 21.518,2.852 41.338,7.093 58.391,12.585 7.455,2.401 15.287,5.361 22.769,8.944 -15.027,-48.963 -53.727,-87.664 -102.69,-102.69 z"
   id="path585"
   style="fill:#ffff00" />
	</g>
</g><g
       id="g595"
       style="fill:#ffff00">
	<g
   id="g593"
   style="fill:#ffff00">
		<path
   d="m 381.262,310.284 c -17.054,5.494 -36.874,9.734 -58.392,12.586 -2.852,21.518 -7.093,41.338 -12.585,58.391 -2.401,7.455 -5.361,15.287 -8.944,22.769 48.962,-15.027 87.663,-53.727 102.69,-102.69 -7.483,3.584 -15.315,6.543 -22.769,8.944 z"
   id="path591"
   style="fill:#ffff00" />
	</g>
</g><g
       id="g601"
       style="fill:#ffff00">
	<g
   id="g599"
   style="fill:#ffff00">
		<path
   d="m 107.969,210.66 c 7.483,-3.584 15.315,-6.543 22.77,-8.945 17.053,-5.493 36.873,-9.733 58.39,-12.585 2.852,-21.517 7.094,-41.337 12.586,-58.391 2.401,-7.454 5.36,-15.287 8.944,-22.769 -48.963,15.027 -87.664,53.727 -102.69,102.69 z"
   id="path597"
   style="fill:#ffff00" />
	</g>
</g><g
       id="g607"
       style="fill:#ffff00">
	<g
   id="g605"
   style="fill:#ffff00">
		<path
   d="M 481.675,214.932 C 473.387,169.373 451.134,126.753 418.191,93.808 385.248,60.866 342.626,38.612 297.067,30.324 291.657,12.784 275.295,0 256,0 236.706,0 220.344,12.784 214.932,30.325 169.373,38.613 126.753,60.866 93.809,93.809 60.866,126.752 38.612,169.374 30.325,214.933 12.784,220.343 0,236.705 0,256 c 0,19.295 12.784,35.657 30.326,41.068 8.288,45.559 30.541,88.179 63.484,121.124 32.943,32.942 75.564,55.196 121.123,63.484 5.411,17.54 21.773,30.324 41.067,30.324 19.295,0 35.657,-12.784 41.068,-30.325 45.559,-8.288 88.179,-30.541 121.124,-63.484 32.942,-32.943 55.196,-75.565 63.484,-121.124 C 499.216,291.656 512,275.295 512,256 c 0,-19.295 -12.784,-35.656 -30.325,-41.068 z m -86.593,180.15 c -27.585,27.586 -63.071,46.429 -101.079,53.915 -7.234,-13.674 -21.616,-22.934 -38.003,-22.934 -16.382,0 -30.759,9.255 -37.998,22.935 C 179.993,441.513 144.505,422.67 116.917,395.082 89.331,367.497 70.49,332.011 63.002,294.004 c 13.674,-7.234 22.935,-21.616 22.935,-38.003 0,-16.382 -9.255,-30.76 -22.937,-37.998 7.486,-38.009 26.329,-73.497 53.916,-101.084 27.586,-27.586 63.072,-46.429 101.079,-53.915 7.236,13.674 21.616,22.934 38.003,22.934 16.382,0 30.759,-9.255 37.998,-22.935 38.009,7.485 73.498,26.329 101.084,53.916 27.586,27.585 46.429,63.071 53.915,101.079 -13.674,7.234 -22.934,21.616 -22.934,38.003 0,16.382 9.255,30.759 22.935,37.998 -7.484,38.008 -26.327,73.496 -53.914,101.083 z"
   id="path603"
   style="fill:#ffff00" />
	</g>
</g><g
       id="g609"
       style="fill:#ffff00">
</g><g
       id="g611"
       style="fill:#ffff00">
</g><g
       id="g613"
       style="fill:#ffff00">
</g><g
       id="g615"
       style="fill:#ffff00">
</g><g
       id="g617"
       style="fill:#ffff00">
</g><g
       id="g619"
       style="fill:#ffff00">
</g><g
       id="g621"
       style="fill:#ffff00">
</g><g
       id="g623"
       style="fill:#ffff00">
</g><g
       id="g625"
       style="fill:#ffff00">
</g><g
       id="g627"
       style="fill:#ffff00">
</g><g
       id="g629"
       style="fill:#ffff00">
</g><g
       id="g631"
       style="fill:#ffff00">
</g><g
       id="g633"
       style="fill:#ffff00">
</g><g
       id="g635"
       style="fill:#ffff00">
</g><g
       id="g637"
       style="fill:#ffff00">
</g></g><g
     id="g750"
     transform="matrix(1.4619807,-0.84407494,0.84407494,1.4619807,152.99417,136.57439)"
     style="fill:#ffff00"><g
       id="g695"
       style="fill:#ffff00">
	<g
   id="g693"
   style="fill:#ffff00">
		<path
   style="fill:#ffff00"
   d="m 43.02,0 c -3.509,0 -6.452,2.331 -7.454,5.514 h -9.389 c -1.291,0 -2.336,1.046 -2.336,2.337 L 23.839,18.45 c -3.182,1.001 -5.512,3.946 -5.512,7.454 0,3.509 2.33,6.453 5.512,7.455 v 8.134 l -7.724,0.003 C 15.113,38.312 12.17,35.982 8.66,35.982 c -4.328,0 -7.85,3.521 -7.85,7.851 0,4.327 3.521,7.849 7.85,7.849 3.51,0 6.454,-2.33 7.455,-5.512 l 10.062,-0.002 c 1.291,0 2.337,-1.047 2.337,-2.338 V 33.36 c 3.183,-1.002 5.514,-3.946 5.514,-7.455 0,-3.508 -2.331,-6.453 -5.514,-7.454 l 0.001,-8.262 h 7.051 c 1.002,3.182 3.945,5.511 7.454,5.511 4.329,0 7.851,-3.521 7.851,-7.848 C 50.87,3.523 47.349,0 43.02,0 Z M 8.66,47.008 c -1.751,0 -3.176,-1.425 -3.176,-3.175 0,-1.751 1.425,-3.177 3.176,-3.177 1.751,0 3.176,1.426 3.176,3.177 0,1.75 -1.425,3.175 -3.176,3.175 z M 26.177,29.08 c -1.752,0 -3.176,-1.424 -3.176,-3.176 0,-1.751 1.424,-3.176 3.176,-3.176 1.752,0 3.176,1.425 3.176,3.176 0,1.752 -1.424,3.176 -3.176,3.176 z M 43.02,11.026 c -1.751,0 -3.175,-1.424 -3.175,-3.174 0,-1.751 1.424,-3.177 3.175,-3.177 1.751,0 3.177,1.426 3.177,3.177 -0.001,1.749 -1.426,3.174 -3.177,3.174 z"
   id="path691" />
	</g>
</g><g
       id="g697"
       style="fill:#ffff00">
</g><g
       id="g699"
       style="fill:#ffff00">
</g><g
       id="g701"
       style="fill:#ffff00">
</g><g
       id="g703"
       style="fill:#ffff00">
</g><g
       id="g705"
       style="fill:#ffff00">
</g><g
       id="g707"
       style="fill:#ffff00">
</g><g
       id="g709"
       style="fill:#ffff00">
</g><g
       id="g711"
       style="fill:#ffff00">
</g><g
       id="g713"
       style="fill:#ffff00">
</g><g
       id="g715"
       style="fill:#ffff00">
</g><g
       id="g717"
       style="fill:#ffff00">
</g><g
       id="g719"
       style="fill:#ffff00">
</g><g
       id="g721"
       style="fill:#ffff00">
</g><g
       id="g723"
       style="fill:#ffff00">
</g><g
       id="g725"
       style="fill:#ffff00">
</g></g><g
     id="g832"
     transform="translate(119.25472,222.64454)"
     style="fill:#ffff00"><g
       id="g770"
       style="fill:#ffff00">
	<path
   d="m 49.008,32.682 c 0,1.804 -2.514,3.709 -6.773,5.127 v -2.873 c 2.85,-0.866 5.217,-1.998 6.773,-3.381 z"
   id="path752"
   style="fill:#ffff00" />
	<path
   d="m 49.008,27.682 c 0,1.804 -2.514,3.709 -6.773,5.127 v -2.873 c 2.85,-0.866 5.217,-1.998 6.773,-3.381 z"
   id="path754"
   style="fill:#ffff00" />
	<path
   d="m 49.008,22.682 c 0,1.803 -2.514,3.708 -6.773,5.126 v -3.874 c 2.85,-0.866 5.217,-1.998 6.773,-3.381 z"
   id="path756"
   style="fill:#ffff00" />
	<path
   d="m 49.008,16.682 c 0,1.803 -2.514,3.708 -6.773,5.127 v -3.475 c 0,-0.553 -0.447,-1 -1,-1 -0.553,0 -1,0.447 -1,1 V 22.4 c -3.699,0.979 -8.377,1.615 -13.727,1.615 -13.26,0 -22.5,-3.864 -22.5,-7.333 v -5.476 c 4.019,3.569 13.472,5.462 22.5,5.462 9.027,0 18.48,-1.893 22.5,-5.462 z"
   id="path758"
   style="fill:#ffff00" />
	<path
   d="m 26.508,26.016 c 4.741,0 9.6,-0.522 13.727,-1.535 v 3.92 c -3.699,0.978 -8.377,1.614 -13.727,1.614 -13.26,0 -22.5,-3.864 -22.5,-7.333 v -2.128 c 4.019,3.569 13.472,5.462 22.5,5.462 z"
   id="path760"
   style="fill:#ffff00" />
	<path
   d="m 26.508,32.016 c 4.741,0 9.6,-0.522 13.727,-1.535 v 2.921 c -3.699,0.978 -8.377,1.614 -13.727,1.614 -13.26,0 -22.5,-3.864 -22.5,-7.334 v -1.127 c 4.019,3.568 13.472,5.461 22.5,5.461 z"
   id="path762"
   style="fill:#ffff00" />
	<path
   d="m 26.508,37.016 c 4.741,0 9.6,-0.522 13.727,-1.535 v 2.921 c -3.699,0.978 -8.377,1.614 -13.727,1.614 -13.26,0 -22.5,-3.864 -22.5,-7.334 v -1.127 c 4.019,3.568 13.472,5.461 22.5,5.461 z"
   id="path764"
   style="fill:#ffff00" />
	<path
   d="m 26.508,53.016 c -13.26,0 -22.5,-3.864 -22.5,-7.334 v -9.127 c 4.019,3.568 13.472,5.461 22.5,5.461 4.741,0 9.6,-0.522 13.727,-1.535 v 5.201 c 0,0.554 0.447,1 1,1 0.553,0 1,-0.446 1,-1 v -5.746 c 2.85,-0.866 5.217,-1.998 6.773,-3.381 v 9.127 c 0,3.468 -9.24,7.334 -22.5,7.334 z"
   id="path766"
   style="fill:#ffff00" />
	<path
   d="m 26.508,0 c 13.26,0 22.5,3.865 22.5,7.334 0,3.469 -9.24,7.334 -22.5,7.334 -13.26,0 -22.5,-3.865 -22.5,-7.334 C 4.008,3.865 13.248,0 26.508,0 Z"
   id="path768"
   style="fill:#ffff00" />
</g><g
       id="g772"
       style="fill:#ffff00">
</g><g
       id="g774"
       style="fill:#ffff00">
</g><g
       id="g776"
       style="fill:#ffff00">
</g><g
       id="g778"
       style="fill:#ffff00">
</g><g
       id="g780"
       style="fill:#ffff00">
</g><g
       id="g782"
       style="fill:#ffff00">
</g><g
       id="g784"
       style="fill:#ffff00">
</g><g
       id="g786"
       style="fill:#ffff00">
</g><g
       id="g788"
       style="fill:#ffff00">
</g><g
       id="g790"
       style="fill:#ffff00">
</g><g
       id="g792"
       style="fill:#ffff00">
</g><g
       id="g794"
       style="fill:#ffff00">
</g><g
       id="g796"
       style="fill:#ffff00">
</g><g
       id="g798"
       style="fill:#ffff00">
</g><g
       id="g800"
       style="fill:#ffff00">
</g></g><g
     id="g914"
     transform="matrix(0.24557851,0,0,0.24557851,10.101694,6.4268721)"
     style="fill:#ffff00"><g
       id="g852"
       style="fill:#ffff00">
	<g
   id="g850"
   style="fill:#ffff00">
		<g
   id="g848"
   style="fill:#ffff00">
			<path
   d="M 501.657,351.677 H 468.04 V 123.863 c 0,-22.671 -18.444,-41.115 -41.115,-41.115 H 85.075 c -22.671,0 -41.115,18.444 -41.115,41.115 V 351.677 H 10.343 C 4.631,351.677 0,356.308 0,362.02 v 14.825 c 0,28.897 23.51,52.407 52.407,52.407 h 407.187 c 28.896,0 52.406,-23.51 52.406,-52.407 V 362.02 c 0,-5.712 -4.631,-10.343 -10.343,-10.343 z M 64.646,123.863 c 0,-11.264 9.164,-20.428 20.428,-20.428 h 341.851 c 11.264,0 20.428,9.164 20.428,20.428 V 351.677 H 64.646 Z m 426.667,252.982 c 0,17.491 -14.229,31.72 -31.72,31.72 H 52.407 c -17.491,0 -31.72,-14.229 -31.72,-31.72 v -4.482 h 470.626 z"
   id="path834"
   style="fill:#ffff00" />
			<path
   d="m 372.192,144.808 h 44.131 c 5.713,0 10.343,-4.631 10.343,-10.343 0,-5.713 -4.631,-10.343 -10.343,-10.343 h -44.131 c -5.713,0 -10.343,4.631 -10.343,10.343 0,5.712 4.63,10.343 10.343,10.343 z"
   id="path836"
   style="fill:#ffff00" />
			<path
   d="m 147.308,144.808 h 180.407 c 5.713,0 10.343,-4.631 10.343,-10.343 0,-5.713 -4.631,-10.343 -10.343,-10.343 H 147.308 c -5.713,0 -10.343,4.631 -10.343,10.343 0,5.712 4.63,10.343 10.343,10.343 z"
   id="path838"
   style="fill:#ffff00" />
			<path
   d="m 95.677,144.808 h 0.431 c 5.713,0 10.343,-4.631 10.343,-10.343 0,-5.713 -4.631,-10.343 -10.343,-10.343 h -0.431 c -5.713,0 -10.343,4.631 -10.343,10.343 0,5.712 4.63,10.343 10.343,10.343 z"
   id="path840"
   style="fill:#ffff00" />
			<path
   d="m 178.144,202.884 c -5.426,-1.78 -11.271,1.175 -13.052,6.603 l -10.026,30.556 -10.025,-30.556 c -1.393,-4.247 -5.358,-7.119 -9.827,-7.119 -4.469,0 -8.434,2.871 -9.827,7.118 l -10.026,30.556 -10.026,-30.556 c -1.78,-5.428 -7.625,-8.383 -13.052,-6.603 -5.428,1.781 -8.384,7.625 -6.603,13.052 l 19.853,60.509 c 1.393,4.247 5.358,7.118 9.827,7.118 4.469,0 8.434,-2.871 9.827,-7.118 l 10.026,-30.556 10.025,30.556 c 1.393,4.247 5.358,7.119 9.827,7.119 4.469,0 8.434,-2.871 9.827,-7.118 l 19.853,-60.509 c 1.782,-5.426 -1.173,-11.27 -6.601,-13.052 z"
   id="path842"
   style="fill:#ffff00" />
			<path
   d="m 298.931,202.884 c -5.428,-1.78 -11.271,1.175 -13.052,6.603 l -10.026,30.556 -10.025,-30.556 c -1.393,-4.247 -5.358,-7.119 -9.827,-7.119 -4.469,0 -8.434,2.871 -9.827,7.118 l -10.026,30.556 -10.026,-30.556 c -1.78,-5.428 -7.626,-8.383 -13.052,-6.603 -5.428,1.781 -8.383,7.625 -6.603,13.052 l 19.853,60.509 c 1.393,4.247 5.358,7.118 9.827,7.118 4.469,0 8.434,-2.871 9.827,-7.118 L 256,245.889 l 10.025,30.556 c 1.393,4.247 5.358,7.119 9.827,7.119 4.469,0 8.434,-2.871 9.827,-7.118 l 19.853,-60.509 c 1.784,-5.427 -1.173,-11.271 -6.601,-13.053 z"
   id="path844"
   style="fill:#ffff00" />
			<path
   d="m 419.719,202.884 c -5.427,-1.78 -11.271,1.175 -13.052,6.603 l -10.025,30.556 -10.026,-30.556 c -1.393,-4.247 -5.358,-7.118 -9.827,-7.118 -4.469,0 -8.434,2.871 -9.827,7.118 l -10.026,30.556 -10.026,-30.556 c -1.781,-5.428 -7.624,-8.383 -13.052,-6.603 -5.428,1.781 -8.384,7.625 -6.603,13.052 l 19.853,60.509 c 1.393,4.247 5.358,7.118 9.827,7.118 4.469,0 8.434,-2.871 9.827,-7.118 l 10.026,-30.556 10.026,30.556 c 1.393,4.247 5.358,7.118 9.827,7.118 4.469,0 8.434,-2.871 9.827,-7.119 l 19.853,-60.509 c 1.781,-5.425 -1.175,-11.269 -6.602,-13.051 z"
   id="path846"
   style="fill:#ffff00" />
		</g>
	</g>
</g><g
       id="g854"
       style="fill:#ffff00">
</g><g
       id="g856"
       style="fill:#ffff00">
</g><g
       id="g858"
       style="fill:#ffff00">
</g><g
       id="g860"
       style="fill:#ffff00">
</g><g
       id="g862"
       style="fill:#ffff00">
</g><g
       id="g864"
       style="fill:#ffff00">
</g><g
       id="g866"
       style="fill:#ffff00">
</g><g
       id="g868"
       style="fill:#ffff00">
</g><g
       id="g870"
       style="fill:#ffff00">
</g><g
       id="g872"
       style="fill:#ffff00">
</g><g
       id="g874"
       style="fill:#ffff00">
</g><g
       id="g876"
       style="fill:#ffff00">
</g><g
       id="g878"
       style="fill:#ffff00">
</g><g
       id="g880"
       style="fill:#ffff00">
</g><g
       id="g882"
       style="fill:#ffff00">
</g></g></svg>
