<?xml version="1.0" encoding="UTF-8" standalone="no"?>
<svg
   version="1.0"
   width="30"
   height="30"
   viewBox="0 0 30 30"
   preserveAspectRatio="xMidYMid"
   id="svg143"
   sodipodi:docname="glasses.svg"
   inkscape:version="1.2.1 (9c6d41e410, 2022-07-14)"
   xmlns:inkscape="http://www.inkscape.org/namespaces/inkscape"
   xmlns:sodipodi="http://sodipodi.sourceforge.net/DTD/sodipodi-0.dtd"
   xmlns="http://www.w3.org/2000/svg"
   xmlns:svg="http://www.w3.org/2000/svg">
  <defs
     id="defs147" />
  <sodipodi:namedview
     id="namedview145"
     pagecolor="#ffffff"
     bordercolor="#000000"
     borderopacity="0.25"
     inkscape:showpageshadow="2"
     inkscape:pageopacity="0.0"
     inkscape:pagecheckerboard="0"
     inkscape:deskcolor="#d1d1d1"
     inkscape:document-units="pt"
     showgrid="false"
     inkscape:zoom="8.85"
     inkscape:cx="5.8192091"
     inkscape:cy="16.61017"
     inkscape:window-width="1440"
     inkscape:window-height="837"
     inkscape:window-x="-8"
     inkscape:window-y="-8"
     inkscape:window-maximized="1"
     inkscape:current-layer="svg143" />
  <metadata
     id="metadata137">
Created by potrace 1.15, written by Peter Selinger 2001-2017
</metadata>
  <g
     transform="matrix(0.00226943,0,0,-0.00226943,0.47658618,22.266546)"
     fill="#000000"
     stroke="none"
     id="g141">
    <path
       d="M 2725,5579 C 2118,5537 1554,5344 980,4982 745,4833 529,4740 335,4705 156,4672 135,4660 86,4571 35,4476 12,4358 3,4140 c -9,-220 9,-263 141,-347 110,-71 187,-156 240,-265 38,-77 51,-123 81,-273 146,-721 368,-1210 709,-1563 140,-145 316,-278 559,-421 784,-461 1572,-496 2444,-109 820,363 1294,960 1579,1988 58,207 97,293 166,366 113,120 282,163 588,151 246,-10 369,-56 488,-181 88,-93 144,-202 252,-491 98,-262 169,-413 277,-595 454,-761 1183,-1339 1915,-1519 201,-50 322,-64 533,-64 344,1 633,65 959,213 500,228 824,537 1063,1015 108,215 182,436 253,750 79,351 137,524 213,633 52,75 93,106 165,127 70,21 133,84 158,157 32,99 -3,419 -62,547 -61,134 -145,207 -339,291 -183,79 -381,184 -580,309 -497,310 -920,459 -1530,538 -199,25 -692,26 -851,0 -636,-102 -1164,-380 -1759,-927 -193,-178 -299,-182 -625,-25 -274,131 -390,161 -600,152 -185,-8 -314,-49 -491,-158 -112,-69 -176,-87 -247,-69 -76,19 -123,53 -284,206 -385,368 -741,624 -1047,754 -108,46 -424,134 -623,174 -367,73 -697,97 -1023,75 z m 608,-370 c 640,-79 1217,-436 1552,-959 117,-182 222,-445 266,-669 30,-150 37,-425 15,-586 -88,-659 -513,-1228 -1143,-1531 -695,-334 -1547,-282 -2188,134 -769,498 -1101,1395 -824,2227 284,854 1147,1430 2097,1399 79,-3 180,-9 225,-15 z m 6746,-69 c 398,-27 761,-145 1073,-349 469,-307 773,-743 886,-1271 24,-116 26,-143 26,-365 0,-222 -2,-249 -26,-365 -181,-846 -870,-1467 -1783,-1606 -152,-23 -469,-23 -629,0 -787,114 -1442,618 -1701,1311 -211,564 -140,1192 192,1695 273,413 672,707 1169,860 172,53 342,80 629,98 11,1 85,-3 164,-8 z"
       id="path139" />
  </g>
</svg>
