<?xml version="1.0" encoding="UTF-8" standalone="no"?>
<!-- Created with Inkscape (http://www.inkscape.org/) -->

<svg
   width="300"
   height="300"
   viewBox="0 0 300 300"
   version="1.1"
   id="svg5"
   xml:space="preserve"
   xmlns="http://www.w3.org/2000/svg"
   xmlns:svg="http://www.w3.org/2000/svg"><defs
     id="defs2" /><g
     id="layer1"><g
       id="g8249"
       style="fill:none"><rect
         style="fill:none;fill-opacity:1;stroke:none;stroke-width:1.5498;stroke-dasharray:none;stroke-opacity:1"
         id="rect6943"
         width="300"
         height="300"
         x="0"
         y="0"
         ry="23.782196" /></g><path
       style="fill:#00ffff;stroke-width:0.00464496"
       d="m 174.40667,-16.431023 c -0.0142,-0.03115 -0.0717,-0.104668 -0.12475,-0.159469 -0.0662,-0.0684 -0.14119,-0.132812 -0.24687,-0.212075 -0.0396,-0.0297 -0.0722,-0.05609 -0.0725,-0.05864 -2.6e-4,-0.0026 0.014,-0.0071 0.0318,-0.01008 l 0.0323,-0.0054 0.0727,0.07303 c 0.0948,0.09523 0.20098,0.188183 0.35378,0.309826 l 0.0581,0.04624 -0.0496,0.01423 -0.0496,0.01423 z"
       id="path526" /><path
       style="fill:#00ffff;stroke-width:0.00464496"
       d="m 174.40114,-16.440577 c -0.025,-0.04469 -0.0727,-0.102686 -0.13801,-0.167761 -0.0724,-0.07222 -0.12448,-0.11642 -0.234,-0.198688 -0.0377,-0.02835 -0.0683,-0.05319 -0.0678,-0.05519 4.4e-4,-0.002 0.0156,-0.0062 0.0338,-0.0093 l 0.033,-0.0057 0.04,0.04283 c 0.0711,0.07612 0.21792,0.206252 0.3735,0.331092 l 0.0698,0.056 -0.0492,0.01393 -0.0492,0.01393 z"
       id="path528" /><path
       style="fill:#ffffff;fill-opacity:1;stroke:#ffff00;stroke-width:0.0221376;stroke-dasharray:none;stroke-opacity:1"
       d="m 182.5647,145.76687 c -2.02324,-0.0811 -4.01781,-0.15889 -4.43237,-0.17298 l -0.75374,-0.0256 -0.12809,-14.87213 c -0.12439,-14.44324 0.11302,-48.103791 0.34089,-48.331658 0.0622,-0.06218 2.46889,1.097742 5.34826,2.577606 l 5.23521,2.690661 0.13738,5.477141 c 0.0756,3.012427 0.13759,16.14251 0.13782,29.17797 l 4.3e-4,23.70083 -1.10358,-0.0372 c -0.60697,-0.0205 -2.75897,-0.10355 -4.78221,-0.1846 z"
       id="path3151" /><g
       id="g3375"
       transform="translate(-1.1591724,-39.518899)"><g
         id="g3275"
         transform="translate(-12.207379,15.134897)"><g
           id="g3179"><path
             style="fill:#ffffff;fill-opacity:1;stroke:#ffffff;stroke-width:2;stroke-linejoin:round;stroke-miterlimit:4.3;stroke-dasharray:none;stroke-opacity:1"
             d="m 49.556279,148.98974 -0.683173,-0.0848 v -42.32089 c 0,-38.397193 0.03083,-42.332709 0.332503,-42.448473 0.182877,-0.07018 1.148729,-0.127593 2.146338,-0.127593 h 1.813836 l 5.101697,-5.202621 5.101697,-5.202621 4.996517,5.085161 4.996517,5.085161 8.723587,0.123468 c 4.797973,0.06791 9.598573,0.176888 10.668001,0.24218 l 1.944414,0.118714 v 42.442174 42.44218 l -22.229381,-0.0336 c -12.226159,-0.0185 -22.536808,-0.0718 -22.912553,-0.11842 z m 8.250621,-10.9889 v -3.67863 l -2.785242,-0.0587 -2.785241,-0.0587 v 3.79593 3.79592 l 2.785241,-0.0587 2.785242,-0.0587 z m 16.501242,0 v -3.78373 h -6.41131 -6.411311 v 3.78373 3.78372 h 6.411311 6.41131 z m 10.089932,0 v -3.78373 h -2.942897 -2.942896 v 3.78373 3.78372 h 2.942896 2.942897 z M 57.8069,123.91697 v -3.67862 l -2.785242,-0.0587 -2.785241,-0.0587 v 3.79592 3.79593 l 2.785241,-0.0587 2.785242,-0.0587 z m 16.501242,0 v -3.78372 h -6.41131 -6.411311 v 3.78372 3.78373 h 6.411311 6.41131 z m 10.089932,0 v -3.78372 h -2.942897 -2.942896 v 3.78372 3.78373 h 2.942896 2.942897 z M 57.8069,109.6229 v -3.67862 l -2.785242,-0.0587 -2.785241,-0.0587 v 3.79592 3.79593 l 2.785241,-0.0587 2.785242,-0.0587 z m 16.501242,0 v -3.78372 h -6.41131 -6.411311 v 3.78372 3.78373 h 6.411311 6.41131 z m 10.089932,0 v -3.78372 h -2.942897 -2.942896 v 3.78372 3.78373 h 2.942896 2.942897 z m 0,-14.819584 v -3.888828 h -2.942897 -2.942896 v 3.888828 3.888828 h 2.942896 2.942897 z M 57.8069,94.698213 v -3.678621 l -2.785242,-0.05865 -2.785241,-0.05865 v 3.795927 3.795926 l 2.785241,-0.05865 2.785242,-0.05865 z m 16.501242,0 v -3.783725 h -6.41131 -6.411311 v 3.783725 3.783724 h 6.411311 6.41131 z M 84.398074,80.299039 v -3.888828 h -2.942897 -2.942896 v 3.888828 3.888828 h 2.942896 2.942897 z M 57.8069,80.193936 v -3.678621 l -2.785242,-0.05865 -2.785241,-0.05865 v 3.795927 3.795927 l 2.785241,-0.05865 2.785242,-0.05865 z m 16.501242,0 v -3.783725 h -6.41131 -6.411311 v 3.783725 3.783724 h 6.411311 6.41131 z"
             id="path3145" /><path
             style="fill:#ffffff;fill-opacity:1;stroke:#ffffff;stroke-width:2;stroke-linejoin:round;stroke-miterlimit:4.3;stroke-dasharray:none;stroke-opacity:1"
             d="m 97.291012,129.85532 c 0.0768,-10.8388 0.139699,-24.5548 0.139767,-30.480004 l 1.23e-4,-10.773104 h 19.864558 19.86455 v 28.798348 28.79835 l -1.524,0.002 c -0.8382,0.001 -1.87873,0.0609 -2.31228,0.1326 l -0.78827,0.1303 v -1.39385 -1.39385 h -2.9429 -2.9429 v 1.57655 1.57655 h -1.1268 c -0.61973,0 -1.56567,0.0602 -2.10207,0.13368 l -0.97527,0.13368 v -1.71023 -1.71023 h -6.41131 -6.41131 v 2.19477 c 0,1.20712 -0.0709,2.23693 -0.15765,2.28847 -0.0867,0.0515 -0.93805,0.16156 -1.89186,0.24449 l -1.73421,0.15079 v -2.33416 -2.33415 h -2.83779 -2.8378 v 2.70341 2.70341 l -1.103584,0.13256 c -0.606972,0.0729 -1.284723,0.13337 -1.506112,0.13438 -0.394702,0.002 -0.399811,-0.38121 -0.262882,-19.70507 z m 8.548168,5.41283 v -3.78373 h -2.83779 -2.8378 v 3.64359 c 0,2.00397 0.0631,3.70665 0.14014,3.78372 0.0771,0.0771 1.35408,0.14014 2.83779,0.14014 h 2.69766 z m 16.60634,0 v -3.78373 h -6.41131 -6.41131 v 3.78373 3.78372 h 6.41131 6.41131 z m 10.08994,0 v -3.78373 h -2.9429 -2.9429 v 3.78373 3.78372 h 2.9429 2.9429 z m -10.08994,-12.29711 v -3.88883 h -6.41131 -6.41131 v 3.88883 3.88883 h 6.41131 6.41131 z m 10.08994,0 v -3.88883 h -2.9429 -2.9429 v 3.88883 3.88883 h 2.9429 2.9429 z m -26.69628,0 v -3.67862 h -2.83779 -2.8378 v 3.67862 3.67862 h 2.8378 2.83779 z m 16.60634,-12.40221 v -3.88882 h -6.41131 -6.41131 v 3.88882 3.88883 h 6.41131 6.41131 z m 10.08994,0 v -3.88882 h -2.9429 -2.9429 v 3.88882 3.88883 h 2.9429 2.9429 z m -26.69628,0 v -3.67862 h -2.83779 -2.8378 v 3.67862 3.67863 h 2.8378 2.83779 z m 26.69628,-12.191996 v -3.888828 h -2.9429 -2.9429 v 3.888828 3.888826 h 2.9429 2.9429 z m -26.69628,0 v -3.678621 h -2.83779 -2.8378 v 3.678621 3.678616 h 2.8378 2.83779 z m 16.60634,-0.105104 v -3.783724 h -6.41131 -6.41131 v 3.783724 3.78372 h 6.41131 6.41131 z"
             id="path3147" /><path
             style="fill:#ffffff;fill-opacity:1;stroke:#ffffff;stroke-width:2;stroke-linejoin:round;stroke-miterlimit:4.3;stroke-dasharray:none;stroke-opacity:1"
             d="m 139.94451,117.05915 0.0533,-28.960059 5.36028,-2.79085 c 2.94815,-1.534967 5.43122,-2.793365 5.51793,-2.79644 0.19493,-0.0069 0.20779,36.192509 0.0183,51.654689 l -0.1393,11.36975 -1.70001,0.11522 c -0.935,0.0634 -3.37937,0.17204 -5.43192,0.24149 l -3.73192,0.12626 z"
             id="path3149" /><path
             style="fill:#ffffff;fill-opacity:1;stroke:#ffffff;stroke-width:2;stroke-linejoin:round;stroke-miterlimit:4.3;stroke-dasharray:none;stroke-opacity:1"
             d="m 230.38677,149.4566 c -0.11561,-0.0398 -0.75411,-0.13376 -1.41889,-0.20874 l -1.20869,-0.13631 v -2.50736 -2.50735 h -2.8378 -2.83779 v 2.22133 c 0,2.01512 -0.0341,2.21167 -0.36786,2.11715 -0.20233,-0.0573 -1.05366,-0.16787 -1.89186,-0.2457 l -1.524,-0.14152 v -2.08074 -2.08073 h -6.41132 -6.41131 v 1.47145 1.47145 l -1.31379,-0.002 c -0.72259,-0.001 -1.66852,-0.0609 -2.10207,-0.1326 l -0.78827,-0.1303 v -1.33884 -1.33884 h -2.9429 -2.9429 v 1.15614 1.15614 h -1.87467 c -1.03107,0 -2.02429,-0.0574 -2.20717,-0.1276 -0.30097,-0.11549 -0.3325,-2.86681 -0.3325,-29.00855 V 88.181798 h 19.96965 19.96966 v 30.690212 c 0,16.87961 -0.071,30.68274 -0.15766,30.67361 -0.0867,-0.009 -0.25224,-0.0492 -0.36786,-0.089 z m -29.11365,-13.97825 v -3.78372 h -2.9429 -2.9429 v 3.78372 3.78373 h 2.9429 2.9429 z m 17.02676,0 v -3.78372 h -6.41132 -6.41131 v 3.78372 3.78373 h 6.41131 6.41132 z m 9.45931,0 v -3.78372 h -2.8378 -2.83779 v 3.78372 3.78373 h 2.83779 2.8378 z m -26.48607,-12.2971 v -3.88883 h -2.9429 -2.9429 v 3.88883 3.88883 h 2.9429 2.9429 z m 17.02676,0 v -3.88883 h -6.41132 -6.41131 v 3.88883 3.88883 h 6.41131 6.41132 z m 9.45931,0 v -3.67862 h -2.8378 -2.83779 v 3.67862 3.67862 h 2.83779 2.8378 z m -26.48607,-12.40221 v -3.88883 h -2.9429 -2.9429 v 3.88883 3.88883 h 2.9429 2.9429 z m 17.02676,0.1051 v -3.78372 h -6.41132 -6.41131 v 3.78372 3.78373 h 6.41131 6.41132 z m 9.45931,-0.1051 v -3.67862 h -2.8378 -2.83779 v 3.67862 3.67862 h 2.83779 2.8378 z m -26.48607,-12.192 v -3.888827 h -2.9429 -2.9429 v 3.888827 3.88883 h 2.9429 2.9429 z m 17.02676,0 v -3.888827 h -6.41132 -6.41131 v 3.888827 3.88883 h 6.41131 6.41132 z m 9.45931,0 v -3.67862 h -2.8378 -2.83779 v 3.67862 3.67862 h 2.83779 2.8378 z"
             id="path3153" /><path
             style="fill:#ffffff;fill-opacity:1;stroke:#ffffff;stroke-width:2;stroke-linejoin:round;stroke-miterlimit:4.3;stroke-dasharray:none;stroke-opacity:1"
             d="m 233.85519,148.51532 c -0.27884,-0.17654 -0.30963,-5.07995 -0.26615,-42.38512 0.027,-23.202023 0.0813,-42.217644 0.12061,-42.256939 0.0393,-0.0393 4.84003,-0.166085 10.6683,-0.281755 l 10.59685,-0.210308 4.86855,-4.994322 4.86856,-4.994321 0.58387,0.31531 c 0.32112,0.173421 2.62158,2.443656 5.11212,5.044966 3.77077,3.938483 4.63495,4.738239 5.16611,4.78097 0.35083,0.02822 1.32367,0.107238 2.16187,0.17559 l 1.524,0.124276 v 42.443863 42.44386 l -22.54469,-0.003 c -13.86626,-0.002 -22.66607,-0.0801 -22.86,-0.20285 z m 15.55531,-10.30428 v -3.78372 h -2.9429 -2.9429 v 3.78372 3.78373 h 2.9429 2.9429 z m 17.02676,0 v -3.78372 h -6.41131 -6.41131 v 3.78372 3.78373 h 6.41131 6.41131 z m 9.3542,0 v -3.67862 l -2.78524,-0.0587 -2.78524,-0.0587 v 3.79592 3.79593 l 2.78524,-0.0587 2.78524,-0.0587 z M 249.4105,124.23228 v -3.88882 h -2.9429 -2.9429 v 3.88882 3.88883 h 2.9429 2.9429 z m 17.02676,-0.1051 v -3.78372 h -6.41131 -6.41131 v 3.78372 3.78372 h 6.41131 6.41131 z m 9.3542,0 v -3.67862 l -2.78524,-0.0587 -2.78524,-0.0587 v 3.79593 3.79593 l 2.78524,-0.0587 2.78524,-0.0587 z M 249.4105,109.83311 v -3.78372 h -2.9429 -2.9429 v 3.78372 3.78372 h 2.9429 2.9429 z m 17.02676,0 v -3.78372 h -6.41131 -6.41131 v 3.78372 3.78372 h 6.41131 6.41131 z m 9.3542,0 v -3.67862 l -2.78524,-0.0587 -2.78524,-0.0587 v 3.79593 3.79593 l 2.78524,-0.0587 2.78524,-0.0587 z M 249.4105,95.013523 v -3.888828 h -2.9429 -2.9429 v 3.888828 3.888828 h 2.9429 2.9429 z m 17.02676,-0.105103 v -3.783725 h -6.41131 -6.41131 v 3.783725 3.783724 h 6.41131 6.41131 z m 9.41172,0.05255 0.0575,-3.626069 h -2.84276 -2.84276 v 3.684723 3.684721 l 2.78524,-0.05865 2.78524,-0.05865 z M 249.4105,80.509246 v -3.888828 h -2.9429 -2.9429 v 3.888828 3.888828 h 2.9429 2.9429 z m 17.02676,-0.105103 v -3.783725 h -6.41131 -6.41131 v 3.783725 3.783724 h 6.41131 6.41131 z m 9.3542,0 v -3.678621 h -2.73268 -2.73269 l -0.0574,3.737308 -0.0574,3.737307 2.79012,-0.05869 2.79011,-0.05869 z"
             id="path3155" /><path
             style="fill:#ffffff;fill-opacity:1;stroke:#ffffff;stroke-width:2;stroke-linejoin:round;stroke-miterlimit:4.3;stroke-dasharray:none;stroke-opacity:1"
             d="m 154.23932,133.60395 c 0,-6.60929 0.0315,-21.03474 0.07,-32.05656 l 0.07,-20.039661 h 1.45403 1.45402 v 32.056551 32.05656 h -1.524 -1.524 z"
             id="path3157" /><path
             style="fill:#ffffff;fill-opacity:1;stroke:#ffffff;stroke-width:2;stroke-linejoin:round;stroke-miterlimit:4.3;stroke-dasharray:none;stroke-opacity:1"
             d="M 159.7047,113.51173 V 81.507729 h 1.83931 1.83931 v 32.004001 32.004 h -1.83931 -1.83931 z"
             id="path3159" /><path
             style="fill:#ffffff;fill-opacity:1;stroke:#ffffff;stroke-width:2;stroke-linejoin:round;stroke-miterlimit:4.3;stroke-dasharray:none;stroke-opacity:1"
             d="M 165.59049,113.51173 V 81.507729 h 1.89186 1.89187 v 32.004001 32.004 h -1.89187 -1.89186 z"
             id="path3161" /><path
             style="fill:#ffffff;fill-opacity:1;stroke:#ffffff;stroke-width:2;stroke-linejoin:round;stroke-miterlimit:4.3;stroke-dasharray:none;stroke-opacity:1"
             d="M 171.58139,113.56428 V 81.507729 h 1.36634 1.36635 v 32.056551 32.05656 h -1.36635 -1.36634 z"
             id="path3163" /><path
             style="fill:#ffffff;fill-opacity:1;stroke:#ffffff;stroke-width:2;stroke-linejoin:round;stroke-miterlimit:4.3;stroke-dasharray:none;stroke-opacity:1"
             d="m 182.41267,145.7093 c -2.68493,-0.10991 -4.90075,-0.2189 -4.92403,-0.24218 -0.0233,-0.0233 -0.089,-4.59782 -0.14608,-10.16562 -0.1588,-15.49696 0.0657,-52.512053 0.32011,-52.769202 0.0979,-0.09902 1.87162,0.754269 6.65001,3.199207 l 3.74494,1.91616 0.0684,0.754632 c 0.14262,1.573802 0.26637,19.005643 0.2691,37.905783 l 0.003,19.62807 -0.55179,-0.0135 c -0.30349,-0.007 -2.74855,-0.10343 -5.43348,-0.21335 z"
             id="path3165" /></g><g
           id="g2477"
           transform="translate(77.292142,26.160417)"><g
             id="g2393"><g
               id="g4672"
               transform="matrix(-0.88032352,0,0,0.87948137,200.17019,4.1663549)"><rect
                 style="fill:#ce5700;fill-opacity:1;stroke:none;stroke-width:1.79021;stroke-dasharray:none;stroke-opacity:1"
                 id="rect4666"
                 width="6.2097859"
                 height="8.2097816"
                 x="56.648609"
                 y="73.446991" /><rect
                 style="fill:#ce5700;fill-opacity:1;stroke:none;stroke-width:1.49162;stroke-dasharray:none;stroke-opacity:1"
                 id="rect4668"
                 width="14.43048"
                 height="8.5083818"
                 x="67.244629"
                 y="73.297691" /><rect
                 style="fill:#ce5700;fill-opacity:1;stroke:none;stroke-width:1.43115;stroke-dasharray:none;stroke-opacity:1"
                 id="rect4670"
                 width="6.5688457"
                 height="8.5688496"
                 x="86.576027"
                 y="73.267456" /></g><g
               id="g4680"
               transform="matrix(-0.88032352,0,0,0.87948137,200.17019,16.479094)"><rect
                 style="fill:#ce5700;fill-opacity:1;stroke:none;stroke-width:1.79021;stroke-dasharray:none;stroke-opacity:1"
                 id="rect4674"
                 width="6.2097859"
                 height="8.2097816"
                 x="56.648609"
                 y="73.446991" /><rect
                 style="fill:#ce5700;fill-opacity:1;stroke:none;stroke-width:1.49162;stroke-dasharray:none;stroke-opacity:1"
                 id="rect4676"
                 width="14.43048"
                 height="8.5083818"
                 x="67.244629"
                 y="73.297691" /><rect
                 style="fill:#ce5700;fill-opacity:1;stroke:none;stroke-width:1.43115;stroke-dasharray:none;stroke-opacity:1"
                 id="rect4678"
                 width="6.5688457"
                 height="8.5688496"
                 x="86.576027"
                 y="73.267456" /></g><g
               id="g4688"
               transform="matrix(-0.88032352,0,0,0.87948137,200.17019,28.791833)"><rect
                 style="fill:#ce5700;fill-opacity:1;stroke:none;stroke-width:1.79021;stroke-dasharray:none;stroke-opacity:1"
                 id="rect4682"
                 width="6.2097859"
                 height="8.2097816"
                 x="56.648609"
                 y="73.446991" /><rect
                 style="fill:#ce5700;fill-opacity:1;stroke:none;stroke-width:1.49162;stroke-dasharray:none;stroke-opacity:1"
                 id="rect4684"
                 width="14.43048"
                 height="8.5083818"
                 x="67.244629"
                 y="73.297691" /><rect
                 style="fill:#ce5700;fill-opacity:1;stroke:none;stroke-width:1.43115;stroke-dasharray:none;stroke-opacity:1"
                 id="rect4686"
                 width="6.5688457"
                 height="8.5688496"
                 x="86.576027"
                 y="73.267456" /></g><g
               id="g4696"
               transform="matrix(-0.88032352,0,0,0.87948137,200.17019,41.104572)"><rect
                 style="fill:#ce5700;fill-opacity:1;stroke:none;stroke-width:1.79021;stroke-dasharray:none;stroke-opacity:1"
                 id="rect4690"
                 width="6.2097859"
                 height="8.2097816"
                 x="56.648609"
                 y="73.446991" /><rect
                 style="fill:#ce5700;fill-opacity:1;stroke:none;stroke-width:1.49162;stroke-dasharray:none;stroke-opacity:1"
                 id="rect4692"
                 width="14.43048"
                 height="8.5083818"
                 x="67.244629"
                 y="73.297691" /><rect
                 style="fill:#ce5700;fill-opacity:1;stroke:none;stroke-width:1.43115;stroke-dasharray:none;stroke-opacity:1"
                 id="rect4694"
                 width="6.5688457"
                 height="8.5688496"
                 x="86.576027"
                 y="73.267456" /></g><g
               id="g2239"><path
                 id="rect4698"
                 style="fill:#ce5700;fill-opacity:1;stroke:none;stroke-width:1.57521;stroke-dasharray:none;stroke-opacity:1"
                 d="m 144.83398,118.01172 v 4.68945 a 129.78382,28.555657 0 0 1 5.4668,0.67774 v -5.36719 z" /><path
                 id="rect4700"
                 style="fill:#ce5700;fill-opacity:1;stroke:none;stroke-width:1.31248;stroke-dasharray:none;stroke-opacity:1"
                 d="m -128.26953,117.88086 v 3.30859 a 129.78382,28.555657 0 0 0 -12.70313,1.09961 v -4.4082 z"
                 transform="scale(-1,1)" /><path
                 id="rect4702"
                 style="fill:#ce5700;fill-opacity:1;stroke:none;stroke-width:1.25927;stroke-dasharray:none;stroke-opacity:1"
                 d="m 118.17188,117.85547 v 2.6875 a 129.78382,28.555657 0 0 1 5.7832,0.3457 v -3.0332 z" /></g><g
               id="g2147"><rect
                 style="fill:#ce5700;fill-opacity:1;stroke:none;stroke-width:1.57521;stroke-dasharray:none;stroke-opacity:1"
                 id="rect4712"
                 width="5.4666204"
                 height="7.2203498"
                 x="-198.40562"
                 y="50.666328"
                 transform="scale(-1,1)" /><rect
                 style="fill:#ce5700;fill-opacity:1;stroke:none;stroke-width:1.31248;stroke-dasharray:none;stroke-opacity:1"
                 id="rect4714"
                 width="12.703491"
                 height="7.4829631"
                 x="-189.0777"
                 y="50.535023"
                 transform="scale(-1,1)" /><rect
                 style="fill:#ce5700;fill-opacity:1;stroke:none;stroke-width:1.25927;stroke-dasharray:none;stroke-opacity:1"
                 id="rect4716"
                 width="5.7827096"
                 height="7.5361438"
                 x="-172.05981"
                 y="50.50843"
                 transform="scale(-1,1)" /></g><g
               id="g2142"><rect
                 style="fill:#ce5700;fill-opacity:1;stroke:none;stroke-width:1.57521;stroke-dasharray:none;stroke-opacity:1"
                 id="rect4720"
                 width="5.4666204"
                 height="7.2203498"
                 x="-198.40562"
                 y="65.176193"
                 transform="scale(-1,1)" /><rect
                 style="fill:#ce5700;fill-opacity:1;stroke:none;stroke-width:1.31248;stroke-dasharray:none;stroke-opacity:1"
                 id="rect4722"
                 width="12.703491"
                 height="7.4829631"
                 x="-189.0777"
                 y="65.044884"
                 transform="scale(-1,1)" /><rect
                 style="fill:#ce5700;fill-opacity:1;stroke:none;stroke-width:1.25927;stroke-dasharray:none;stroke-opacity:1"
                 id="rect4724"
                 width="5.7827096"
                 height="7.5361438"
                 x="-172.05981"
                 y="65.018295"
                 transform="scale(-1,1)" /></g><g
               id="g2132"><rect
                 style="fill:#ce5700;fill-opacity:1;stroke:none;stroke-width:1.57521;stroke-dasharray:none;stroke-opacity:1"
                 id="rect4728"
                 width="5.4666204"
                 height="7.2203498"
                 x="-198.40562"
                 y="94.386139"
                 transform="scale(-1,1)" /><rect
                 style="fill:#ce5700;fill-opacity:1;stroke:none;stroke-width:1.31248;stroke-dasharray:none;stroke-opacity:1"
                 id="rect4730"
                 width="12.703491"
                 height="7.4829631"
                 x="-189.0777"
                 y="94.254829"
                 transform="scale(-1,1)" /><rect
                 style="fill:#ce5700;fill-opacity:1;stroke:none;stroke-width:1.25927;stroke-dasharray:none;stroke-opacity:1"
                 id="rect4732"
                 width="5.7827096"
                 height="7.5361438"
                 x="-172.05981"
                 y="94.228241"
                 transform="scale(-1,1)" /></g><g
               id="g2137"><rect
                 style="fill:#ce5700;fill-opacity:1;stroke:none;stroke-width:1.57521;stroke-dasharray:none;stroke-opacity:1"
                 id="rect4736"
                 width="5.4666204"
                 height="7.2203498"
                 x="-198.40562"
                 y="80.055801"
                 transform="scale(-1,1)" /><rect
                 style="fill:#ce5700;fill-opacity:1;stroke:none;stroke-width:1.31248;stroke-dasharray:none;stroke-opacity:1"
                 id="rect4738"
                 width="12.703491"
                 height="7.4829631"
                 x="-189.0777"
                 y="79.9245"
                 transform="scale(-1,1)" /><rect
                 style="fill:#ce5700;fill-opacity:1;stroke:none;stroke-width:1.25927;stroke-dasharray:none;stroke-opacity:1"
                 id="rect4740"
                 width="5.7827096"
                 height="7.5361438"
                 x="-172.05981"
                 y="79.897903"
                 transform="scale(-1,1)" /></g><g
               id="g2127"><rect
                 style="fill:#ce5700;fill-opacity:1;stroke:none;stroke-width:1.57521;stroke-dasharray:none;stroke-opacity:1"
                 id="rect4744"
                 width="5.4666204"
                 height="7.2203498"
                 x="-198.40562"
                 y="108.43649"
                 transform="scale(-1,1)" /><rect
                 style="fill:#ce5700;fill-opacity:1;stroke:none;stroke-width:1.31248;stroke-dasharray:none;stroke-opacity:1"
                 id="rect4746"
                 width="12.703491"
                 height="7.4829631"
                 x="-189.0777"
                 y="108.30518"
                 transform="scale(-1,1)" /><rect
                 style="fill:#ce5700;fill-opacity:1;stroke:none;stroke-width:1.25927;stroke-dasharray:none;stroke-opacity:1"
                 id="rect4748"
                 width="5.7827096"
                 height="7.5361438"
                 x="-172.05981"
                 y="108.27859"
                 transform="scale(-1,1)" /></g><g
               id="g2112"><rect
                 style="fill:#ce5700;fill-opacity:1;stroke:none;stroke-width:1.57521;stroke-dasharray:none;stroke-opacity:1"
                 id="rect2706"
                 width="5.4666204"
                 height="7.2203498"
                 x="23.053101"
                 y="68.540535" /><rect
                 style="fill:#ce5700;fill-opacity:1;stroke:none;stroke-width:1.31248;stroke-dasharray:none;stroke-opacity:1"
                 id="rect2708"
                 width="12.703491"
                 height="7.4829631"
                 x="32.381027"
                 y="68.409225" /><rect
                 style="fill:#ce5700;fill-opacity:1;stroke:none;stroke-width:1.25927;stroke-dasharray:none;stroke-opacity:1"
                 id="rect2710"
                 width="5.7827096"
                 height="7.5361438"
                 x="49.398911"
                 y="68.382637" /></g><g
               id="g2107"><rect
                 style="fill:#ce5700;fill-opacity:1;stroke:none;stroke-width:1.57521;stroke-dasharray:none;stroke-opacity:1"
                 id="rect4193"
                 width="5.4666204"
                 height="7.2203498"
                 x="23.053101"
                 y="80.853271" /><rect
                 style="fill:#ce5700;fill-opacity:1;stroke:none;stroke-width:1.31248;stroke-dasharray:none;stroke-opacity:1"
                 id="rect4195"
                 width="12.703491"
                 height="7.4829631"
                 x="32.381027"
                 y="80.72197" /><rect
                 style="fill:#ce5700;fill-opacity:1;stroke:none;stroke-width:1.25927;stroke-dasharray:none;stroke-opacity:1"
                 id="rect4197"
                 width="5.7827096"
                 height="7.5361438"
                 x="49.398911"
                 y="80.695374" /></g><g
               id="g2102"><rect
                 style="fill:#ce5700;fill-opacity:1;stroke:none;stroke-width:1.57521;stroke-dasharray:none;stroke-opacity:1"
                 id="rect4201"
                 width="5.4666204"
                 height="7.2203498"
                 x="23.053101"
                 y="93.166008" /><rect
                 style="fill:#ce5700;fill-opacity:1;stroke:none;stroke-width:1.31248;stroke-dasharray:none;stroke-opacity:1"
                 id="rect4203"
                 width="12.703491"
                 height="7.4829631"
                 x="32.381027"
                 y="93.034706" /><rect
                 style="fill:#ce5700;fill-opacity:1;stroke:none;stroke-width:1.25927;stroke-dasharray:none;stroke-opacity:1"
                 id="rect4205"
                 width="5.7827096"
                 height="7.5361438"
                 x="49.398911"
                 y="93.00811" /></g><g
               id="g2097"><rect
                 style="fill:#ce5700;fill-opacity:1;stroke:none;stroke-width:1.57521;stroke-dasharray:none;stroke-opacity:1"
                 id="rect4209"
                 width="5.4666204"
                 height="7.2203498"
                 x="23.053101"
                 y="105.47875" /><rect
                 style="fill:#ce5700;fill-opacity:1;stroke:none;stroke-width:1.31248;stroke-dasharray:none;stroke-opacity:1"
                 id="rect4211"
                 width="12.703491"
                 height="7.4829631"
                 x="32.381027"
                 y="105.34744" /><rect
                 style="fill:#ce5700;fill-opacity:1;stroke:none;stroke-width:1.25927;stroke-dasharray:none;stroke-opacity:1"
                 id="rect4213"
                 width="5.7827096"
                 height="7.5361438"
                 x="49.398911"
                 y="105.32085" /></g><g
               id="g2117"><path
                 id="rect4217"
                 style="fill:#ce5700;fill-opacity:1;stroke:none;stroke-width:1.57521;stroke-dasharray:none;stroke-opacity:1"
                 d="m 23.052734,117.79102 v 5.75195 a 129.78382,28.555657 0 0 1 5.466797,-0.6875 v -5.06445 z" /><path
                 id="rect4219"
                 style="fill:#ce5700;fill-opacity:1;stroke:none;stroke-width:1.31248;stroke-dasharray:none;stroke-opacity:1"
                 d="m 32.380859,117.66016 v 4.79296 a 129.78382,28.555657 0 0 1 12.703125,-1.14843 v -3.64453 z" /><path
                 id="rect4221"
                 style="fill:#ce5700;fill-opacity:1;stroke:none;stroke-width:1.25927;stroke-dasharray:none;stroke-opacity:1"
                 d="m 49.398438,117.63281 v 3.3418 a 129.78382,28.555657 0 0 1 5.783203,-0.35742 v -2.98438 z" /></g><g
               id="g2618"
               transform="matrix(0.88032352,0,0,0.87948137,-74.920537,-14.150015)"><rect
                 style="fill:#ce5700;fill-opacity:1;stroke:none;stroke-width:1.79021;stroke-dasharray:none;stroke-opacity:1"
                 id="rect2540"
                 width="6.2097859"
                 height="8.2097816"
                 x="56.648609"
                 y="73.446991" /><rect
                 style="fill:#ce5700;fill-opacity:1;stroke:none;stroke-width:1.49162;stroke-dasharray:none;stroke-opacity:1"
                 id="rect2542"
                 width="14.43048"
                 height="8.5083818"
                 x="67.244629"
                 y="73.297691" /><rect
                 style="fill:#ce5700;fill-opacity:1;stroke:none;stroke-width:1.43115;stroke-dasharray:none;stroke-opacity:1"
                 id="rect2544"
                 width="6.5688457"
                 height="8.5688496"
                 x="86.576027"
                 y="73.267456" /></g><g
               id="g2626"
               transform="matrix(0.88032352,0,0,0.87948137,-74.920537,0.3598517)"><rect
                 style="fill:#ce5700;fill-opacity:1;stroke:none;stroke-width:1.79021;stroke-dasharray:none;stroke-opacity:1"
                 id="rect2620"
                 width="6.2097859"
                 height="8.2097816"
                 x="56.648609"
                 y="73.446991" /><rect
                 style="fill:#ce5700;fill-opacity:1;stroke:none;stroke-width:1.49162;stroke-dasharray:none;stroke-opacity:1"
                 id="rect2622"
                 width="14.43048"
                 height="8.5083818"
                 x="67.244629"
                 y="73.297691" /><rect
                 style="fill:#ce5700;fill-opacity:1;stroke:none;stroke-width:1.43115;stroke-dasharray:none;stroke-opacity:1"
                 id="rect2624"
                 width="6.5688457"
                 height="8.5688496"
                 x="86.576027"
                 y="73.267456" /></g><g
               id="g2634"
               transform="matrix(0.88032352,0,0,0.87948137,-74.920537,29.569794)"><rect
                 style="fill:#ce5700;fill-opacity:1;stroke:none;stroke-width:1.79021;stroke-dasharray:none;stroke-opacity:1"
                 id="rect2628"
                 width="6.2097859"
                 height="8.2097816"
                 x="56.648609"
                 y="73.446991" /><rect
                 style="fill:#ce5700;fill-opacity:1;stroke:none;stroke-width:1.49162;stroke-dasharray:none;stroke-opacity:1"
                 id="rect2630"
                 width="14.43048"
                 height="8.5083818"
                 x="67.244629"
                 y="73.297691" /><rect
                 style="fill:#ce5700;fill-opacity:1;stroke:none;stroke-width:1.43115;stroke-dasharray:none;stroke-opacity:1"
                 id="rect2632"
                 width="6.5688457"
                 height="8.5688496"
                 x="86.576027"
                 y="73.267456" /></g><g
               id="g2642"
               transform="matrix(0.88032352,0,0,0.87948137,-74.920537,15.239464)"><rect
                 style="fill:#ce5700;fill-opacity:1;stroke:none;stroke-width:1.79021;stroke-dasharray:none;stroke-opacity:1"
                 id="rect2636"
                 width="6.2097859"
                 height="8.2097816"
                 x="56.648609"
                 y="73.446991" /><rect
                 style="fill:#ce5700;fill-opacity:1;stroke:none;stroke-width:1.49162;stroke-dasharray:none;stroke-opacity:1"
                 id="rect2638"
                 width="14.43048"
                 height="8.5083818"
                 x="67.244629"
                 y="73.297691" /><rect
                 style="fill:#ce5700;fill-opacity:1;stroke:none;stroke-width:1.43115;stroke-dasharray:none;stroke-opacity:1"
                 id="rect2640"
                 width="6.5688457"
                 height="8.5688496"
                 x="86.576027"
                 y="73.267456" /></g><g
               id="g2650"
               transform="matrix(0.88032352,0,0,0.87948137,-74.920537,43.620148)"><rect
                 style="fill:#ce5700;fill-opacity:1;stroke:none;stroke-width:1.79021;stroke-dasharray:none;stroke-opacity:1"
                 id="rect2644"
                 width="6.2097859"
                 height="8.2097816"
                 x="56.648609"
                 y="73.446991" /><rect
                 style="fill:#ce5700;fill-opacity:1;stroke:none;stroke-width:1.49162;stroke-dasharray:none;stroke-opacity:1"
                 id="rect2646"
                 width="14.43048"
                 height="8.5083818"
                 x="67.244629"
                 y="73.297691" /><rect
                 style="fill:#ce5700;fill-opacity:1;stroke:none;stroke-width:1.43115;stroke-dasharray:none;stroke-opacity:1"
                 id="rect2648"
                 width="6.5688457"
                 height="8.5688496"
                 x="86.576027"
                 y="73.267456" /></g></g><path
             id="path4912"
             style="fill:#ce5700;fill-opacity:1;stroke:#ce5700;stroke-width:0.67326;stroke-dasharray:none;stroke-opacity:1"
             d="m 187.66602,23.974609 -5.5,5.773438 -5.5,5.775391 h -11.2168 -11.21875 l -0.10156,5.638671 -0.10157,5.638672 H 86.853516 19.679688 L 19.578125,41.345703 19.474609,35.892578 H 8.2578125 -2.9589844 l -5.5,-5.773437 -5.4999996,-5.775391 -1.466797,1.615234 c -0.807045,0.887981 -3.298831,3.485655 -5.53711,5.773438 l -4.070312,4.160156 H -27.75 -30.46875 v 53.521484 47.005858 a 129.78382,28.555657 0 0 0 -0.150391,0.0625 v 2.29688 A 129.78382,28.555657 0 0 1 87.162109,122.00781 129.78382,28.555657 0 0 1 204.3418,138.35742 v -2.30078 a 129.78382,28.555657 0 0 0 -0.36328,-0.15039 c 0.10901,-7.22571 0.19726,-23.64468 0.19726,-46.976562 v -53.40625 h -2.71875 -2.7168 l -4.07031,-4.160157 c -2.23831,-2.287773 -4.73006,-4.885456 -5.53711,-5.773437 z m 0.004,2.673829 c 0.24982,0 2.655,2.322663 5.3457,5.160156 l 4.89258,5.158203 2.30078,0.109375 2.30079,0.111328 V 80.078125 122.9668 l -23.23438,0.0957 c -18.3909,0.0754 -23.27181,-0.001 -23.41211,-0.36914 -0.0975,-0.25573 -0.13449,-19.6001 -0.082,-42.986329 l 0.0957,-42.519531 10.79883,-0.185547 10.79883,-0.185547 4.87109,-5.083984 c 2.67883,-2.796173 5.07441,-5.083985 5.32422,-5.083984 z m -201.632811,0.371093 c 0.249816,0 2.645425,2.287805 5.3242191,5.083985 L -3.7675781,37.1875 7.03125,37.371094 17.830078,37.556641 v 42.890625 42.890624 l -23.2343749,0.0957 c -18.3909111,0.0754 -23.2718121,-0.003 -23.4121091,-0.37109 -0.09745,-0.25573 -0.134406,-19.59814 -0.08203,-42.984375 l 0.0957,-42.521484 2.300781,-0.109375 2.300781,-0.111328 4.892578,-5.158204 c 2.690785,-2.837494 5.095893,-5.158203 5.345703,-5.158203 z m 87.677735,26.277344 c 0.20356,0 -0.0458,0.238663 -0.554688,0.529297 -0.508882,0.290622 -1.091372,0.527344 -1.294922,0.527344 -0.203552,0 0.0458,-0.236722 0.554688,-0.527344 0.508882,-0.290634 1.091362,-0.529297 1.294922,-0.529297 z m 2.960937,1.636719 h 3.695313 v 64.867186 a 129.78382,28.555657 0 0 0 -3.802735,0.0508 c -0.0069,-6.93081 -0.0098,-14.62243 0.01172,-23.874998 z m 5.302735,0 h 4.46875 V 92.695312 119.7207 a 129.78382,28.555657 0 0 0 -4.46875,0.0586 z m 5.941406,0 h 4.519531 v 37.761718 27.082028 a 129.78382,28.555657 0 0 0 -4.519531,-0.0566 V 92.695312 Z m 5.990234,0 h 3.490235 v 41.412109 l 0.002,23.496097 a 129.78382,28.555657 0 0 0 -3.492188,-0.0449 V 92.695312 Z m 6.082032,0.5625 c 0.203552,0.0024 2.868632,1.310134 5.921872,2.90625 l 5.55078,2.902344 0.11524,32.679687 c 0.034,9.717295 0.0266,18.811435 -0.004,26.281245 A 129.78382,28.555657 0 0 0 99.628906,119.86914 C 99.287991,93.220601 99.499837,55.48991 99.992188,55.496094 Z m -25.90625,0.02539 v 42.300782 c 0,9.694274 -0.03549,15.661494 -0.06641,22.062504 a 129.78382,28.555657 0 0 0 -11.898437,0.41992 c -0.0203,-7.03731 -0.02208,-15.56364 0.0078,-24.476565 l 0.113282,-34.164063 5.921874,-3.070312 z m 32.357422,0.769532 c 0.30101,0.07561 0.85983,0.346346 1.88867,0.867187 0.60148,0.304503 1.06508,0.487273 1.40235,0.587891 -0.0379,0.106513 -0.0606,0.221948 -0.0606,0.341797 v 0.158203 c 0,0.0155 9e-4,0.0296 0.002,0.04492 -1.01253,-0.64193 -2.91103,-1.530673 -3.2793,-1.416016 -0.16329,0.05084 -0.29687,-0.07398 -0.29687,-0.277344 0,-0.262425 0.0427,-0.382248 0.34375,-0.30664 z m -38.464844,0.103515 c 0,0.101685 -0.491245,0.437785 -1.091797,0.748047 -0.998282,0.515748 -1.84296,0.762262 -1.46875,0.427734 0.380852,-0.340438 2.560547,-1.341379 2.560547,-1.175781 z m 43.585934,2.353516 c 0.19163,0.133197 0.247,0.21601 0.45313,0.34375 1.05596,0.654339 1.14304,0.790713 0.47265,0.740234 -0.45164,-0.03398 -0.90877,-0.292909 -1.01757,-0.576172 -0.0347,-0.09029 -0.12244,-0.133043 -0.19532,-0.189453 0.11732,-0.08438 0.21512,-0.192256 0.28711,-0.318359 z m 1.75196,2.841797 h 20.35547 20.35546 v 39.748046 22.50195 a 129.78382,28.555657 0 0 0 -40.8164,-3.51172 c -0.002,-6.00204 -0.009,-11.85814 0.01,-19.35937 z m -93.636722,0.36914 h 20.355468 20.355469 v 39.748046 18.66602 a 129.78382,28.555657 0 0 0 -40.818359,3.60742 c -0.0063,-6.61112 -0.0076,-13.86918 0.01367,-22.64258 z" /></g></g><g
         id="g8479"
         transform="matrix(1.0159085,0,0,1,16.361371,26.329555)"><path
           id="path8241"
           style="fill:#800000;fill-opacity:1;stroke:none;stroke-width:0.762377;stroke-dasharray:none;stroke-opacity:1"
           d="M 136.49418,131.10923 A 145.74299,54.330954 0 0 0 -9.2496994,185.4397 145.74299,54.330954 0 0 0 10.117708,212.33637 145.74299,54.330954 0 0 1 -0.56721015,192.06537 145.74299,54.330954 0 0 1 145.17666,137.73489 145.74299,54.330954 0 0 1 271.52289,165.00402 145.74299,54.330954 0 0 0 136.49418,131.10923 Z" /><path
           id="path8246"
           style="fill:#4d4d4d;fill-opacity:1;stroke:none;stroke-width:0.762377;stroke-dasharray:none;stroke-opacity:1"
           d="M 146.41711,139.06009 A 145.74299,54.330954 0 0 0 0.6732329,193.39057 145.74299,54.330954 0 0 0 20.040633,220.28724 145.74299,54.330954 0 0 1 9.3557148,200.01624 145.74299,54.330954 0 0 1 155.09959,145.68576 a 145.74299,54.330954 0 0 1 126.34622,27.26913 145.74299,54.330954 0 0 0 -135.0287,-33.8948 z" /></g></g><text
       xml:space="preserve"
       style="font-style:normal;font-variant:normal;font-weight:bold;font-stretch:normal;font-size:18.0146px;font-family:Barcode;-inkscape-font-specification:'Barcode Bold';fill:#4d4d4d;fill-opacity:1;stroke:none;stroke-width:1.68886;stroke-linejoin:round;stroke-miterlimit:4.3;stroke-dasharray:none;stroke-opacity:1"
       x="63.746777"
       y="147.58812"
       id="text3431"
       transform="scale(0.84443219,1.1842277)"><tspan
         id="tspan3429"
         x="63.746777"
         y="147.58812"
         style="fill:#4d4d4d;stroke-width:1.68886">Забайкальский краевой</tspan></text><text
       xml:space="preserve"
       style="font-style:normal;font-variant:normal;font-weight:normal;font-stretch:normal;font-size:38.3414px;font-family:Haettenschweiler;-inkscape-font-specification:Haettenschweiler;fill:#ce5700;fill-opacity:1;stroke:none;stroke-width:2.05441;stroke-linejoin:round;stroke-miterlimit:4.3;stroke-dasharray:none;stroke-opacity:1"
       x="52.584145"
       y="213.65663"
       id="text3589"
       transform="scale(1.028337,0.97244385)"><tspan
         id="tspan3587"
         x="52.584145"
         y="213.65663"
         style="font-style:normal;font-variant:normal;font-weight:normal;font-stretch:normal;font-family:Haettenschweiler;-inkscape-font-specification:Haettenschweiler;fill:#ce5700;fill-opacity:1;stroke:none;stroke-width:2.05441;stroke-dasharray:none">онкологический</tspan></text><text
       xml:space="preserve"
       style="font-style:normal;font-variant:normal;font-weight:bold;font-stretch:normal;font-size:35.6977px;font-family:'High Tower Text';-inkscape-font-specification:'High Tower Text Bold';fill:#4d4d4d;fill-opacity:1;stroke:none;stroke-width:1.7473;stroke-linejoin:round;stroke-miterlimit:4.3;stroke-dasharray:none;stroke-opacity:1"
       x="61.793449"
       y="212.9073"
       id="text3593"
       transform="scale(0.86883607,1.1509651)"><tspan
         id="tspan3591"
         x="61.793449"
         y="212.9073"
         style="font-style:normal;font-variant:normal;font-weight:bold;font-stretch:normal;font-size:35.6976px;font-family:'High Tower Text';-inkscape-font-specification:'High Tower Text Bold';fill:#4d4d4d;stroke:none;stroke-width:1.7473;stroke-dasharray:none">ДИСПАНСЕР</tspan></text></g></svg>
