<?xml version="1.0" encoding="UTF-8" standalone="no"?>
<!-- Created with Inkscape (http://www.inkscape.org/) -->

<svg
   xmlns:dc="http://purl.org/dc/elements/1.1/"
   xmlns:cc="http://creativecommons.org/ns#"
   xmlns:rdf="http://www.w3.org/1999/02/22-rdf-syntax-ns#"
   xmlns:svg="http://www.w3.org/2000/svg"
   xmlns="http://www.w3.org/2000/svg"
   xmlns:sodipodi="http://sodipodi.sourceforge.net/DTD/sodipodi-0.dtd"
   xmlns:inkscape="http://www.inkscape.org/namespaces/inkscape"
   id="svg2"
   version="1.1"
   inkscape:version="0.48.2 r9819"
   width="600"
   height="600"
   sodipodi:docname="orange01.png">
  <metadata
     id="metadata8">
    <rdf:RDF>
      <cc:Work
         rdf:about="">
        <dc:format>image/svg+xml</dc:format>
        <dc:type
           rdf:resource="http://purl.org/dc/dcmitype/StillImage" />
        <dc:title></dc:title>
      </cc:Work>
    </rdf:RDF>
  </metadata>
  <defs
     id="defs6" />
  <sodipodi:namedview
     pagecolor="#ffffff"
     bordercolor="#666666"
     borderopacity="1"
     objecttolerance="10"
     gridtolerance="10"
     guidetolerance="10"
     inkscape:pageopacity="0"
     inkscape:pageshadow="2"
     inkscape:window-width="1318"
     inkscape:window-height="899"
     id="namedview4"
     showgrid="false"
     inkscape:zoom="0.45358084"
     inkscape:cx="313.12991"
     inkscape:cy="300"
     inkscape:window-x="698"
     inkscape:window-y="40"
     inkscape:window-maximized="0"
     inkscape:current-layer="svg2"
     borderlayer="true"
     inkscape:showpageshadow="false" />
  <g
     id="g2987"
     transform="matrix(0.33333333,0,0,0.33333333,200,200)">
    <path
       style="fill:#f59b1c"
       d="m 0,555 0,-45 4.25,-0.0136 C 11.005003,509.96464 13,509.11317 13,506.25179 13,503.10392 5.1721918,495 2.1315789,495 0.90350877,495 0,494.3642 0,493.5 0,492.39288 1.1578383,492 4.4205447,492 c 5.0142,0 4.917592,0.19393 6.0970623,-12.23948 0.35163,-3.70671 1.05932,-6.99905 1.572644,-7.3163 0.513324,-0.31725 2.210621,0.46552 3.77177,1.73948 l 2.838455,2.3163 -0.100238,16 -0.100238,16 5,0.68071 c 2.75,0.37439 9.05,1.18622 14,1.80406 11.984002,1.49581 26.785128,6.56206 42.465814,14.53556 28.555106,14.52003 46.351066,31.39588 58.517556,55.49204 2.36391,4.68181 4.99795,10.86931 5.85342,13.75 L 145.8922,600 72.9461,600 0,600 0,555 z m 484,44.16516 c 0,-1.71974 4.31349,-13.89462 7.10513,-20.05431 9.07452,-20.02276 29.06285,-41.01635 49.96166,-52.47437 13.30159,-7.29274 33.47393,-13.22717 54.68321,-16.08704 l 4.25,-0.57308 0,45.01182 0,45.01182 -58,0 c -31.9,0 -58,-0.37568 -58,-0.83484 z M 457,541.1662 c 0,-1.52415 12.92733,-26.45812 14.81757,-28.57983 1.02231,-1.1475 2.42876,-3.53097 3.12544,-5.2966 0.69668,-1.76563 3.22228,-5.72865 5.61245,-8.80672 2.39018,-3.07807 4.60161,-6.40258 4.91431,-7.3878 0.31269,-0.98522 2.32825,-3.20545 4.479,-4.93384 2.15075,-1.72839 4.16391,-3.93428 4.47367,-4.90197 0.30977,-0.96769 2.49093,-2.97467 4.84703,-4.45995 2.35609,-1.48529 5.28134,-3.84779 6.50055,-5.25 1.21922,-1.40222 3.05904,-2.54949 4.08851,-2.54949 1.02946,0 3.02776,-0.90932 4.44066,-2.0207 1.87355,-1.47374 3.87858,-1.97435 7.40736,-1.84945 2.66115,0.0942 5.80752,-0.43394 6.99193,-1.17362 1.82326,-1.13864 3.64489,-1.08061 11.87938,0.37843 21.6764,3.84077 36.38358,12.69146 43.55609,26.21177 2.61217,4.92399 3.19469,5.09062 10.28093,2.94096 5.28239,-1.60246 6.16437,-1.43928 5.24004,0.96948 C 599.24003,495.53805 597.68659,496 594.46564,496 589.27613,496 586,497.36697 586,499.5323 c 0,2.80885 -7.26874,9.47459 -13.85761,12.70802 L 565.5,515.5 l -21.63652,-0.30229 -21.63653,-0.30229 -12.36347,3.67367 C 497.5328,522.23301 476.15251,531.72521 465.07885,538.4521 459.25607,541.98926 457,542.74718 457,541.1662 z M 285.8625,435.98958 c -16.22247,-2.55977 -35.17288,-9.39123 -48.56146,-17.506 -26.80481,-16.24631 -44.4755,-39.01583 -51.9838,-66.98358 -2.4381,-9.08172 -2.69071,-11.69881 -2.75093,-28.5 -0.0545,-15.19318 0.27301,-19.75123 1.832,-25.5 9.51727,-35.09474 36.58646,-64.29533 72.15658,-77.8381 10.34612,-3.93913 30.18672,-8.27084 41.94511,-9.15769 13.75846,-1.03769 14.5,-1.25152 14.5,-4.1811 0,-1.72629 -1.47483,-4.0611 -4.43534,-7.02161 l -4.43535,-4.43535 -7.31465,0.69648 C 288.73026,196.33241 286,197.33459 286,199.5323 c 0,2.80885 -7.26874,9.47459 -13.85761,12.70802 L 265.5,215.5 l -21.63652,-0.30229 -21.63653,-0.30229 -12.36347,3.66525 c -11.56851,3.42957 -35.06021,13.96558 -47.05279,21.10313 -2.57912,1.535 -5.01026,2.46996 -5.40254,2.07768 -0.82671,-0.8267 12.12775,-27.11142 14.21609,-28.84459 0.76948,-0.63861 2.24965,-3.08403 3.28927,-5.43427 1.03962,-2.35023 3.70514,-6.5692 5.92338,-9.37548 2.21824,-2.80628 4.29601,-5.93053 4.61729,-6.94276 0.32127,-1.01224 2.34384,-3.25458 4.49459,-4.98297 2.15075,-1.72839 4.16391,-3.93428 4.47367,-4.90197 0.30977,-0.96769 2.49093,-2.97467 4.84703,-4.45995 2.35609,-1.48529 5.28134,-3.84779 6.50055,-5.25 1.21922,-1.40222 3.05904,-2.54949 4.08851,-2.54949 1.02946,0 3.02776,-0.90932 4.44066,-2.0207 1.87355,-1.47374 3.87858,-1.97435 7.40736,-1.84945 2.66115,0.0942 5.80752,-0.43394 6.99193,-1.17362 1.82326,-1.13864 3.64489,-1.08061 11.87938,0.37843 21.74032,3.8521 36.49182,12.75425 43.55781,26.28603 2.59808,4.97548 1.74225,4.81378 12.86433,2.43063 2.475,-0.53032 6.15175,-0.98382 8.17054,-1.00777 4.14582,-0.0492 4.19787,-0.16876 5.34707,-12.28303 0.35163,-3.70671 1.05932,-6.99905 1.57264,-7.3163 0.51332,-0.31725 2.21062,0.46552 3.77177,1.73948 l 2.83846,2.3163 -0.10024,16 -0.10024,16 5,0.68071 c 2.75,0.37439 9.05,1.18622 14,1.80406 11.984,1.49581 26.78513,6.56206 42.46581,14.53556 28.63311,14.55969 46.34669,31.38552 58.60669,55.66951 6.47192,12.81925 8.52935,20.99867 9.13336,36.31016 0.79584,20.17397 -2.70536,36.24297 -12.20158,56 -15.22514,31.67615 -47.02248,52.46033 -92.59112,60.52177 -13.79072,2.43969 -46.83652,3.57951 -57.05066,1.96781 z M 0,68.643577 0,0 l 72.883369,0 72.883371,0 0.69644,2.25 c 0.38305,1.2375 0.93474,8.1 1.22598,15.25 0.8208,20.150505 -2.67414,36.212759 -12.18488,56 C 117.18609,111.61129 73.545599,134.5541 15.25,136.72044 L 0,137.28715 0,68.643577 z m 585.8625,67.284493 c -15.67382,-2.30219 -35.07979,-9.2733 -48.56146,-17.44449 C 510.5023,102.24095 492.85024,79.499372 485.30824,51.5 482.84341,42.349431 482.60974,39.886081 482.5573,22.5 482.5258,12.05 482.82338,2.7125 483.21862,1.75 483.89137,0.11169287 487.64105,0 541.96862,0 L 600,0 l 0,68.5 0,68.5 -4.25,-0.12194 c -2.3375,-0.0671 -6.78687,-0.49456 -9.8875,-0.94999 z"
       id="path2991"
       inkscape:connector-curvature="0" />
    <path
       style="fill:#4a7736"
       d="m 457,540.6662 c 0,-1.1671 13.30692,-26.38419 14.81757,-28.07983 1.02231,-1.1475 2.42876,-3.53097 3.12544,-5.2966 0.69668,-1.76563 3.22228,-5.72865 5.61245,-8.80672 2.39018,-3.07807 4.60161,-6.40258 4.91431,-7.3878 0.31269,-0.98522 2.32825,-3.20545 4.479,-4.93384 2.15075,-1.72839 4.16391,-3.93428 4.47367,-4.90197 0.30977,-0.96769 2.49093,-2.97467 4.84703,-4.45995 2.35609,-1.48529 5.28134,-3.84779 6.50055,-5.25 1.21922,-1.40222 3.05904,-2.54949 4.08851,-2.54949 1.02946,0 3.02776,-0.90932 4.44066,-2.0207 1.87355,-1.47374 3.87858,-1.97435 7.40736,-1.84945 2.66115,0.0942 5.80752,-0.43394 6.99193,-1.17362 1.82326,-1.13864 3.64489,-1.08061 11.87938,0.37843 10.84738,1.92201 20.18468,5.2792 28.42214,10.21908 6.82012,4.08992 9.77688,7.17376 14.74578,15.37957 l 3.89559,6.4333 -1.77429,3.67237 c -3.57235,7.39391 -14.38103,14.25661 -24.43183,15.51238 -2.84766,0.35579 -13.02579,0.14207 -22.61807,-0.47494 l -17.4405,-1.12183 -13.42735,4.13576 c -12.45999,3.83781 -34.74363,13.96707 -45.07695,20.49022 C 459.45223,540.73961 457,541.61054 457,540.6662 z M 18,533.99321 c -0.825,-0.56574 -5.1,-0.94853 -9.5,-0.85066 -7.96762011,0.17724 -8.00128071,0.16719 -8.31642235,-2.4823 C -0.09622096,528.30791 0.20968962,528 2.8265889,528 c 1.6363946,0 3.2034557,-0.63591 3.5052733,-1.42244 0.300212,-0.78234 1.5555634,-1.56984 2.78967,-1.75 1.5050018,-0.2197 2.5218088,-1.31537 3.0880548,-3.32756 1.203308,-4.27603 1.362133,-16.69621 0.238325,-18.63712 C 10.71894,499.8768 2.9589484,494.07852 1.460907,494.65337 0.56840036,494.99586 0,494.6132 0,493.66986 c 0,-1.20551 0.76565111,-1.41987 3.4915364,-0.97752 5.1183587,0.83059 6.2089662,-0.66053 6.9973816,-9.56715 0.905885,-10.23365 1.421922,-10.99032 5.459448,-8.00524 2.694164,1.99188 3.098143,2.81925 2.620764,5.36746 -0.310405,1.65692 -0.62891,10.44361 -0.707788,19.52598 -0.129833,14.94966 0.05475,16.90181 1.949239,20.61532 2.172206,4.25787 4.542956,5.37129 11.436864,5.37129 2.457777,0 2.787972,0.2524 1.833982,1.40189 -0.639905,0.77103 -2.295744,1.68607 -3.679644,2.0334 -1.885052,0.47312 -2.439126,1.18751 -2.208982,2.84812 0.268351,1.93628 -0.198635,2.24958 -3.692801,2.4775 -2.2,0.1435 -4.675,-0.20196 -5.5,-0.7677 z m 579.70683,-3.75261 c -1.66457,-1.85052 -1.67223,-2.0399 -0.10687,-2.64058 2.15722,-0.82781 2.64105,-0.30053 2.23084,2.43116 -0.32943,2.1938 -0.33821,2.19466 -2.12397,0.20942 z m -2.53517,-36.21912 c 1.46941,-0.44363 3.15691,-1.10651 3.75,-1.47306 0.59499,-0.36773 1.07834,0.0323 1.07834,0.89256 0,1.15015 -0.98349,1.53648 -3.75,1.47307 -3.48598,-0.0799 -3.5619,-0.14274 -1.07834,-0.89257 z M 157,240.6662 c 0,-1.1671 13.30692,-26.38419 14.81757,-28.07983 1.02231,-1.1475 2.42876,-3.53097 3.12544,-5.2966 0.69668,-1.76563 3.22228,-5.72865 5.61245,-8.80672 2.39018,-3.07807 4.60161,-6.40258 4.91431,-7.3878 0.31269,-0.98522 2.32825,-3.20545 4.479,-4.93384 2.15075,-1.72839 4.16391,-3.93428 4.47367,-4.90197 0.30977,-0.96769 2.49093,-2.97467 4.84703,-4.45995 2.35609,-1.48529 5.28134,-3.84779 6.50055,-5.25 1.21922,-1.40222 3.05904,-2.54949 4.08851,-2.54949 1.02946,0 3.02776,-0.90932 4.44066,-2.0207 1.87355,-1.47374 3.87858,-1.97435 7.40736,-1.84945 2.66115,0.0942 5.80752,-0.43394 6.99193,-1.17362 1.82326,-1.13864 3.64489,-1.08061 11.87938,0.37843 10.84738,1.92201 20.18468,5.2792 28.42214,10.21908 6.82012,4.08992 9.77688,7.17376 14.74578,15.37957 l 3.89559,6.4333 -1.77429,3.67237 c -3.57235,7.39391 -14.38103,14.25661 -24.43183,15.51238 -2.84766,0.35579 -13.02579,0.14207 -22.61807,-0.47494 l -17.4405,-1.12183 -13.42735,4.13576 c -12.45999,3.83781 -34.74363,13.96707 -45.07695,20.49022 C 159.45223,240.73961 157,241.61054 157,240.6662 z m 161,-6.63998 c -0.825,-0.54758 -4.875,-1.01867 -9,-1.04687 -6.44316,-0.044 -7.92274,-0.39779 -10.5,-2.51035 l -3,-2.45907 5.14301,-0.005 c 3.52087,-0.003 5.31517,-0.45362 5.68885,-1.42741 0.30021,-0.78234 1.55557,-1.56984 2.78967,-1.75 2.80282,-0.40916 3.87258,-3.88376 4.10329,-13.32756 0.19717,-8.07123 -0.21392,-9.0179 -6.0083,-13.83604 -3.94736,-3.28232 -4.6928,-3.52769 -9.5,-3.12712 -3.83929,0.31992 -4.55649,0.20074 -2.71652,-0.4514 1.375,-0.48734 4.8074,-0.93094 7.62756,-0.98576 2.82015,-0.0548 5.5877,-0.66218 6.15012,-1.34968 0.56241,-0.6875 1.33946,-4.67442 1.72679,-8.85983 0.92715,-10.01858 1.4307,-10.73731 5.4439,-7.77022 2.69416,1.99188 3.09814,2.81925 2.62076,5.36746 -0.31041,1.65692 -0.62891,10.44361 -0.70779,19.52598 -0.12983,14.94966 0.0548,16.90181 1.94924,20.61532 2.17221,4.25787 4.54296,5.37129 11.43686,5.37129 2.45778,0 2.78798,0.2524 1.83399,1.40189 -0.63991,0.77103 -2.29575,1.68607 -3.67965,2.0334 -1.88505,0.47312 -2.43912,1.18751 -2.20898,2.84812 0.26835,1.93628 -0.19863,2.24958 -3.6928,2.4775 -2.2,0.1435 -4.675,-0.18711 -5.5,-0.73469 z"
       id="path2989"
       inkscape:connector-curvature="0" />
  </g>
  <g
     transform="matrix(0.33333333,0,0,0.33333333,0,2e-6)"
     id="g2995">
    <path
       inkscape:connector-curvature="0"
       id="path2997"
       d="m 0,555 0,-45 4.25,-0.0136 C 11.005003,509.96464 13,509.11317 13,506.25179 13,503.10392 5.1721918,495 2.1315789,495 0.90350877,495 0,494.3642 0,493.5 0,492.39288 1.1578383,492 4.4205447,492 c 5.0142,0 4.917592,0.19393 6.0970623,-12.23948 0.35163,-3.70671 1.05932,-6.99905 1.572644,-7.3163 0.513324,-0.31725 2.210621,0.46552 3.77177,1.73948 l 2.838455,2.3163 -0.100238,16 -0.100238,16 5,0.68071 c 2.75,0.37439 9.05,1.18622 14,1.80406 11.984002,1.49581 26.785128,6.56206 42.465814,14.53556 28.555106,14.52003 46.351066,31.39588 58.517556,55.49204 2.36391,4.68181 4.99795,10.86931 5.85342,13.75 L 145.8922,600 72.9461,600 0,600 0,555 z m 484,44.16516 c 0,-1.71974 4.31349,-13.89462 7.10513,-20.05431 9.07452,-20.02276 29.06285,-41.01635 49.96166,-52.47437 13.30159,-7.29274 33.47393,-13.22717 54.68321,-16.08704 l 4.25,-0.57308 0,45.01182 0,45.01182 -58,0 c -31.9,0 -58,-0.37568 -58,-0.83484 z M 457,541.1662 c 0,-1.52415 12.92733,-26.45812 14.81757,-28.57983 1.02231,-1.1475 2.42876,-3.53097 3.12544,-5.2966 0.69668,-1.76563 3.22228,-5.72865 5.61245,-8.80672 2.39018,-3.07807 4.60161,-6.40258 4.91431,-7.3878 0.31269,-0.98522 2.32825,-3.20545 4.479,-4.93384 2.15075,-1.72839 4.16391,-3.93428 4.47367,-4.90197 0.30977,-0.96769 2.49093,-2.97467 4.84703,-4.45995 2.35609,-1.48529 5.28134,-3.84779 6.50055,-5.25 1.21922,-1.40222 3.05904,-2.54949 4.08851,-2.54949 1.02946,0 3.02776,-0.90932 4.44066,-2.0207 1.87355,-1.47374 3.87858,-1.97435 7.40736,-1.84945 2.66115,0.0942 5.80752,-0.43394 6.99193,-1.17362 1.82326,-1.13864 3.64489,-1.08061 11.87938,0.37843 21.6764,3.84077 36.38358,12.69146 43.55609,26.21177 2.61217,4.92399 3.19469,5.09062 10.28093,2.94096 5.28239,-1.60246 6.16437,-1.43928 5.24004,0.96948 C 599.24003,495.53805 597.68659,496 594.46564,496 589.27613,496 586,497.36697 586,499.5323 c 0,2.80885 -7.26874,9.47459 -13.85761,12.70802 L 565.5,515.5 l -21.63652,-0.30229 -21.63653,-0.30229 -12.36347,3.67367 C 497.5328,522.23301 476.15251,531.72521 465.07885,538.4521 459.25607,541.98926 457,542.74718 457,541.1662 z M 285.8625,435.98958 c -16.22247,-2.55977 -35.17288,-9.39123 -48.56146,-17.506 -26.80481,-16.24631 -44.4755,-39.01583 -51.9838,-66.98358 -2.4381,-9.08172 -2.69071,-11.69881 -2.75093,-28.5 -0.0545,-15.19318 0.27301,-19.75123 1.832,-25.5 9.51727,-35.09474 36.58646,-64.29533 72.15658,-77.8381 10.34612,-3.93913 30.18672,-8.27084 41.94511,-9.15769 13.75846,-1.03769 14.5,-1.25152 14.5,-4.1811 0,-1.72629 -1.47483,-4.0611 -4.43534,-7.02161 l -4.43535,-4.43535 -7.31465,0.69648 C 288.73026,196.33241 286,197.33459 286,199.5323 c 0,2.80885 -7.26874,9.47459 -13.85761,12.70802 L 265.5,215.5 l -21.63652,-0.30229 -21.63653,-0.30229 -12.36347,3.66525 c -11.56851,3.42957 -35.06021,13.96558 -47.05279,21.10313 -2.57912,1.535 -5.01026,2.46996 -5.40254,2.07768 -0.82671,-0.8267 12.12775,-27.11142 14.21609,-28.84459 0.76948,-0.63861 2.24965,-3.08403 3.28927,-5.43427 1.03962,-2.35023 3.70514,-6.5692 5.92338,-9.37548 2.21824,-2.80628 4.29601,-5.93053 4.61729,-6.94276 0.32127,-1.01224 2.34384,-3.25458 4.49459,-4.98297 2.15075,-1.72839 4.16391,-3.93428 4.47367,-4.90197 0.30977,-0.96769 2.49093,-2.97467 4.84703,-4.45995 2.35609,-1.48529 5.28134,-3.84779 6.50055,-5.25 1.21922,-1.40222 3.05904,-2.54949 4.08851,-2.54949 1.02946,0 3.02776,-0.90932 4.44066,-2.0207 1.87355,-1.47374 3.87858,-1.97435 7.40736,-1.84945 2.66115,0.0942 5.80752,-0.43394 6.99193,-1.17362 1.82326,-1.13864 3.64489,-1.08061 11.87938,0.37843 21.74032,3.8521 36.49182,12.75425 43.55781,26.28603 2.59808,4.97548 1.74225,4.81378 12.86433,2.43063 2.475,-0.53032 6.15175,-0.98382 8.17054,-1.00777 4.14582,-0.0492 4.19787,-0.16876 5.34707,-12.28303 0.35163,-3.70671 1.05932,-6.99905 1.57264,-7.3163 0.51332,-0.31725 2.21062,0.46552 3.77177,1.73948 l 2.83846,2.3163 -0.10024,16 -0.10024,16 5,0.68071 c 2.75,0.37439 9.05,1.18622 14,1.80406 11.984,1.49581 26.78513,6.56206 42.46581,14.53556 28.63311,14.55969 46.34669,31.38552 58.60669,55.66951 6.47192,12.81925 8.52935,20.99867 9.13336,36.31016 0.79584,20.17397 -2.70536,36.24297 -12.20158,56 -15.22514,31.67615 -47.02248,52.46033 -92.59112,60.52177 -13.79072,2.43969 -46.83652,3.57951 -57.05066,1.96781 z M 0,68.643577 0,0 l 72.883369,0 72.883371,0 0.69644,2.25 c 0.38305,1.2375 0.93474,8.1 1.22598,15.25 0.8208,20.150505 -2.67414,36.212759 -12.18488,56 C 117.18609,111.61129 73.545599,134.5541 15.25,136.72044 L 0,137.28715 0,68.643577 z m 585.8625,67.284493 c -15.67382,-2.30219 -35.07979,-9.2733 -48.56146,-17.44449 C 510.5023,102.24095 492.85024,79.499372 485.30824,51.5 482.84341,42.349431 482.60974,39.886081 482.5573,22.5 482.5258,12.05 482.82338,2.7125 483.21862,1.75 483.89137,0.11169287 487.64105,0 541.96862,0 L 600,0 l 0,68.5 0,68.5 -4.25,-0.12194 c -2.3375,-0.0671 -6.78687,-0.49456 -9.8875,-0.94999 z"
       style="fill:#f59b1c" />
    <path
       inkscape:connector-curvature="0"
       id="path2999"
       d="m 457,540.6662 c 0,-1.1671 13.30692,-26.38419 14.81757,-28.07983 1.02231,-1.1475 2.42876,-3.53097 3.12544,-5.2966 0.69668,-1.76563 3.22228,-5.72865 5.61245,-8.80672 2.39018,-3.07807 4.60161,-6.40258 4.91431,-7.3878 0.31269,-0.98522 2.32825,-3.20545 4.479,-4.93384 2.15075,-1.72839 4.16391,-3.93428 4.47367,-4.90197 0.30977,-0.96769 2.49093,-2.97467 4.84703,-4.45995 2.35609,-1.48529 5.28134,-3.84779 6.50055,-5.25 1.21922,-1.40222 3.05904,-2.54949 4.08851,-2.54949 1.02946,0 3.02776,-0.90932 4.44066,-2.0207 1.87355,-1.47374 3.87858,-1.97435 7.40736,-1.84945 2.66115,0.0942 5.80752,-0.43394 6.99193,-1.17362 1.82326,-1.13864 3.64489,-1.08061 11.87938,0.37843 10.84738,1.92201 20.18468,5.2792 28.42214,10.21908 6.82012,4.08992 9.77688,7.17376 14.74578,15.37957 l 3.89559,6.4333 -1.77429,3.67237 c -3.57235,7.39391 -14.38103,14.25661 -24.43183,15.51238 -2.84766,0.35579 -13.02579,0.14207 -22.61807,-0.47494 l -17.4405,-1.12183 -13.42735,4.13576 c -12.45999,3.83781 -34.74363,13.96707 -45.07695,20.49022 C 459.45223,540.73961 457,541.61054 457,540.6662 z M 18,533.99321 c -0.825,-0.56574 -5.1,-0.94853 -9.5,-0.85066 -7.96762011,0.17724 -8.00128071,0.16719 -8.31642235,-2.4823 C -0.09622096,528.30791 0.20968962,528 2.8265889,528 c 1.6363946,0 3.2034557,-0.63591 3.5052733,-1.42244 0.300212,-0.78234 1.5555634,-1.56984 2.78967,-1.75 1.5050018,-0.2197 2.5218088,-1.31537 3.0880548,-3.32756 1.203308,-4.27603 1.362133,-16.69621 0.238325,-18.63712 C 10.71894,499.8768 2.9589484,494.07852 1.460907,494.65337 0.56840036,494.99586 0,494.6132 0,493.66986 c 0,-1.20551 0.76565111,-1.41987 3.4915364,-0.97752 5.1183587,0.83059 6.2089662,-0.66053 6.9973816,-9.56715 0.905885,-10.23365 1.421922,-10.99032 5.459448,-8.00524 2.694164,1.99188 3.098143,2.81925 2.620764,5.36746 -0.310405,1.65692 -0.62891,10.44361 -0.707788,19.52598 -0.129833,14.94966 0.05475,16.90181 1.949239,20.61532 2.172206,4.25787 4.542956,5.37129 11.436864,5.37129 2.457777,0 2.787972,0.2524 1.833982,1.40189 -0.639905,0.77103 -2.295744,1.68607 -3.679644,2.0334 -1.885052,0.47312 -2.439126,1.18751 -2.208982,2.84812 0.268351,1.93628 -0.198635,2.24958 -3.692801,2.4775 -2.2,0.1435 -4.675,-0.20196 -5.5,-0.7677 z m 579.70683,-3.75261 c -1.66457,-1.85052 -1.67223,-2.0399 -0.10687,-2.64058 2.15722,-0.82781 2.64105,-0.30053 2.23084,2.43116 -0.32943,2.1938 -0.33821,2.19466 -2.12397,0.20942 z m -2.53517,-36.21912 c 1.46941,-0.44363 3.15691,-1.10651 3.75,-1.47306 0.59499,-0.36773 1.07834,0.0323 1.07834,0.89256 0,1.15015 -0.98349,1.53648 -3.75,1.47307 -3.48598,-0.0799 -3.5619,-0.14274 -1.07834,-0.89257 z M 157,240.6662 c 0,-1.1671 13.30692,-26.38419 14.81757,-28.07983 1.02231,-1.1475 2.42876,-3.53097 3.12544,-5.2966 0.69668,-1.76563 3.22228,-5.72865 5.61245,-8.80672 2.39018,-3.07807 4.60161,-6.40258 4.91431,-7.3878 0.31269,-0.98522 2.32825,-3.20545 4.479,-4.93384 2.15075,-1.72839 4.16391,-3.93428 4.47367,-4.90197 0.30977,-0.96769 2.49093,-2.97467 4.84703,-4.45995 2.35609,-1.48529 5.28134,-3.84779 6.50055,-5.25 1.21922,-1.40222 3.05904,-2.54949 4.08851,-2.54949 1.02946,0 3.02776,-0.90932 4.44066,-2.0207 1.87355,-1.47374 3.87858,-1.97435 7.40736,-1.84945 2.66115,0.0942 5.80752,-0.43394 6.99193,-1.17362 1.82326,-1.13864 3.64489,-1.08061 11.87938,0.37843 10.84738,1.92201 20.18468,5.2792 28.42214,10.21908 6.82012,4.08992 9.77688,7.17376 14.74578,15.37957 l 3.89559,6.4333 -1.77429,3.67237 c -3.57235,7.39391 -14.38103,14.25661 -24.43183,15.51238 -2.84766,0.35579 -13.02579,0.14207 -22.61807,-0.47494 l -17.4405,-1.12183 -13.42735,4.13576 c -12.45999,3.83781 -34.74363,13.96707 -45.07695,20.49022 C 159.45223,240.73961 157,241.61054 157,240.6662 z m 161,-6.63998 c -0.825,-0.54758 -4.875,-1.01867 -9,-1.04687 -6.44316,-0.044 -7.92274,-0.39779 -10.5,-2.51035 l -3,-2.45907 5.14301,-0.005 c 3.52087,-0.003 5.31517,-0.45362 5.68885,-1.42741 0.30021,-0.78234 1.55557,-1.56984 2.78967,-1.75 2.80282,-0.40916 3.87258,-3.88376 4.10329,-13.32756 0.19717,-8.07123 -0.21392,-9.0179 -6.0083,-13.83604 -3.94736,-3.28232 -4.6928,-3.52769 -9.5,-3.12712 -3.83929,0.31992 -4.55649,0.20074 -2.71652,-0.4514 1.375,-0.48734 4.8074,-0.93094 7.62756,-0.98576 2.82015,-0.0548 5.5877,-0.66218 6.15012,-1.34968 0.56241,-0.6875 1.33946,-4.67442 1.72679,-8.85983 0.92715,-10.01858 1.4307,-10.73731 5.4439,-7.77022 2.69416,1.99188 3.09814,2.81925 2.62076,5.36746 -0.31041,1.65692 -0.62891,10.44361 -0.70779,19.52598 -0.12983,14.94966 0.0548,16.90181 1.94924,20.61532 2.17221,4.25787 4.54296,5.37129 11.43686,5.37129 2.45778,0 2.78798,0.2524 1.83399,1.40189 -0.63991,0.77103 -2.29575,1.68607 -3.67965,2.0334 -1.88505,0.47312 -2.43912,1.18751 -2.20898,2.84812 0.26835,1.93628 -0.19863,2.24958 -3.6928,2.4775 -2.2,0.1435 -4.675,-0.18711 -5.5,-0.73469 z"
       style="fill:#4a7736" />
  </g>
  <g
     id="g3001"
     transform="matrix(0.33333333,0,0,0.33333333,200,0)">
    <path
       style="fill:#f59b1c"
       d="m 0,555 0,-45 4.25,-0.0136 C 11.005003,509.96464 13,509.11317 13,506.25179 13,503.10392 5.1721918,495 2.1315789,495 0.90350877,495 0,494.3642 0,493.5 0,492.39288 1.1578383,492 4.4205447,492 c 5.0142,0 4.917592,0.19393 6.0970623,-12.23948 0.35163,-3.70671 1.05932,-6.99905 1.572644,-7.3163 0.513324,-0.31725 2.210621,0.46552 3.77177,1.73948 l 2.838455,2.3163 -0.100238,16 -0.100238,16 5,0.68071 c 2.75,0.37439 9.05,1.18622 14,1.80406 11.984002,1.49581 26.785128,6.56206 42.465814,14.53556 28.555106,14.52003 46.351066,31.39588 58.517556,55.49204 2.36391,4.68181 4.99795,10.86931 5.85342,13.75 L 145.8922,600 72.9461,600 0,600 0,555 z m 484,44.16516 c 0,-1.71974 4.31349,-13.89462 7.10513,-20.05431 9.07452,-20.02276 29.06285,-41.01635 49.96166,-52.47437 13.30159,-7.29274 33.47393,-13.22717 54.68321,-16.08704 l 4.25,-0.57308 0,45.01182 0,45.01182 -58,0 c -31.9,0 -58,-0.37568 -58,-0.83484 z M 457,541.1662 c 0,-1.52415 12.92733,-26.45812 14.81757,-28.57983 1.02231,-1.1475 2.42876,-3.53097 3.12544,-5.2966 0.69668,-1.76563 3.22228,-5.72865 5.61245,-8.80672 2.39018,-3.07807 4.60161,-6.40258 4.91431,-7.3878 0.31269,-0.98522 2.32825,-3.20545 4.479,-4.93384 2.15075,-1.72839 4.16391,-3.93428 4.47367,-4.90197 0.30977,-0.96769 2.49093,-2.97467 4.84703,-4.45995 2.35609,-1.48529 5.28134,-3.84779 6.50055,-5.25 1.21922,-1.40222 3.05904,-2.54949 4.08851,-2.54949 1.02946,0 3.02776,-0.90932 4.44066,-2.0207 1.87355,-1.47374 3.87858,-1.97435 7.40736,-1.84945 2.66115,0.0942 5.80752,-0.43394 6.99193,-1.17362 1.82326,-1.13864 3.64489,-1.08061 11.87938,0.37843 21.6764,3.84077 36.38358,12.69146 43.55609,26.21177 2.61217,4.92399 3.19469,5.09062 10.28093,2.94096 5.28239,-1.60246 6.16437,-1.43928 5.24004,0.96948 C 599.24003,495.53805 597.68659,496 594.46564,496 589.27613,496 586,497.36697 586,499.5323 c 0,2.80885 -7.26874,9.47459 -13.85761,12.70802 L 565.5,515.5 l -21.63652,-0.30229 -21.63653,-0.30229 -12.36347,3.67367 C 497.5328,522.23301 476.15251,531.72521 465.07885,538.4521 459.25607,541.98926 457,542.74718 457,541.1662 z M 285.8625,435.98958 c -16.22247,-2.55977 -35.17288,-9.39123 -48.56146,-17.506 -26.80481,-16.24631 -44.4755,-39.01583 -51.9838,-66.98358 -2.4381,-9.08172 -2.69071,-11.69881 -2.75093,-28.5 -0.0545,-15.19318 0.27301,-19.75123 1.832,-25.5 9.51727,-35.09474 36.58646,-64.29533 72.15658,-77.8381 10.34612,-3.93913 30.18672,-8.27084 41.94511,-9.15769 13.75846,-1.03769 14.5,-1.25152 14.5,-4.1811 0,-1.72629 -1.47483,-4.0611 -4.43534,-7.02161 l -4.43535,-4.43535 -7.31465,0.69648 C 288.73026,196.33241 286,197.33459 286,199.5323 c 0,2.80885 -7.26874,9.47459 -13.85761,12.70802 L 265.5,215.5 l -21.63652,-0.30229 -21.63653,-0.30229 -12.36347,3.66525 c -11.56851,3.42957 -35.06021,13.96558 -47.05279,21.10313 -2.57912,1.535 -5.01026,2.46996 -5.40254,2.07768 -0.82671,-0.8267 12.12775,-27.11142 14.21609,-28.84459 0.76948,-0.63861 2.24965,-3.08403 3.28927,-5.43427 1.03962,-2.35023 3.70514,-6.5692 5.92338,-9.37548 2.21824,-2.80628 4.29601,-5.93053 4.61729,-6.94276 0.32127,-1.01224 2.34384,-3.25458 4.49459,-4.98297 2.15075,-1.72839 4.16391,-3.93428 4.47367,-4.90197 0.30977,-0.96769 2.49093,-2.97467 4.84703,-4.45995 2.35609,-1.48529 5.28134,-3.84779 6.50055,-5.25 1.21922,-1.40222 3.05904,-2.54949 4.08851,-2.54949 1.02946,0 3.02776,-0.90932 4.44066,-2.0207 1.87355,-1.47374 3.87858,-1.97435 7.40736,-1.84945 2.66115,0.0942 5.80752,-0.43394 6.99193,-1.17362 1.82326,-1.13864 3.64489,-1.08061 11.87938,0.37843 21.74032,3.8521 36.49182,12.75425 43.55781,26.28603 2.59808,4.97548 1.74225,4.81378 12.86433,2.43063 2.475,-0.53032 6.15175,-0.98382 8.17054,-1.00777 4.14582,-0.0492 4.19787,-0.16876 5.34707,-12.28303 0.35163,-3.70671 1.05932,-6.99905 1.57264,-7.3163 0.51332,-0.31725 2.21062,0.46552 3.77177,1.73948 l 2.83846,2.3163 -0.10024,16 -0.10024,16 5,0.68071 c 2.75,0.37439 9.05,1.18622 14,1.80406 11.984,1.49581 26.78513,6.56206 42.46581,14.53556 28.63311,14.55969 46.34669,31.38552 58.60669,55.66951 6.47192,12.81925 8.52935,20.99867 9.13336,36.31016 0.79584,20.17397 -2.70536,36.24297 -12.20158,56 -15.22514,31.67615 -47.02248,52.46033 -92.59112,60.52177 -13.79072,2.43969 -46.83652,3.57951 -57.05066,1.96781 z M 0,68.643577 0,0 l 72.883369,0 72.883371,0 0.69644,2.25 c 0.38305,1.2375 0.93474,8.1 1.22598,15.25 0.8208,20.150505 -2.67414,36.212759 -12.18488,56 C 117.18609,111.61129 73.545599,134.5541 15.25,136.72044 L 0,137.28715 0,68.643577 z m 585.8625,67.284493 c -15.67382,-2.30219 -35.07979,-9.2733 -48.56146,-17.44449 C 510.5023,102.24095 492.85024,79.499372 485.30824,51.5 482.84341,42.349431 482.60974,39.886081 482.5573,22.5 482.5258,12.05 482.82338,2.7125 483.21862,1.75 483.89137,0.11169287 487.64105,0 541.96862,0 L 600,0 l 0,68.5 0,68.5 -4.25,-0.12194 c -2.3375,-0.0671 -6.78687,-0.49456 -9.8875,-0.94999 z"
       id="path3003"
       inkscape:connector-curvature="0" />
    <path
       style="fill:#4a7736"
       d="m 457,540.6662 c 0,-1.1671 13.30692,-26.38419 14.81757,-28.07983 1.02231,-1.1475 2.42876,-3.53097 3.12544,-5.2966 0.69668,-1.76563 3.22228,-5.72865 5.61245,-8.80672 2.39018,-3.07807 4.60161,-6.40258 4.91431,-7.3878 0.31269,-0.98522 2.32825,-3.20545 4.479,-4.93384 2.15075,-1.72839 4.16391,-3.93428 4.47367,-4.90197 0.30977,-0.96769 2.49093,-2.97467 4.84703,-4.45995 2.35609,-1.48529 5.28134,-3.84779 6.50055,-5.25 1.21922,-1.40222 3.05904,-2.54949 4.08851,-2.54949 1.02946,0 3.02776,-0.90932 4.44066,-2.0207 1.87355,-1.47374 3.87858,-1.97435 7.40736,-1.84945 2.66115,0.0942 5.80752,-0.43394 6.99193,-1.17362 1.82326,-1.13864 3.64489,-1.08061 11.87938,0.37843 10.84738,1.92201 20.18468,5.2792 28.42214,10.21908 6.82012,4.08992 9.77688,7.17376 14.74578,15.37957 l 3.89559,6.4333 -1.77429,3.67237 c -3.57235,7.39391 -14.38103,14.25661 -24.43183,15.51238 -2.84766,0.35579 -13.02579,0.14207 -22.61807,-0.47494 l -17.4405,-1.12183 -13.42735,4.13576 c -12.45999,3.83781 -34.74363,13.96707 -45.07695,20.49022 C 459.45223,540.73961 457,541.61054 457,540.6662 z M 18,533.99321 c -0.825,-0.56574 -5.1,-0.94853 -9.5,-0.85066 -7.96762011,0.17724 -8.00128071,0.16719 -8.31642235,-2.4823 C -0.09622096,528.30791 0.20968962,528 2.8265889,528 c 1.6363946,0 3.2034557,-0.63591 3.5052733,-1.42244 0.300212,-0.78234 1.5555634,-1.56984 2.78967,-1.75 1.5050018,-0.2197 2.5218088,-1.31537 3.0880548,-3.32756 1.203308,-4.27603 1.362133,-16.69621 0.238325,-18.63712 C 10.71894,499.8768 2.9589484,494.07852 1.460907,494.65337 0.56840036,494.99586 0,494.6132 0,493.66986 c 0,-1.20551 0.76565111,-1.41987 3.4915364,-0.97752 5.1183587,0.83059 6.2089662,-0.66053 6.9973816,-9.56715 0.905885,-10.23365 1.421922,-10.99032 5.459448,-8.00524 2.694164,1.99188 3.098143,2.81925 2.620764,5.36746 -0.310405,1.65692 -0.62891,10.44361 -0.707788,19.52598 -0.129833,14.94966 0.05475,16.90181 1.949239,20.61532 2.172206,4.25787 4.542956,5.37129 11.436864,5.37129 2.457777,0 2.787972,0.2524 1.833982,1.40189 -0.639905,0.77103 -2.295744,1.68607 -3.679644,2.0334 -1.885052,0.47312 -2.439126,1.18751 -2.208982,2.84812 0.268351,1.93628 -0.198635,2.24958 -3.692801,2.4775 -2.2,0.1435 -4.675,-0.20196 -5.5,-0.7677 z m 579.70683,-3.75261 c -1.66457,-1.85052 -1.67223,-2.0399 -0.10687,-2.64058 2.15722,-0.82781 2.64105,-0.30053 2.23084,2.43116 -0.32943,2.1938 -0.33821,2.19466 -2.12397,0.20942 z m -2.53517,-36.21912 c 1.46941,-0.44363 3.15691,-1.10651 3.75,-1.47306 0.59499,-0.36773 1.07834,0.0323 1.07834,0.89256 0,1.15015 -0.98349,1.53648 -3.75,1.47307 -3.48598,-0.0799 -3.5619,-0.14274 -1.07834,-0.89257 z M 157,240.6662 c 0,-1.1671 13.30692,-26.38419 14.81757,-28.07983 1.02231,-1.1475 2.42876,-3.53097 3.12544,-5.2966 0.69668,-1.76563 3.22228,-5.72865 5.61245,-8.80672 2.39018,-3.07807 4.60161,-6.40258 4.91431,-7.3878 0.31269,-0.98522 2.32825,-3.20545 4.479,-4.93384 2.15075,-1.72839 4.16391,-3.93428 4.47367,-4.90197 0.30977,-0.96769 2.49093,-2.97467 4.84703,-4.45995 2.35609,-1.48529 5.28134,-3.84779 6.50055,-5.25 1.21922,-1.40222 3.05904,-2.54949 4.08851,-2.54949 1.02946,0 3.02776,-0.90932 4.44066,-2.0207 1.87355,-1.47374 3.87858,-1.97435 7.40736,-1.84945 2.66115,0.0942 5.80752,-0.43394 6.99193,-1.17362 1.82326,-1.13864 3.64489,-1.08061 11.87938,0.37843 10.84738,1.92201 20.18468,5.2792 28.42214,10.21908 6.82012,4.08992 9.77688,7.17376 14.74578,15.37957 l 3.89559,6.4333 -1.77429,3.67237 c -3.57235,7.39391 -14.38103,14.25661 -24.43183,15.51238 -2.84766,0.35579 -13.02579,0.14207 -22.61807,-0.47494 l -17.4405,-1.12183 -13.42735,4.13576 c -12.45999,3.83781 -34.74363,13.96707 -45.07695,20.49022 C 159.45223,240.73961 157,241.61054 157,240.6662 z m 161,-6.63998 c -0.825,-0.54758 -4.875,-1.01867 -9,-1.04687 -6.44316,-0.044 -7.92274,-0.39779 -10.5,-2.51035 l -3,-2.45907 5.14301,-0.005 c 3.52087,-0.003 5.31517,-0.45362 5.68885,-1.42741 0.30021,-0.78234 1.55557,-1.56984 2.78967,-1.75 2.80282,-0.40916 3.87258,-3.88376 4.10329,-13.32756 0.19717,-8.07123 -0.21392,-9.0179 -6.0083,-13.83604 -3.94736,-3.28232 -4.6928,-3.52769 -9.5,-3.12712 -3.83929,0.31992 -4.55649,0.20074 -2.71652,-0.4514 1.375,-0.48734 4.8074,-0.93094 7.62756,-0.98576 2.82015,-0.0548 5.5877,-0.66218 6.15012,-1.34968 0.56241,-0.6875 1.33946,-4.67442 1.72679,-8.85983 0.92715,-10.01858 1.4307,-10.73731 5.4439,-7.77022 2.69416,1.99188 3.09814,2.81925 2.62076,5.36746 -0.31041,1.65692 -0.62891,10.44361 -0.70779,19.52598 -0.12983,14.94966 0.0548,16.90181 1.94924,20.61532 2.17221,4.25787 4.54296,5.37129 11.43686,5.37129 2.45778,0 2.78798,0.2524 1.83399,1.40189 -0.63991,0.77103 -2.29575,1.68607 -3.67965,2.0334 -1.88505,0.47312 -2.43912,1.18751 -2.20898,2.84812 0.26835,1.93628 -0.19863,2.24958 -3.6928,2.4775 -2.2,0.1435 -4.675,-0.18711 -5.5,-0.73469 z"
       id="path3005"
       inkscape:connector-curvature="0" />
  </g>
  <g
     transform="matrix(0.33333333,0,0,0.33333333,400,0)"
     id="g3007">
    <path
       inkscape:connector-curvature="0"
       id="path3009"
       d="m 0,555 0,-45 4.25,-0.0136 C 11.005003,509.96464 13,509.11317 13,506.25179 13,503.10392 5.1721918,495 2.1315789,495 0.90350877,495 0,494.3642 0,493.5 0,492.39288 1.1578383,492 4.4205447,492 c 5.0142,0 4.917592,0.19393 6.0970623,-12.23948 0.35163,-3.70671 1.05932,-6.99905 1.572644,-7.3163 0.513324,-0.31725 2.210621,0.46552 3.77177,1.73948 l 2.838455,2.3163 -0.100238,16 -0.100238,16 5,0.68071 c 2.75,0.37439 9.05,1.18622 14,1.80406 11.984002,1.49581 26.785128,6.56206 42.465814,14.53556 28.555106,14.52003 46.351066,31.39588 58.517556,55.49204 2.36391,4.68181 4.99795,10.86931 5.85342,13.75 L 145.8922,600 72.9461,600 0,600 0,555 z m 484,44.16516 c 0,-1.71974 4.31349,-13.89462 7.10513,-20.05431 9.07452,-20.02276 29.06285,-41.01635 49.96166,-52.47437 13.30159,-7.29274 33.47393,-13.22717 54.68321,-16.08704 l 4.25,-0.57308 0,45.01182 0,45.01182 -58,0 c -31.9,0 -58,-0.37568 -58,-0.83484 z M 457,541.1662 c 0,-1.52415 12.92733,-26.45812 14.81757,-28.57983 1.02231,-1.1475 2.42876,-3.53097 3.12544,-5.2966 0.69668,-1.76563 3.22228,-5.72865 5.61245,-8.80672 2.39018,-3.07807 4.60161,-6.40258 4.91431,-7.3878 0.31269,-0.98522 2.32825,-3.20545 4.479,-4.93384 2.15075,-1.72839 4.16391,-3.93428 4.47367,-4.90197 0.30977,-0.96769 2.49093,-2.97467 4.84703,-4.45995 2.35609,-1.48529 5.28134,-3.84779 6.50055,-5.25 1.21922,-1.40222 3.05904,-2.54949 4.08851,-2.54949 1.02946,0 3.02776,-0.90932 4.44066,-2.0207 1.87355,-1.47374 3.87858,-1.97435 7.40736,-1.84945 2.66115,0.0942 5.80752,-0.43394 6.99193,-1.17362 1.82326,-1.13864 3.64489,-1.08061 11.87938,0.37843 21.6764,3.84077 36.38358,12.69146 43.55609,26.21177 2.61217,4.92399 3.19469,5.09062 10.28093,2.94096 5.28239,-1.60246 6.16437,-1.43928 5.24004,0.96948 C 599.24003,495.53805 597.68659,496 594.46564,496 589.27613,496 586,497.36697 586,499.5323 c 0,2.80885 -7.26874,9.47459 -13.85761,12.70802 L 565.5,515.5 l -21.63652,-0.30229 -21.63653,-0.30229 -12.36347,3.67367 C 497.5328,522.23301 476.15251,531.72521 465.07885,538.4521 459.25607,541.98926 457,542.74718 457,541.1662 z M 285.8625,435.98958 c -16.22247,-2.55977 -35.17288,-9.39123 -48.56146,-17.506 -26.80481,-16.24631 -44.4755,-39.01583 -51.9838,-66.98358 -2.4381,-9.08172 -2.69071,-11.69881 -2.75093,-28.5 -0.0545,-15.19318 0.27301,-19.75123 1.832,-25.5 9.51727,-35.09474 36.58646,-64.29533 72.15658,-77.8381 10.34612,-3.93913 30.18672,-8.27084 41.94511,-9.15769 13.75846,-1.03769 14.5,-1.25152 14.5,-4.1811 0,-1.72629 -1.47483,-4.0611 -4.43534,-7.02161 l -4.43535,-4.43535 -7.31465,0.69648 C 288.73026,196.33241 286,197.33459 286,199.5323 c 0,2.80885 -7.26874,9.47459 -13.85761,12.70802 L 265.5,215.5 l -21.63652,-0.30229 -21.63653,-0.30229 -12.36347,3.66525 c -11.56851,3.42957 -35.06021,13.96558 -47.05279,21.10313 -2.57912,1.535 -5.01026,2.46996 -5.40254,2.07768 -0.82671,-0.8267 12.12775,-27.11142 14.21609,-28.84459 0.76948,-0.63861 2.24965,-3.08403 3.28927,-5.43427 1.03962,-2.35023 3.70514,-6.5692 5.92338,-9.37548 2.21824,-2.80628 4.29601,-5.93053 4.61729,-6.94276 0.32127,-1.01224 2.34384,-3.25458 4.49459,-4.98297 2.15075,-1.72839 4.16391,-3.93428 4.47367,-4.90197 0.30977,-0.96769 2.49093,-2.97467 4.84703,-4.45995 2.35609,-1.48529 5.28134,-3.84779 6.50055,-5.25 1.21922,-1.40222 3.05904,-2.54949 4.08851,-2.54949 1.02946,0 3.02776,-0.90932 4.44066,-2.0207 1.87355,-1.47374 3.87858,-1.97435 7.40736,-1.84945 2.66115,0.0942 5.80752,-0.43394 6.99193,-1.17362 1.82326,-1.13864 3.64489,-1.08061 11.87938,0.37843 21.74032,3.8521 36.49182,12.75425 43.55781,26.28603 2.59808,4.97548 1.74225,4.81378 12.86433,2.43063 2.475,-0.53032 6.15175,-0.98382 8.17054,-1.00777 4.14582,-0.0492 4.19787,-0.16876 5.34707,-12.28303 0.35163,-3.70671 1.05932,-6.99905 1.57264,-7.3163 0.51332,-0.31725 2.21062,0.46552 3.77177,1.73948 l 2.83846,2.3163 -0.10024,16 -0.10024,16 5,0.68071 c 2.75,0.37439 9.05,1.18622 14,1.80406 11.984,1.49581 26.78513,6.56206 42.46581,14.53556 28.63311,14.55969 46.34669,31.38552 58.60669,55.66951 6.47192,12.81925 8.52935,20.99867 9.13336,36.31016 0.79584,20.17397 -2.70536,36.24297 -12.20158,56 -15.22514,31.67615 -47.02248,52.46033 -92.59112,60.52177 -13.79072,2.43969 -46.83652,3.57951 -57.05066,1.96781 z M 0,68.643577 0,0 l 72.883369,0 72.883371,0 0.69644,2.25 c 0.38305,1.2375 0.93474,8.1 1.22598,15.25 0.8208,20.150505 -2.67414,36.212759 -12.18488,56 C 117.18609,111.61129 73.545599,134.5541 15.25,136.72044 L 0,137.28715 0,68.643577 z m 585.8625,67.284493 c -15.67382,-2.30219 -35.07979,-9.2733 -48.56146,-17.44449 C 510.5023,102.24095 492.85024,79.499372 485.30824,51.5 482.84341,42.349431 482.60974,39.886081 482.5573,22.5 482.5258,12.05 482.82338,2.7125 483.21862,1.75 483.89137,0.11169287 487.64105,0 541.96862,0 L 600,0 l 0,68.5 0,68.5 -4.25,-0.12194 c -2.3375,-0.0671 -6.78687,-0.49456 -9.8875,-0.94999 z"
       style="fill:#f59b1c" />
    <path
       inkscape:connector-curvature="0"
       id="path3011"
       d="m 457,540.6662 c 0,-1.1671 13.30692,-26.38419 14.81757,-28.07983 1.02231,-1.1475 2.42876,-3.53097 3.12544,-5.2966 0.69668,-1.76563 3.22228,-5.72865 5.61245,-8.80672 2.39018,-3.07807 4.60161,-6.40258 4.91431,-7.3878 0.31269,-0.98522 2.32825,-3.20545 4.479,-4.93384 2.15075,-1.72839 4.16391,-3.93428 4.47367,-4.90197 0.30977,-0.96769 2.49093,-2.97467 4.84703,-4.45995 2.35609,-1.48529 5.28134,-3.84779 6.50055,-5.25 1.21922,-1.40222 3.05904,-2.54949 4.08851,-2.54949 1.02946,0 3.02776,-0.90932 4.44066,-2.0207 1.87355,-1.47374 3.87858,-1.97435 7.40736,-1.84945 2.66115,0.0942 5.80752,-0.43394 6.99193,-1.17362 1.82326,-1.13864 3.64489,-1.08061 11.87938,0.37843 10.84738,1.92201 20.18468,5.2792 28.42214,10.21908 6.82012,4.08992 9.77688,7.17376 14.74578,15.37957 l 3.89559,6.4333 -1.77429,3.67237 c -3.57235,7.39391 -14.38103,14.25661 -24.43183,15.51238 -2.84766,0.35579 -13.02579,0.14207 -22.61807,-0.47494 l -17.4405,-1.12183 -13.42735,4.13576 c -12.45999,3.83781 -34.74363,13.96707 -45.07695,20.49022 C 459.45223,540.73961 457,541.61054 457,540.6662 z M 18,533.99321 c -0.825,-0.56574 -5.1,-0.94853 -9.5,-0.85066 -7.96762011,0.17724 -8.00128071,0.16719 -8.31642235,-2.4823 C -0.09622096,528.30791 0.20968962,528 2.8265889,528 c 1.6363946,0 3.2034557,-0.63591 3.5052733,-1.42244 0.300212,-0.78234 1.5555634,-1.56984 2.78967,-1.75 1.5050018,-0.2197 2.5218088,-1.31537 3.0880548,-3.32756 1.203308,-4.27603 1.362133,-16.69621 0.238325,-18.63712 C 10.71894,499.8768 2.9589484,494.07852 1.460907,494.65337 0.56840036,494.99586 0,494.6132 0,493.66986 c 0,-1.20551 0.76565111,-1.41987 3.4915364,-0.97752 5.1183587,0.83059 6.2089662,-0.66053 6.9973816,-9.56715 0.905885,-10.23365 1.421922,-10.99032 5.459448,-8.00524 2.694164,1.99188 3.098143,2.81925 2.620764,5.36746 -0.310405,1.65692 -0.62891,10.44361 -0.707788,19.52598 -0.129833,14.94966 0.05475,16.90181 1.949239,20.61532 2.172206,4.25787 4.542956,5.37129 11.436864,5.37129 2.457777,0 2.787972,0.2524 1.833982,1.40189 -0.639905,0.77103 -2.295744,1.68607 -3.679644,2.0334 -1.885052,0.47312 -2.439126,1.18751 -2.208982,2.84812 0.268351,1.93628 -0.198635,2.24958 -3.692801,2.4775 -2.2,0.1435 -4.675,-0.20196 -5.5,-0.7677 z m 579.70683,-3.75261 c -1.66457,-1.85052 -1.67223,-2.0399 -0.10687,-2.64058 2.15722,-0.82781 2.64105,-0.30053 2.23084,2.43116 -0.32943,2.1938 -0.33821,2.19466 -2.12397,0.20942 z m -2.53517,-36.21912 c 1.46941,-0.44363 3.15691,-1.10651 3.75,-1.47306 0.59499,-0.36773 1.07834,0.0323 1.07834,0.89256 0,1.15015 -0.98349,1.53648 -3.75,1.47307 -3.48598,-0.0799 -3.5619,-0.14274 -1.07834,-0.89257 z M 157,240.6662 c 0,-1.1671 13.30692,-26.38419 14.81757,-28.07983 1.02231,-1.1475 2.42876,-3.53097 3.12544,-5.2966 0.69668,-1.76563 3.22228,-5.72865 5.61245,-8.80672 2.39018,-3.07807 4.60161,-6.40258 4.91431,-7.3878 0.31269,-0.98522 2.32825,-3.20545 4.479,-4.93384 2.15075,-1.72839 4.16391,-3.93428 4.47367,-4.90197 0.30977,-0.96769 2.49093,-2.97467 4.84703,-4.45995 2.35609,-1.48529 5.28134,-3.84779 6.50055,-5.25 1.21922,-1.40222 3.05904,-2.54949 4.08851,-2.54949 1.02946,0 3.02776,-0.90932 4.44066,-2.0207 1.87355,-1.47374 3.87858,-1.97435 7.40736,-1.84945 2.66115,0.0942 5.80752,-0.43394 6.99193,-1.17362 1.82326,-1.13864 3.64489,-1.08061 11.87938,0.37843 10.84738,1.92201 20.18468,5.2792 28.42214,10.21908 6.82012,4.08992 9.77688,7.17376 14.74578,15.37957 l 3.89559,6.4333 -1.77429,3.67237 c -3.57235,7.39391 -14.38103,14.25661 -24.43183,15.51238 -2.84766,0.35579 -13.02579,0.14207 -22.61807,-0.47494 l -17.4405,-1.12183 -13.42735,4.13576 c -12.45999,3.83781 -34.74363,13.96707 -45.07695,20.49022 C 159.45223,240.73961 157,241.61054 157,240.6662 z m 161,-6.63998 c -0.825,-0.54758 -4.875,-1.01867 -9,-1.04687 -6.44316,-0.044 -7.92274,-0.39779 -10.5,-2.51035 l -3,-2.45907 5.14301,-0.005 c 3.52087,-0.003 5.31517,-0.45362 5.68885,-1.42741 0.30021,-0.78234 1.55557,-1.56984 2.78967,-1.75 2.80282,-0.40916 3.87258,-3.88376 4.10329,-13.32756 0.19717,-8.07123 -0.21392,-9.0179 -6.0083,-13.83604 -3.94736,-3.28232 -4.6928,-3.52769 -9.5,-3.12712 -3.83929,0.31992 -4.55649,0.20074 -2.71652,-0.4514 1.375,-0.48734 4.8074,-0.93094 7.62756,-0.98576 2.82015,-0.0548 5.5877,-0.66218 6.15012,-1.34968 0.56241,-0.6875 1.33946,-4.67442 1.72679,-8.85983 0.92715,-10.01858 1.4307,-10.73731 5.4439,-7.77022 2.69416,1.99188 3.09814,2.81925 2.62076,5.36746 -0.31041,1.65692 -0.62891,10.44361 -0.70779,19.52598 -0.12983,14.94966 0.0548,16.90181 1.94924,20.61532 2.17221,4.25787 4.54296,5.37129 11.43686,5.37129 2.45778,0 2.78798,0.2524 1.83399,1.40189 -0.63991,0.77103 -2.29575,1.68607 -3.67965,2.0334 -1.88505,0.47312 -2.43912,1.18751 -2.20898,2.84812 0.26835,1.93628 -0.19863,2.24958 -3.6928,2.4775 -2.2,0.1435 -4.675,-0.18711 -5.5,-0.73469 z"
       style="fill:#4a7736" />
  </g>
  <g
     id="g3013"
     transform="matrix(0.33333333,0,0,0.33333333,0,200)">
    <path
       style="fill:#f59b1c"
       d="m 0,555 0,-45 4.25,-0.0136 C 11.005003,509.96464 13,509.11317 13,506.25179 13,503.10392 5.1721918,495 2.1315789,495 0.90350877,495 0,494.3642 0,493.5 0,492.39288 1.1578383,492 4.4205447,492 c 5.0142,0 4.917592,0.19393 6.0970623,-12.23948 0.35163,-3.70671 1.05932,-6.99905 1.572644,-7.3163 0.513324,-0.31725 2.210621,0.46552 3.77177,1.73948 l 2.838455,2.3163 -0.100238,16 -0.100238,16 5,0.68071 c 2.75,0.37439 9.05,1.18622 14,1.80406 11.984002,1.49581 26.785128,6.56206 42.465814,14.53556 28.555106,14.52003 46.351066,31.39588 58.517556,55.49204 2.36391,4.68181 4.99795,10.86931 5.85342,13.75 L 145.8922,600 72.9461,600 0,600 0,555 z m 484,44.16516 c 0,-1.71974 4.31349,-13.89462 7.10513,-20.05431 9.07452,-20.02276 29.06285,-41.01635 49.96166,-52.47437 13.30159,-7.29274 33.47393,-13.22717 54.68321,-16.08704 l 4.25,-0.57308 0,45.01182 0,45.01182 -58,0 c -31.9,0 -58,-0.37568 -58,-0.83484 z M 457,541.1662 c 0,-1.52415 12.92733,-26.45812 14.81757,-28.57983 1.02231,-1.1475 2.42876,-3.53097 3.12544,-5.2966 0.69668,-1.76563 3.22228,-5.72865 5.61245,-8.80672 2.39018,-3.07807 4.60161,-6.40258 4.91431,-7.3878 0.31269,-0.98522 2.32825,-3.20545 4.479,-4.93384 2.15075,-1.72839 4.16391,-3.93428 4.47367,-4.90197 0.30977,-0.96769 2.49093,-2.97467 4.84703,-4.45995 2.35609,-1.48529 5.28134,-3.84779 6.50055,-5.25 1.21922,-1.40222 3.05904,-2.54949 4.08851,-2.54949 1.02946,0 3.02776,-0.90932 4.44066,-2.0207 1.87355,-1.47374 3.87858,-1.97435 7.40736,-1.84945 2.66115,0.0942 5.80752,-0.43394 6.99193,-1.17362 1.82326,-1.13864 3.64489,-1.08061 11.87938,0.37843 21.6764,3.84077 36.38358,12.69146 43.55609,26.21177 2.61217,4.92399 3.19469,5.09062 10.28093,2.94096 5.28239,-1.60246 6.16437,-1.43928 5.24004,0.96948 C 599.24003,495.53805 597.68659,496 594.46564,496 589.27613,496 586,497.36697 586,499.5323 c 0,2.80885 -7.26874,9.47459 -13.85761,12.70802 L 565.5,515.5 l -21.63652,-0.30229 -21.63653,-0.30229 -12.36347,3.67367 C 497.5328,522.23301 476.15251,531.72521 465.07885,538.4521 459.25607,541.98926 457,542.74718 457,541.1662 z M 285.8625,435.98958 c -16.22247,-2.55977 -35.17288,-9.39123 -48.56146,-17.506 -26.80481,-16.24631 -44.4755,-39.01583 -51.9838,-66.98358 -2.4381,-9.08172 -2.69071,-11.69881 -2.75093,-28.5 -0.0545,-15.19318 0.27301,-19.75123 1.832,-25.5 9.51727,-35.09474 36.58646,-64.29533 72.15658,-77.8381 10.34612,-3.93913 30.18672,-8.27084 41.94511,-9.15769 13.75846,-1.03769 14.5,-1.25152 14.5,-4.1811 0,-1.72629 -1.47483,-4.0611 -4.43534,-7.02161 l -4.43535,-4.43535 -7.31465,0.69648 C 288.73026,196.33241 286,197.33459 286,199.5323 c 0,2.80885 -7.26874,9.47459 -13.85761,12.70802 L 265.5,215.5 l -21.63652,-0.30229 -21.63653,-0.30229 -12.36347,3.66525 c -11.56851,3.42957 -35.06021,13.96558 -47.05279,21.10313 -2.57912,1.535 -5.01026,2.46996 -5.40254,2.07768 -0.82671,-0.8267 12.12775,-27.11142 14.21609,-28.84459 0.76948,-0.63861 2.24965,-3.08403 3.28927,-5.43427 1.03962,-2.35023 3.70514,-6.5692 5.92338,-9.37548 2.21824,-2.80628 4.29601,-5.93053 4.61729,-6.94276 0.32127,-1.01224 2.34384,-3.25458 4.49459,-4.98297 2.15075,-1.72839 4.16391,-3.93428 4.47367,-4.90197 0.30977,-0.96769 2.49093,-2.97467 4.84703,-4.45995 2.35609,-1.48529 5.28134,-3.84779 6.50055,-5.25 1.21922,-1.40222 3.05904,-2.54949 4.08851,-2.54949 1.02946,0 3.02776,-0.90932 4.44066,-2.0207 1.87355,-1.47374 3.87858,-1.97435 7.40736,-1.84945 2.66115,0.0942 5.80752,-0.43394 6.99193,-1.17362 1.82326,-1.13864 3.64489,-1.08061 11.87938,0.37843 21.74032,3.8521 36.49182,12.75425 43.55781,26.28603 2.59808,4.97548 1.74225,4.81378 12.86433,2.43063 2.475,-0.53032 6.15175,-0.98382 8.17054,-1.00777 4.14582,-0.0492 4.19787,-0.16876 5.34707,-12.28303 0.35163,-3.70671 1.05932,-6.99905 1.57264,-7.3163 0.51332,-0.31725 2.21062,0.46552 3.77177,1.73948 l 2.83846,2.3163 -0.10024,16 -0.10024,16 5,0.68071 c 2.75,0.37439 9.05,1.18622 14,1.80406 11.984,1.49581 26.78513,6.56206 42.46581,14.53556 28.63311,14.55969 46.34669,31.38552 58.60669,55.66951 6.47192,12.81925 8.52935,20.99867 9.13336,36.31016 0.79584,20.17397 -2.70536,36.24297 -12.20158,56 -15.22514,31.67615 -47.02248,52.46033 -92.59112,60.52177 -13.79072,2.43969 -46.83652,3.57951 -57.05066,1.96781 z M 0,68.643577 0,0 l 72.883369,0 72.883371,0 0.69644,2.25 c 0.38305,1.2375 0.93474,8.1 1.22598,15.25 0.8208,20.150505 -2.67414,36.212759 -12.18488,56 C 117.18609,111.61129 73.545599,134.5541 15.25,136.72044 L 0,137.28715 0,68.643577 z m 585.8625,67.284493 c -15.67382,-2.30219 -35.07979,-9.2733 -48.56146,-17.44449 C 510.5023,102.24095 492.85024,79.499372 485.30824,51.5 482.84341,42.349431 482.60974,39.886081 482.5573,22.5 482.5258,12.05 482.82338,2.7125 483.21862,1.75 483.89137,0.11169287 487.64105,0 541.96862,0 L 600,0 l 0,68.5 0,68.5 -4.25,-0.12194 c -2.3375,-0.0671 -6.78687,-0.49456 -9.8875,-0.94999 z"
       id="path3015"
       inkscape:connector-curvature="0" />
    <path
       style="fill:#4a7736"
       d="m 457,540.6662 c 0,-1.1671 13.30692,-26.38419 14.81757,-28.07983 1.02231,-1.1475 2.42876,-3.53097 3.12544,-5.2966 0.69668,-1.76563 3.22228,-5.72865 5.61245,-8.80672 2.39018,-3.07807 4.60161,-6.40258 4.91431,-7.3878 0.31269,-0.98522 2.32825,-3.20545 4.479,-4.93384 2.15075,-1.72839 4.16391,-3.93428 4.47367,-4.90197 0.30977,-0.96769 2.49093,-2.97467 4.84703,-4.45995 2.35609,-1.48529 5.28134,-3.84779 6.50055,-5.25 1.21922,-1.40222 3.05904,-2.54949 4.08851,-2.54949 1.02946,0 3.02776,-0.90932 4.44066,-2.0207 1.87355,-1.47374 3.87858,-1.97435 7.40736,-1.84945 2.66115,0.0942 5.80752,-0.43394 6.99193,-1.17362 1.82326,-1.13864 3.64489,-1.08061 11.87938,0.37843 10.84738,1.92201 20.18468,5.2792 28.42214,10.21908 6.82012,4.08992 9.77688,7.17376 14.74578,15.37957 l 3.89559,6.4333 -1.77429,3.67237 c -3.57235,7.39391 -14.38103,14.25661 -24.43183,15.51238 -2.84766,0.35579 -13.02579,0.14207 -22.61807,-0.47494 l -17.4405,-1.12183 -13.42735,4.13576 c -12.45999,3.83781 -34.74363,13.96707 -45.07695,20.49022 C 459.45223,540.73961 457,541.61054 457,540.6662 z M 18,533.99321 c -0.825,-0.56574 -5.1,-0.94853 -9.5,-0.85066 -7.96762011,0.17724 -8.00128071,0.16719 -8.31642235,-2.4823 C -0.09622096,528.30791 0.20968962,528 2.8265889,528 c 1.6363946,0 3.2034557,-0.63591 3.5052733,-1.42244 0.300212,-0.78234 1.5555634,-1.56984 2.78967,-1.75 1.5050018,-0.2197 2.5218088,-1.31537 3.0880548,-3.32756 1.203308,-4.27603 1.362133,-16.69621 0.238325,-18.63712 C 10.71894,499.8768 2.9589484,494.07852 1.460907,494.65337 0.56840036,494.99586 0,494.6132 0,493.66986 c 0,-1.20551 0.76565111,-1.41987 3.4915364,-0.97752 5.1183587,0.83059 6.2089662,-0.66053 6.9973816,-9.56715 0.905885,-10.23365 1.421922,-10.99032 5.459448,-8.00524 2.694164,1.99188 3.098143,2.81925 2.620764,5.36746 -0.310405,1.65692 -0.62891,10.44361 -0.707788,19.52598 -0.129833,14.94966 0.05475,16.90181 1.949239,20.61532 2.172206,4.25787 4.542956,5.37129 11.436864,5.37129 2.457777,0 2.787972,0.2524 1.833982,1.40189 -0.639905,0.77103 -2.295744,1.68607 -3.679644,2.0334 -1.885052,0.47312 -2.439126,1.18751 -2.208982,2.84812 0.268351,1.93628 -0.198635,2.24958 -3.692801,2.4775 -2.2,0.1435 -4.675,-0.20196 -5.5,-0.7677 z m 579.70683,-3.75261 c -1.66457,-1.85052 -1.67223,-2.0399 -0.10687,-2.64058 2.15722,-0.82781 2.64105,-0.30053 2.23084,2.43116 -0.32943,2.1938 -0.33821,2.19466 -2.12397,0.20942 z m -2.53517,-36.21912 c 1.46941,-0.44363 3.15691,-1.10651 3.75,-1.47306 0.59499,-0.36773 1.07834,0.0323 1.07834,0.89256 0,1.15015 -0.98349,1.53648 -3.75,1.47307 -3.48598,-0.0799 -3.5619,-0.14274 -1.07834,-0.89257 z M 157,240.6662 c 0,-1.1671 13.30692,-26.38419 14.81757,-28.07983 1.02231,-1.1475 2.42876,-3.53097 3.12544,-5.2966 0.69668,-1.76563 3.22228,-5.72865 5.61245,-8.80672 2.39018,-3.07807 4.60161,-6.40258 4.91431,-7.3878 0.31269,-0.98522 2.32825,-3.20545 4.479,-4.93384 2.15075,-1.72839 4.16391,-3.93428 4.47367,-4.90197 0.30977,-0.96769 2.49093,-2.97467 4.84703,-4.45995 2.35609,-1.48529 5.28134,-3.84779 6.50055,-5.25 1.21922,-1.40222 3.05904,-2.54949 4.08851,-2.54949 1.02946,0 3.02776,-0.90932 4.44066,-2.0207 1.87355,-1.47374 3.87858,-1.97435 7.40736,-1.84945 2.66115,0.0942 5.80752,-0.43394 6.99193,-1.17362 1.82326,-1.13864 3.64489,-1.08061 11.87938,0.37843 10.84738,1.92201 20.18468,5.2792 28.42214,10.21908 6.82012,4.08992 9.77688,7.17376 14.74578,15.37957 l 3.89559,6.4333 -1.77429,3.67237 c -3.57235,7.39391 -14.38103,14.25661 -24.43183,15.51238 -2.84766,0.35579 -13.02579,0.14207 -22.61807,-0.47494 l -17.4405,-1.12183 -13.42735,4.13576 c -12.45999,3.83781 -34.74363,13.96707 -45.07695,20.49022 C 159.45223,240.73961 157,241.61054 157,240.6662 z m 161,-6.63998 c -0.825,-0.54758 -4.875,-1.01867 -9,-1.04687 -6.44316,-0.044 -7.92274,-0.39779 -10.5,-2.51035 l -3,-2.45907 5.14301,-0.005 c 3.52087,-0.003 5.31517,-0.45362 5.68885,-1.42741 0.30021,-0.78234 1.55557,-1.56984 2.78967,-1.75 2.80282,-0.40916 3.87258,-3.88376 4.10329,-13.32756 0.19717,-8.07123 -0.21392,-9.0179 -6.0083,-13.83604 -3.94736,-3.28232 -4.6928,-3.52769 -9.5,-3.12712 -3.83929,0.31992 -4.55649,0.20074 -2.71652,-0.4514 1.375,-0.48734 4.8074,-0.93094 7.62756,-0.98576 2.82015,-0.0548 5.5877,-0.66218 6.15012,-1.34968 0.56241,-0.6875 1.33946,-4.67442 1.72679,-8.85983 0.92715,-10.01858 1.4307,-10.73731 5.4439,-7.77022 2.69416,1.99188 3.09814,2.81925 2.62076,5.36746 -0.31041,1.65692 -0.62891,10.44361 -0.70779,19.52598 -0.12983,14.94966 0.0548,16.90181 1.94924,20.61532 2.17221,4.25787 4.54296,5.37129 11.43686,5.37129 2.45778,0 2.78798,0.2524 1.83399,1.40189 -0.63991,0.77103 -2.29575,1.68607 -3.67965,2.0334 -1.88505,0.47312 -2.43912,1.18751 -2.20898,2.84812 0.26835,1.93628 -0.19863,2.24958 -3.6928,2.4775 -2.2,0.1435 -4.675,-0.18711 -5.5,-0.73469 z"
       id="path3017"
       inkscape:connector-curvature="0" />
  </g>
  <g
     transform="matrix(0.33333333,0,0,0.33333333,400,200)"
     id="g3019">
    <path
       inkscape:connector-curvature="0"
       id="path3021"
       d="m 0,555 0,-45 4.25,-0.0136 C 11.005003,509.96464 13,509.11317 13,506.25179 13,503.10392 5.1721918,495 2.1315789,495 0.90350877,495 0,494.3642 0,493.5 0,492.39288 1.1578383,492 4.4205447,492 c 5.0142,0 4.917592,0.19393 6.0970623,-12.23948 0.35163,-3.70671 1.05932,-6.99905 1.572644,-7.3163 0.513324,-0.31725 2.210621,0.46552 3.77177,1.73948 l 2.838455,2.3163 -0.100238,16 -0.100238,16 5,0.68071 c 2.75,0.37439 9.05,1.18622 14,1.80406 11.984002,1.49581 26.785128,6.56206 42.465814,14.53556 28.555106,14.52003 46.351066,31.39588 58.517556,55.49204 2.36391,4.68181 4.99795,10.86931 5.85342,13.75 L 145.8922,600 72.9461,600 0,600 0,555 z m 484,44.16516 c 0,-1.71974 4.31349,-13.89462 7.10513,-20.05431 9.07452,-20.02276 29.06285,-41.01635 49.96166,-52.47437 13.30159,-7.29274 33.47393,-13.22717 54.68321,-16.08704 l 4.25,-0.57308 0,45.01182 0,45.01182 -58,0 c -31.9,0 -58,-0.37568 -58,-0.83484 z M 457,541.1662 c 0,-1.52415 12.92733,-26.45812 14.81757,-28.57983 1.02231,-1.1475 2.42876,-3.53097 3.12544,-5.2966 0.69668,-1.76563 3.22228,-5.72865 5.61245,-8.80672 2.39018,-3.07807 4.60161,-6.40258 4.91431,-7.3878 0.31269,-0.98522 2.32825,-3.20545 4.479,-4.93384 2.15075,-1.72839 4.16391,-3.93428 4.47367,-4.90197 0.30977,-0.96769 2.49093,-2.97467 4.84703,-4.45995 2.35609,-1.48529 5.28134,-3.84779 6.50055,-5.25 1.21922,-1.40222 3.05904,-2.54949 4.08851,-2.54949 1.02946,0 3.02776,-0.90932 4.44066,-2.0207 1.87355,-1.47374 3.87858,-1.97435 7.40736,-1.84945 2.66115,0.0942 5.80752,-0.43394 6.99193,-1.17362 1.82326,-1.13864 3.64489,-1.08061 11.87938,0.37843 21.6764,3.84077 36.38358,12.69146 43.55609,26.21177 2.61217,4.92399 3.19469,5.09062 10.28093,2.94096 5.28239,-1.60246 6.16437,-1.43928 5.24004,0.96948 C 599.24003,495.53805 597.68659,496 594.46564,496 589.27613,496 586,497.36697 586,499.5323 c 0,2.80885 -7.26874,9.47459 -13.85761,12.70802 L 565.5,515.5 l -21.63652,-0.30229 -21.63653,-0.30229 -12.36347,3.67367 C 497.5328,522.23301 476.15251,531.72521 465.07885,538.4521 459.25607,541.98926 457,542.74718 457,541.1662 z M 285.8625,435.98958 c -16.22247,-2.55977 -35.17288,-9.39123 -48.56146,-17.506 -26.80481,-16.24631 -44.4755,-39.01583 -51.9838,-66.98358 -2.4381,-9.08172 -2.69071,-11.69881 -2.75093,-28.5 -0.0545,-15.19318 0.27301,-19.75123 1.832,-25.5 9.51727,-35.09474 36.58646,-64.29533 72.15658,-77.8381 10.34612,-3.93913 30.18672,-8.27084 41.94511,-9.15769 13.75846,-1.03769 14.5,-1.25152 14.5,-4.1811 0,-1.72629 -1.47483,-4.0611 -4.43534,-7.02161 l -4.43535,-4.43535 -7.31465,0.69648 C 288.73026,196.33241 286,197.33459 286,199.5323 c 0,2.80885 -7.26874,9.47459 -13.85761,12.70802 L 265.5,215.5 l -21.63652,-0.30229 -21.63653,-0.30229 -12.36347,3.66525 c -11.56851,3.42957 -35.06021,13.96558 -47.05279,21.10313 -2.57912,1.535 -5.01026,2.46996 -5.40254,2.07768 -0.82671,-0.8267 12.12775,-27.11142 14.21609,-28.84459 0.76948,-0.63861 2.24965,-3.08403 3.28927,-5.43427 1.03962,-2.35023 3.70514,-6.5692 5.92338,-9.37548 2.21824,-2.80628 4.29601,-5.93053 4.61729,-6.94276 0.32127,-1.01224 2.34384,-3.25458 4.49459,-4.98297 2.15075,-1.72839 4.16391,-3.93428 4.47367,-4.90197 0.30977,-0.96769 2.49093,-2.97467 4.84703,-4.45995 2.35609,-1.48529 5.28134,-3.84779 6.50055,-5.25 1.21922,-1.40222 3.05904,-2.54949 4.08851,-2.54949 1.02946,0 3.02776,-0.90932 4.44066,-2.0207 1.87355,-1.47374 3.87858,-1.97435 7.40736,-1.84945 2.66115,0.0942 5.80752,-0.43394 6.99193,-1.17362 1.82326,-1.13864 3.64489,-1.08061 11.87938,0.37843 21.74032,3.8521 36.49182,12.75425 43.55781,26.28603 2.59808,4.97548 1.74225,4.81378 12.86433,2.43063 2.475,-0.53032 6.15175,-0.98382 8.17054,-1.00777 4.14582,-0.0492 4.19787,-0.16876 5.34707,-12.28303 0.35163,-3.70671 1.05932,-6.99905 1.57264,-7.3163 0.51332,-0.31725 2.21062,0.46552 3.77177,1.73948 l 2.83846,2.3163 -0.10024,16 -0.10024,16 5,0.68071 c 2.75,0.37439 9.05,1.18622 14,1.80406 11.984,1.49581 26.78513,6.56206 42.46581,14.53556 28.63311,14.55969 46.34669,31.38552 58.60669,55.66951 6.47192,12.81925 8.52935,20.99867 9.13336,36.31016 0.79584,20.17397 -2.70536,36.24297 -12.20158,56 -15.22514,31.67615 -47.02248,52.46033 -92.59112,60.52177 -13.79072,2.43969 -46.83652,3.57951 -57.05066,1.96781 z M 0,68.643577 0,0 l 72.883369,0 72.883371,0 0.69644,2.25 c 0.38305,1.2375 0.93474,8.1 1.22598,15.25 0.8208,20.150505 -2.67414,36.212759 -12.18488,56 C 117.18609,111.61129 73.545599,134.5541 15.25,136.72044 L 0,137.28715 0,68.643577 z m 585.8625,67.284493 c -15.67382,-2.30219 -35.07979,-9.2733 -48.56146,-17.44449 C 510.5023,102.24095 492.85024,79.499372 485.30824,51.5 482.84341,42.349431 482.60974,39.886081 482.5573,22.5 482.5258,12.05 482.82338,2.7125 483.21862,1.75 483.89137,0.11169287 487.64105,0 541.96862,0 L 600,0 l 0,68.5 0,68.5 -4.25,-0.12194 c -2.3375,-0.0671 -6.78687,-0.49456 -9.8875,-0.94999 z"
       style="fill:#f59b1c" />
    <path
       inkscape:connector-curvature="0"
       id="path3023"
       d="m 457,540.6662 c 0,-1.1671 13.30692,-26.38419 14.81757,-28.07983 1.02231,-1.1475 2.42876,-3.53097 3.12544,-5.2966 0.69668,-1.76563 3.22228,-5.72865 5.61245,-8.80672 2.39018,-3.07807 4.60161,-6.40258 4.91431,-7.3878 0.31269,-0.98522 2.32825,-3.20545 4.479,-4.93384 2.15075,-1.72839 4.16391,-3.93428 4.47367,-4.90197 0.30977,-0.96769 2.49093,-2.97467 4.84703,-4.45995 2.35609,-1.48529 5.28134,-3.84779 6.50055,-5.25 1.21922,-1.40222 3.05904,-2.54949 4.08851,-2.54949 1.02946,0 3.02776,-0.90932 4.44066,-2.0207 1.87355,-1.47374 3.87858,-1.97435 7.40736,-1.84945 2.66115,0.0942 5.80752,-0.43394 6.99193,-1.17362 1.82326,-1.13864 3.64489,-1.08061 11.87938,0.37843 10.84738,1.92201 20.18468,5.2792 28.42214,10.21908 6.82012,4.08992 9.77688,7.17376 14.74578,15.37957 l 3.89559,6.4333 -1.77429,3.67237 c -3.57235,7.39391 -14.38103,14.25661 -24.43183,15.51238 -2.84766,0.35579 -13.02579,0.14207 -22.61807,-0.47494 l -17.4405,-1.12183 -13.42735,4.13576 c -12.45999,3.83781 -34.74363,13.96707 -45.07695,20.49022 C 459.45223,540.73961 457,541.61054 457,540.6662 z M 18,533.99321 c -0.825,-0.56574 -5.1,-0.94853 -9.5,-0.85066 -7.96762011,0.17724 -8.00128071,0.16719 -8.31642235,-2.4823 C -0.09622096,528.30791 0.20968962,528 2.8265889,528 c 1.6363946,0 3.2034557,-0.63591 3.5052733,-1.42244 0.300212,-0.78234 1.5555634,-1.56984 2.78967,-1.75 1.5050018,-0.2197 2.5218088,-1.31537 3.0880548,-3.32756 1.203308,-4.27603 1.362133,-16.69621 0.238325,-18.63712 C 10.71894,499.8768 2.9589484,494.07852 1.460907,494.65337 0.56840036,494.99586 0,494.6132 0,493.66986 c 0,-1.20551 0.76565111,-1.41987 3.4915364,-0.97752 5.1183587,0.83059 6.2089662,-0.66053 6.9973816,-9.56715 0.905885,-10.23365 1.421922,-10.99032 5.459448,-8.00524 2.694164,1.99188 3.098143,2.81925 2.620764,5.36746 -0.310405,1.65692 -0.62891,10.44361 -0.707788,19.52598 -0.129833,14.94966 0.05475,16.90181 1.949239,20.61532 2.172206,4.25787 4.542956,5.37129 11.436864,5.37129 2.457777,0 2.787972,0.2524 1.833982,1.40189 -0.639905,0.77103 -2.295744,1.68607 -3.679644,2.0334 -1.885052,0.47312 -2.439126,1.18751 -2.208982,2.84812 0.268351,1.93628 -0.198635,2.24958 -3.692801,2.4775 -2.2,0.1435 -4.675,-0.20196 -5.5,-0.7677 z m 579.70683,-3.75261 c -1.66457,-1.85052 -1.67223,-2.0399 -0.10687,-2.64058 2.15722,-0.82781 2.64105,-0.30053 2.23084,2.43116 -0.32943,2.1938 -0.33821,2.19466 -2.12397,0.20942 z m -2.53517,-36.21912 c 1.46941,-0.44363 3.15691,-1.10651 3.75,-1.47306 0.59499,-0.36773 1.07834,0.0323 1.07834,0.89256 0,1.15015 -0.98349,1.53648 -3.75,1.47307 -3.48598,-0.0799 -3.5619,-0.14274 -1.07834,-0.89257 z M 157,240.6662 c 0,-1.1671 13.30692,-26.38419 14.81757,-28.07983 1.02231,-1.1475 2.42876,-3.53097 3.12544,-5.2966 0.69668,-1.76563 3.22228,-5.72865 5.61245,-8.80672 2.39018,-3.07807 4.60161,-6.40258 4.91431,-7.3878 0.31269,-0.98522 2.32825,-3.20545 4.479,-4.93384 2.15075,-1.72839 4.16391,-3.93428 4.47367,-4.90197 0.30977,-0.96769 2.49093,-2.97467 4.84703,-4.45995 2.35609,-1.48529 5.28134,-3.84779 6.50055,-5.25 1.21922,-1.40222 3.05904,-2.54949 4.08851,-2.54949 1.02946,0 3.02776,-0.90932 4.44066,-2.0207 1.87355,-1.47374 3.87858,-1.97435 7.40736,-1.84945 2.66115,0.0942 5.80752,-0.43394 6.99193,-1.17362 1.82326,-1.13864 3.64489,-1.08061 11.87938,0.37843 10.84738,1.92201 20.18468,5.2792 28.42214,10.21908 6.82012,4.08992 9.77688,7.17376 14.74578,15.37957 l 3.89559,6.4333 -1.77429,3.67237 c -3.57235,7.39391 -14.38103,14.25661 -24.43183,15.51238 -2.84766,0.35579 -13.02579,0.14207 -22.61807,-0.47494 l -17.4405,-1.12183 -13.42735,4.13576 c -12.45999,3.83781 -34.74363,13.96707 -45.07695,20.49022 C 159.45223,240.73961 157,241.61054 157,240.6662 z m 161,-6.63998 c -0.825,-0.54758 -4.875,-1.01867 -9,-1.04687 -6.44316,-0.044 -7.92274,-0.39779 -10.5,-2.51035 l -3,-2.45907 5.14301,-0.005 c 3.52087,-0.003 5.31517,-0.45362 5.68885,-1.42741 0.30021,-0.78234 1.55557,-1.56984 2.78967,-1.75 2.80282,-0.40916 3.87258,-3.88376 4.10329,-13.32756 0.19717,-8.07123 -0.21392,-9.0179 -6.0083,-13.83604 -3.94736,-3.28232 -4.6928,-3.52769 -9.5,-3.12712 -3.83929,0.31992 -4.55649,0.20074 -2.71652,-0.4514 1.375,-0.48734 4.8074,-0.93094 7.62756,-0.98576 2.82015,-0.0548 5.5877,-0.66218 6.15012,-1.34968 0.56241,-0.6875 1.33946,-4.67442 1.72679,-8.85983 0.92715,-10.01858 1.4307,-10.73731 5.4439,-7.77022 2.69416,1.99188 3.09814,2.81925 2.62076,5.36746 -0.31041,1.65692 -0.62891,10.44361 -0.70779,19.52598 -0.12983,14.94966 0.0548,16.90181 1.94924,20.61532 2.17221,4.25787 4.54296,5.37129 11.43686,5.37129 2.45778,0 2.78798,0.2524 1.83399,1.40189 -0.63991,0.77103 -2.29575,1.68607 -3.67965,2.0334 -1.88505,0.47312 -2.43912,1.18751 -2.20898,2.84812 0.26835,1.93628 -0.19863,2.24958 -3.6928,2.4775 -2.2,0.1435 -4.675,-0.18711 -5.5,-0.73469 z"
       style="fill:#4a7736" />
  </g>
  <g
     id="g3025"
     transform="matrix(0.33333333,0,0,0.33333333,0,400)">
    <path
       style="fill:#f59b1c"
       d="m 0,555 0,-45 4.25,-0.0136 C 11.005003,509.96464 13,509.11317 13,506.25179 13,503.10392 5.1721918,495 2.1315789,495 0.90350877,495 0,494.3642 0,493.5 0,492.39288 1.1578383,492 4.4205447,492 c 5.0142,0 4.917592,0.19393 6.0970623,-12.23948 0.35163,-3.70671 1.05932,-6.99905 1.572644,-7.3163 0.513324,-0.31725 2.210621,0.46552 3.77177,1.73948 l 2.838455,2.3163 -0.100238,16 -0.100238,16 5,0.68071 c 2.75,0.37439 9.05,1.18622 14,1.80406 11.984002,1.49581 26.785128,6.56206 42.465814,14.53556 28.555106,14.52003 46.351066,31.39588 58.517556,55.49204 2.36391,4.68181 4.99795,10.86931 5.85342,13.75 L 145.8922,600 72.9461,600 0,600 0,555 z m 484,44.16516 c 0,-1.71974 4.31349,-13.89462 7.10513,-20.05431 9.07452,-20.02276 29.06285,-41.01635 49.96166,-52.47437 13.30159,-7.29274 33.47393,-13.22717 54.68321,-16.08704 l 4.25,-0.57308 0,45.01182 0,45.01182 -58,0 c -31.9,0 -58,-0.37568 -58,-0.83484 z M 457,541.1662 c 0,-1.52415 12.92733,-26.45812 14.81757,-28.57983 1.02231,-1.1475 2.42876,-3.53097 3.12544,-5.2966 0.69668,-1.76563 3.22228,-5.72865 5.61245,-8.80672 2.39018,-3.07807 4.60161,-6.40258 4.91431,-7.3878 0.31269,-0.98522 2.32825,-3.20545 4.479,-4.93384 2.15075,-1.72839 4.16391,-3.93428 4.47367,-4.90197 0.30977,-0.96769 2.49093,-2.97467 4.84703,-4.45995 2.35609,-1.48529 5.28134,-3.84779 6.50055,-5.25 1.21922,-1.40222 3.05904,-2.54949 4.08851,-2.54949 1.02946,0 3.02776,-0.90932 4.44066,-2.0207 1.87355,-1.47374 3.87858,-1.97435 7.40736,-1.84945 2.66115,0.0942 5.80752,-0.43394 6.99193,-1.17362 1.82326,-1.13864 3.64489,-1.08061 11.87938,0.37843 21.6764,3.84077 36.38358,12.69146 43.55609,26.21177 2.61217,4.92399 3.19469,5.09062 10.28093,2.94096 5.28239,-1.60246 6.16437,-1.43928 5.24004,0.96948 C 599.24003,495.53805 597.68659,496 594.46564,496 589.27613,496 586,497.36697 586,499.5323 c 0,2.80885 -7.26874,9.47459 -13.85761,12.70802 L 565.5,515.5 l -21.63652,-0.30229 -21.63653,-0.30229 -12.36347,3.67367 C 497.5328,522.23301 476.15251,531.72521 465.07885,538.4521 459.25607,541.98926 457,542.74718 457,541.1662 z M 285.8625,435.98958 c -16.22247,-2.55977 -35.17288,-9.39123 -48.56146,-17.506 -26.80481,-16.24631 -44.4755,-39.01583 -51.9838,-66.98358 -2.4381,-9.08172 -2.69071,-11.69881 -2.75093,-28.5 -0.0545,-15.19318 0.27301,-19.75123 1.832,-25.5 9.51727,-35.09474 36.58646,-64.29533 72.15658,-77.8381 10.34612,-3.93913 30.18672,-8.27084 41.94511,-9.15769 13.75846,-1.03769 14.5,-1.25152 14.5,-4.1811 0,-1.72629 -1.47483,-4.0611 -4.43534,-7.02161 l -4.43535,-4.43535 -7.31465,0.69648 C 288.73026,196.33241 286,197.33459 286,199.5323 c 0,2.80885 -7.26874,9.47459 -13.85761,12.70802 L 265.5,215.5 l -21.63652,-0.30229 -21.63653,-0.30229 -12.36347,3.66525 c -11.56851,3.42957 -35.06021,13.96558 -47.05279,21.10313 -2.57912,1.535 -5.01026,2.46996 -5.40254,2.07768 -0.82671,-0.8267 12.12775,-27.11142 14.21609,-28.84459 0.76948,-0.63861 2.24965,-3.08403 3.28927,-5.43427 1.03962,-2.35023 3.70514,-6.5692 5.92338,-9.37548 2.21824,-2.80628 4.29601,-5.93053 4.61729,-6.94276 0.32127,-1.01224 2.34384,-3.25458 4.49459,-4.98297 2.15075,-1.72839 4.16391,-3.93428 4.47367,-4.90197 0.30977,-0.96769 2.49093,-2.97467 4.84703,-4.45995 2.35609,-1.48529 5.28134,-3.84779 6.50055,-5.25 1.21922,-1.40222 3.05904,-2.54949 4.08851,-2.54949 1.02946,0 3.02776,-0.90932 4.44066,-2.0207 1.87355,-1.47374 3.87858,-1.97435 7.40736,-1.84945 2.66115,0.0942 5.80752,-0.43394 6.99193,-1.17362 1.82326,-1.13864 3.64489,-1.08061 11.87938,0.37843 21.74032,3.8521 36.49182,12.75425 43.55781,26.28603 2.59808,4.97548 1.74225,4.81378 12.86433,2.43063 2.475,-0.53032 6.15175,-0.98382 8.17054,-1.00777 4.14582,-0.0492 4.19787,-0.16876 5.34707,-12.28303 0.35163,-3.70671 1.05932,-6.99905 1.57264,-7.3163 0.51332,-0.31725 2.21062,0.46552 3.77177,1.73948 l 2.83846,2.3163 -0.10024,16 -0.10024,16 5,0.68071 c 2.75,0.37439 9.05,1.18622 14,1.80406 11.984,1.49581 26.78513,6.56206 42.46581,14.53556 28.63311,14.55969 46.34669,31.38552 58.60669,55.66951 6.47192,12.81925 8.52935,20.99867 9.13336,36.31016 0.79584,20.17397 -2.70536,36.24297 -12.20158,56 -15.22514,31.67615 -47.02248,52.46033 -92.59112,60.52177 -13.79072,2.43969 -46.83652,3.57951 -57.05066,1.96781 z M 0,68.643577 0,0 l 72.883369,0 72.883371,0 0.69644,2.25 c 0.38305,1.2375 0.93474,8.1 1.22598,15.25 0.8208,20.150505 -2.67414,36.212759 -12.18488,56 C 117.18609,111.61129 73.545599,134.5541 15.25,136.72044 L 0,137.28715 0,68.643577 z m 585.8625,67.284493 c -15.67382,-2.30219 -35.07979,-9.2733 -48.56146,-17.44449 C 510.5023,102.24095 492.85024,79.499372 485.30824,51.5 482.84341,42.349431 482.60974,39.886081 482.5573,22.5 482.5258,12.05 482.82338,2.7125 483.21862,1.75 483.89137,0.11169287 487.64105,0 541.96862,0 L 600,0 l 0,68.5 0,68.5 -4.25,-0.12194 c -2.3375,-0.0671 -6.78687,-0.49456 -9.8875,-0.94999 z"
       id="path3027"
       inkscape:connector-curvature="0" />
    <path
       style="fill:#4a7736"
       d="m 457,540.6662 c 0,-1.1671 13.30692,-26.38419 14.81757,-28.07983 1.02231,-1.1475 2.42876,-3.53097 3.12544,-5.2966 0.69668,-1.76563 3.22228,-5.72865 5.61245,-8.80672 2.39018,-3.07807 4.60161,-6.40258 4.91431,-7.3878 0.31269,-0.98522 2.32825,-3.20545 4.479,-4.93384 2.15075,-1.72839 4.16391,-3.93428 4.47367,-4.90197 0.30977,-0.96769 2.49093,-2.97467 4.84703,-4.45995 2.35609,-1.48529 5.28134,-3.84779 6.50055,-5.25 1.21922,-1.40222 3.05904,-2.54949 4.08851,-2.54949 1.02946,0 3.02776,-0.90932 4.44066,-2.0207 1.87355,-1.47374 3.87858,-1.97435 7.40736,-1.84945 2.66115,0.0942 5.80752,-0.43394 6.99193,-1.17362 1.82326,-1.13864 3.64489,-1.08061 11.87938,0.37843 10.84738,1.92201 20.18468,5.2792 28.42214,10.21908 6.82012,4.08992 9.77688,7.17376 14.74578,15.37957 l 3.89559,6.4333 -1.77429,3.67237 c -3.57235,7.39391 -14.38103,14.25661 -24.43183,15.51238 -2.84766,0.35579 -13.02579,0.14207 -22.61807,-0.47494 l -17.4405,-1.12183 -13.42735,4.13576 c -12.45999,3.83781 -34.74363,13.96707 -45.07695,20.49022 C 459.45223,540.73961 457,541.61054 457,540.6662 z M 18,533.99321 c -0.825,-0.56574 -5.1,-0.94853 -9.5,-0.85066 -7.96762011,0.17724 -8.00128071,0.16719 -8.31642235,-2.4823 C -0.09622096,528.30791 0.20968962,528 2.8265889,528 c 1.6363946,0 3.2034557,-0.63591 3.5052733,-1.42244 0.300212,-0.78234 1.5555634,-1.56984 2.78967,-1.75 1.5050018,-0.2197 2.5218088,-1.31537 3.0880548,-3.32756 1.203308,-4.27603 1.362133,-16.69621 0.238325,-18.63712 C 10.71894,499.8768 2.9589484,494.07852 1.460907,494.65337 0.56840036,494.99586 0,494.6132 0,493.66986 c 0,-1.20551 0.76565111,-1.41987 3.4915364,-0.97752 5.1183587,0.83059 6.2089662,-0.66053 6.9973816,-9.56715 0.905885,-10.23365 1.421922,-10.99032 5.459448,-8.00524 2.694164,1.99188 3.098143,2.81925 2.620764,5.36746 -0.310405,1.65692 -0.62891,10.44361 -0.707788,19.52598 -0.129833,14.94966 0.05475,16.90181 1.949239,20.61532 2.172206,4.25787 4.542956,5.37129 11.436864,5.37129 2.457777,0 2.787972,0.2524 1.833982,1.40189 -0.639905,0.77103 -2.295744,1.68607 -3.679644,2.0334 -1.885052,0.47312 -2.439126,1.18751 -2.208982,2.84812 0.268351,1.93628 -0.198635,2.24958 -3.692801,2.4775 -2.2,0.1435 -4.675,-0.20196 -5.5,-0.7677 z m 579.70683,-3.75261 c -1.66457,-1.85052 -1.67223,-2.0399 -0.10687,-2.64058 2.15722,-0.82781 2.64105,-0.30053 2.23084,2.43116 -0.32943,2.1938 -0.33821,2.19466 -2.12397,0.20942 z m -2.53517,-36.21912 c 1.46941,-0.44363 3.15691,-1.10651 3.75,-1.47306 0.59499,-0.36773 1.07834,0.0323 1.07834,0.89256 0,1.15015 -0.98349,1.53648 -3.75,1.47307 -3.48598,-0.0799 -3.5619,-0.14274 -1.07834,-0.89257 z M 157,240.6662 c 0,-1.1671 13.30692,-26.38419 14.81757,-28.07983 1.02231,-1.1475 2.42876,-3.53097 3.12544,-5.2966 0.69668,-1.76563 3.22228,-5.72865 5.61245,-8.80672 2.39018,-3.07807 4.60161,-6.40258 4.91431,-7.3878 0.31269,-0.98522 2.32825,-3.20545 4.479,-4.93384 2.15075,-1.72839 4.16391,-3.93428 4.47367,-4.90197 0.30977,-0.96769 2.49093,-2.97467 4.84703,-4.45995 2.35609,-1.48529 5.28134,-3.84779 6.50055,-5.25 1.21922,-1.40222 3.05904,-2.54949 4.08851,-2.54949 1.02946,0 3.02776,-0.90932 4.44066,-2.0207 1.87355,-1.47374 3.87858,-1.97435 7.40736,-1.84945 2.66115,0.0942 5.80752,-0.43394 6.99193,-1.17362 1.82326,-1.13864 3.64489,-1.08061 11.87938,0.37843 10.84738,1.92201 20.18468,5.2792 28.42214,10.21908 6.82012,4.08992 9.77688,7.17376 14.74578,15.37957 l 3.89559,6.4333 -1.77429,3.67237 c -3.57235,7.39391 -14.38103,14.25661 -24.43183,15.51238 -2.84766,0.35579 -13.02579,0.14207 -22.61807,-0.47494 l -17.4405,-1.12183 -13.42735,4.13576 c -12.45999,3.83781 -34.74363,13.96707 -45.07695,20.49022 C 159.45223,240.73961 157,241.61054 157,240.6662 z m 161,-6.63998 c -0.825,-0.54758 -4.875,-1.01867 -9,-1.04687 -6.44316,-0.044 -7.92274,-0.39779 -10.5,-2.51035 l -3,-2.45907 5.14301,-0.005 c 3.52087,-0.003 5.31517,-0.45362 5.68885,-1.42741 0.30021,-0.78234 1.55557,-1.56984 2.78967,-1.75 2.80282,-0.40916 3.87258,-3.88376 4.10329,-13.32756 0.19717,-8.07123 -0.21392,-9.0179 -6.0083,-13.83604 -3.94736,-3.28232 -4.6928,-3.52769 -9.5,-3.12712 -3.83929,0.31992 -4.55649,0.20074 -2.71652,-0.4514 1.375,-0.48734 4.8074,-0.93094 7.62756,-0.98576 2.82015,-0.0548 5.5877,-0.66218 6.15012,-1.34968 0.56241,-0.6875 1.33946,-4.67442 1.72679,-8.85983 0.92715,-10.01858 1.4307,-10.73731 5.4439,-7.77022 2.69416,1.99188 3.09814,2.81925 2.62076,5.36746 -0.31041,1.65692 -0.62891,10.44361 -0.70779,19.52598 -0.12983,14.94966 0.0548,16.90181 1.94924,20.61532 2.17221,4.25787 4.54296,5.37129 11.43686,5.37129 2.45778,0 2.78798,0.2524 1.83399,1.40189 -0.63991,0.77103 -2.29575,1.68607 -3.67965,2.0334 -1.88505,0.47312 -2.43912,1.18751 -2.20898,2.84812 0.26835,1.93628 -0.19863,2.24958 -3.6928,2.4775 -2.2,0.1435 -4.675,-0.18711 -5.5,-0.73469 z"
       id="path3029"
       inkscape:connector-curvature="0" />
  </g>
  <g
     transform="matrix(0.33333333,0,0,0.33333333,200,400)"
     id="g3031">
    <path
       inkscape:connector-curvature="0"
       id="path3033"
       d="m 0,555 0,-45 4.25,-0.0136 C 11.005003,509.96464 13,509.11317 13,506.25179 13,503.10392 5.1721918,495 2.1315789,495 0.90350877,495 0,494.3642 0,493.5 0,492.39288 1.1578383,492 4.4205447,492 c 5.0142,0 4.917592,0.19393 6.0970623,-12.23948 0.35163,-3.70671 1.05932,-6.99905 1.572644,-7.3163 0.513324,-0.31725 2.210621,0.46552 3.77177,1.73948 l 2.838455,2.3163 -0.100238,16 -0.100238,16 5,0.68071 c 2.75,0.37439 9.05,1.18622 14,1.80406 11.984002,1.49581 26.785128,6.56206 42.465814,14.53556 28.555106,14.52003 46.351066,31.39588 58.517556,55.49204 2.36391,4.68181 4.99795,10.86931 5.85342,13.75 L 145.8922,600 72.9461,600 0,600 0,555 z m 484,44.16516 c 0,-1.71974 4.31349,-13.89462 7.10513,-20.05431 9.07452,-20.02276 29.06285,-41.01635 49.96166,-52.47437 13.30159,-7.29274 33.47393,-13.22717 54.68321,-16.08704 l 4.25,-0.57308 0,45.01182 0,45.01182 -58,0 c -31.9,0 -58,-0.37568 -58,-0.83484 z M 457,541.1662 c 0,-1.52415 12.92733,-26.45812 14.81757,-28.57983 1.02231,-1.1475 2.42876,-3.53097 3.12544,-5.2966 0.69668,-1.76563 3.22228,-5.72865 5.61245,-8.80672 2.39018,-3.07807 4.60161,-6.40258 4.91431,-7.3878 0.31269,-0.98522 2.32825,-3.20545 4.479,-4.93384 2.15075,-1.72839 4.16391,-3.93428 4.47367,-4.90197 0.30977,-0.96769 2.49093,-2.97467 4.84703,-4.45995 2.35609,-1.48529 5.28134,-3.84779 6.50055,-5.25 1.21922,-1.40222 3.05904,-2.54949 4.08851,-2.54949 1.02946,0 3.02776,-0.90932 4.44066,-2.0207 1.87355,-1.47374 3.87858,-1.97435 7.40736,-1.84945 2.66115,0.0942 5.80752,-0.43394 6.99193,-1.17362 1.82326,-1.13864 3.64489,-1.08061 11.87938,0.37843 21.6764,3.84077 36.38358,12.69146 43.55609,26.21177 2.61217,4.92399 3.19469,5.09062 10.28093,2.94096 5.28239,-1.60246 6.16437,-1.43928 5.24004,0.96948 C 599.24003,495.53805 597.68659,496 594.46564,496 589.27613,496 586,497.36697 586,499.5323 c 0,2.80885 -7.26874,9.47459 -13.85761,12.70802 L 565.5,515.5 l -21.63652,-0.30229 -21.63653,-0.30229 -12.36347,3.67367 C 497.5328,522.23301 476.15251,531.72521 465.07885,538.4521 459.25607,541.98926 457,542.74718 457,541.1662 z M 285.8625,435.98958 c -16.22247,-2.55977 -35.17288,-9.39123 -48.56146,-17.506 -26.80481,-16.24631 -44.4755,-39.01583 -51.9838,-66.98358 -2.4381,-9.08172 -2.69071,-11.69881 -2.75093,-28.5 -0.0545,-15.19318 0.27301,-19.75123 1.832,-25.5 9.51727,-35.09474 36.58646,-64.29533 72.15658,-77.8381 10.34612,-3.93913 30.18672,-8.27084 41.94511,-9.15769 13.75846,-1.03769 14.5,-1.25152 14.5,-4.1811 0,-1.72629 -1.47483,-4.0611 -4.43534,-7.02161 l -4.43535,-4.43535 -7.31465,0.69648 C 288.73026,196.33241 286,197.33459 286,199.5323 c 0,2.80885 -7.26874,9.47459 -13.85761,12.70802 L 265.5,215.5 l -21.63652,-0.30229 -21.63653,-0.30229 -12.36347,3.66525 c -11.56851,3.42957 -35.06021,13.96558 -47.05279,21.10313 -2.57912,1.535 -5.01026,2.46996 -5.40254,2.07768 -0.82671,-0.8267 12.12775,-27.11142 14.21609,-28.84459 0.76948,-0.63861 2.24965,-3.08403 3.28927,-5.43427 1.03962,-2.35023 3.70514,-6.5692 5.92338,-9.37548 2.21824,-2.80628 4.29601,-5.93053 4.61729,-6.94276 0.32127,-1.01224 2.34384,-3.25458 4.49459,-4.98297 2.15075,-1.72839 4.16391,-3.93428 4.47367,-4.90197 0.30977,-0.96769 2.49093,-2.97467 4.84703,-4.45995 2.35609,-1.48529 5.28134,-3.84779 6.50055,-5.25 1.21922,-1.40222 3.05904,-2.54949 4.08851,-2.54949 1.02946,0 3.02776,-0.90932 4.44066,-2.0207 1.87355,-1.47374 3.87858,-1.97435 7.40736,-1.84945 2.66115,0.0942 5.80752,-0.43394 6.99193,-1.17362 1.82326,-1.13864 3.64489,-1.08061 11.87938,0.37843 21.74032,3.8521 36.49182,12.75425 43.55781,26.28603 2.59808,4.97548 1.74225,4.81378 12.86433,2.43063 2.475,-0.53032 6.15175,-0.98382 8.17054,-1.00777 4.14582,-0.0492 4.19787,-0.16876 5.34707,-12.28303 0.35163,-3.70671 1.05932,-6.99905 1.57264,-7.3163 0.51332,-0.31725 2.21062,0.46552 3.77177,1.73948 l 2.83846,2.3163 -0.10024,16 -0.10024,16 5,0.68071 c 2.75,0.37439 9.05,1.18622 14,1.80406 11.984,1.49581 26.78513,6.56206 42.46581,14.53556 28.63311,14.55969 46.34669,31.38552 58.60669,55.66951 6.47192,12.81925 8.52935,20.99867 9.13336,36.31016 0.79584,20.17397 -2.70536,36.24297 -12.20158,56 -15.22514,31.67615 -47.02248,52.46033 -92.59112,60.52177 -13.79072,2.43969 -46.83652,3.57951 -57.05066,1.96781 z M 0,68.643577 0,0 l 72.883369,0 72.883371,0 0.69644,2.25 c 0.38305,1.2375 0.93474,8.1 1.22598,15.25 0.8208,20.150505 -2.67414,36.212759 -12.18488,56 C 117.18609,111.61129 73.545599,134.5541 15.25,136.72044 L 0,137.28715 0,68.643577 z m 585.8625,67.284493 c -15.67382,-2.30219 -35.07979,-9.2733 -48.56146,-17.44449 C 510.5023,102.24095 492.85024,79.499372 485.30824,51.5 482.84341,42.349431 482.60974,39.886081 482.5573,22.5 482.5258,12.05 482.82338,2.7125 483.21862,1.75 483.89137,0.11169287 487.64105,0 541.96862,0 L 600,0 l 0,68.5 0,68.5 -4.25,-0.12194 c -2.3375,-0.0671 -6.78687,-0.49456 -9.8875,-0.94999 z"
       style="fill:#f59b1c" />
    <path
       inkscape:connector-curvature="0"
       id="path3035"
       d="m 457,540.6662 c 0,-1.1671 13.30692,-26.38419 14.81757,-28.07983 1.02231,-1.1475 2.42876,-3.53097 3.12544,-5.2966 0.69668,-1.76563 3.22228,-5.72865 5.61245,-8.80672 2.39018,-3.07807 4.60161,-6.40258 4.91431,-7.3878 0.31269,-0.98522 2.32825,-3.20545 4.479,-4.93384 2.15075,-1.72839 4.16391,-3.93428 4.47367,-4.90197 0.30977,-0.96769 2.49093,-2.97467 4.84703,-4.45995 2.35609,-1.48529 5.28134,-3.84779 6.50055,-5.25 1.21922,-1.40222 3.05904,-2.54949 4.08851,-2.54949 1.02946,0 3.02776,-0.90932 4.44066,-2.0207 1.87355,-1.47374 3.87858,-1.97435 7.40736,-1.84945 2.66115,0.0942 5.80752,-0.43394 6.99193,-1.17362 1.82326,-1.13864 3.64489,-1.08061 11.87938,0.37843 10.84738,1.92201 20.18468,5.2792 28.42214,10.21908 6.82012,4.08992 9.77688,7.17376 14.74578,15.37957 l 3.89559,6.4333 -1.77429,3.67237 c -3.57235,7.39391 -14.38103,14.25661 -24.43183,15.51238 -2.84766,0.35579 -13.02579,0.14207 -22.61807,-0.47494 l -17.4405,-1.12183 -13.42735,4.13576 c -12.45999,3.83781 -34.74363,13.96707 -45.07695,20.49022 C 459.45223,540.73961 457,541.61054 457,540.6662 z M 18,533.99321 c -0.825,-0.56574 -5.1,-0.94853 -9.5,-0.85066 -7.96762011,0.17724 -8.00128071,0.16719 -8.31642235,-2.4823 C -0.09622096,528.30791 0.20968962,528 2.8265889,528 c 1.6363946,0 3.2034557,-0.63591 3.5052733,-1.42244 0.300212,-0.78234 1.5555634,-1.56984 2.78967,-1.75 1.5050018,-0.2197 2.5218088,-1.31537 3.0880548,-3.32756 1.203308,-4.27603 1.362133,-16.69621 0.238325,-18.63712 C 10.71894,499.8768 2.9589484,494.07852 1.460907,494.65337 0.56840036,494.99586 0,494.6132 0,493.66986 c 0,-1.20551 0.76565111,-1.41987 3.4915364,-0.97752 5.1183587,0.83059 6.2089662,-0.66053 6.9973816,-9.56715 0.905885,-10.23365 1.421922,-10.99032 5.459448,-8.00524 2.694164,1.99188 3.098143,2.81925 2.620764,5.36746 -0.310405,1.65692 -0.62891,10.44361 -0.707788,19.52598 -0.129833,14.94966 0.05475,16.90181 1.949239,20.61532 2.172206,4.25787 4.542956,5.37129 11.436864,5.37129 2.457777,0 2.787972,0.2524 1.833982,1.40189 -0.639905,0.77103 -2.295744,1.68607 -3.679644,2.0334 -1.885052,0.47312 -2.439126,1.18751 -2.208982,2.84812 0.268351,1.93628 -0.198635,2.24958 -3.692801,2.4775 -2.2,0.1435 -4.675,-0.20196 -5.5,-0.7677 z m 579.70683,-3.75261 c -1.66457,-1.85052 -1.67223,-2.0399 -0.10687,-2.64058 2.15722,-0.82781 2.64105,-0.30053 2.23084,2.43116 -0.32943,2.1938 -0.33821,2.19466 -2.12397,0.20942 z m -2.53517,-36.21912 c 1.46941,-0.44363 3.15691,-1.10651 3.75,-1.47306 0.59499,-0.36773 1.07834,0.0323 1.07834,0.89256 0,1.15015 -0.98349,1.53648 -3.75,1.47307 -3.48598,-0.0799 -3.5619,-0.14274 -1.07834,-0.89257 z M 157,240.6662 c 0,-1.1671 13.30692,-26.38419 14.81757,-28.07983 1.02231,-1.1475 2.42876,-3.53097 3.12544,-5.2966 0.69668,-1.76563 3.22228,-5.72865 5.61245,-8.80672 2.39018,-3.07807 4.60161,-6.40258 4.91431,-7.3878 0.31269,-0.98522 2.32825,-3.20545 4.479,-4.93384 2.15075,-1.72839 4.16391,-3.93428 4.47367,-4.90197 0.30977,-0.96769 2.49093,-2.97467 4.84703,-4.45995 2.35609,-1.48529 5.28134,-3.84779 6.50055,-5.25 1.21922,-1.40222 3.05904,-2.54949 4.08851,-2.54949 1.02946,0 3.02776,-0.90932 4.44066,-2.0207 1.87355,-1.47374 3.87858,-1.97435 7.40736,-1.84945 2.66115,0.0942 5.80752,-0.43394 6.99193,-1.17362 1.82326,-1.13864 3.64489,-1.08061 11.87938,0.37843 10.84738,1.92201 20.18468,5.2792 28.42214,10.21908 6.82012,4.08992 9.77688,7.17376 14.74578,15.37957 l 3.89559,6.4333 -1.77429,3.67237 c -3.57235,7.39391 -14.38103,14.25661 -24.43183,15.51238 -2.84766,0.35579 -13.02579,0.14207 -22.61807,-0.47494 l -17.4405,-1.12183 -13.42735,4.13576 c -12.45999,3.83781 -34.74363,13.96707 -45.07695,20.49022 C 159.45223,240.73961 157,241.61054 157,240.6662 z m 161,-6.63998 c -0.825,-0.54758 -4.875,-1.01867 -9,-1.04687 -6.44316,-0.044 -7.92274,-0.39779 -10.5,-2.51035 l -3,-2.45907 5.14301,-0.005 c 3.52087,-0.003 5.31517,-0.45362 5.68885,-1.42741 0.30021,-0.78234 1.55557,-1.56984 2.78967,-1.75 2.80282,-0.40916 3.87258,-3.88376 4.10329,-13.32756 0.19717,-8.07123 -0.21392,-9.0179 -6.0083,-13.83604 -3.94736,-3.28232 -4.6928,-3.52769 -9.5,-3.12712 -3.83929,0.31992 -4.55649,0.20074 -2.71652,-0.4514 1.375,-0.48734 4.8074,-0.93094 7.62756,-0.98576 2.82015,-0.0548 5.5877,-0.66218 6.15012,-1.34968 0.56241,-0.6875 1.33946,-4.67442 1.72679,-8.85983 0.92715,-10.01858 1.4307,-10.73731 5.4439,-7.77022 2.69416,1.99188 3.09814,2.81925 2.62076,5.36746 -0.31041,1.65692 -0.62891,10.44361 -0.70779,19.52598 -0.12983,14.94966 0.0548,16.90181 1.94924,20.61532 2.17221,4.25787 4.54296,5.37129 11.43686,5.37129 2.45778,0 2.78798,0.2524 1.83399,1.40189 -0.63991,0.77103 -2.29575,1.68607 -3.67965,2.0334 -1.88505,0.47312 -2.43912,1.18751 -2.20898,2.84812 0.26835,1.93628 -0.19863,2.24958 -3.6928,2.4775 -2.2,0.1435 -4.675,-0.18711 -5.5,-0.73469 z"
       style="fill:#4a7736" />
  </g>
  <g
     id="g3037"
     transform="matrix(0.33333333,0,0,0.33333333,400,400)">
    <path
       style="fill:#f59b1c"
       d="m 0,555 0,-45 4.25,-0.0136 C 11.005003,509.96464 13,509.11317 13,506.25179 13,503.10392 5.1721918,495 2.1315789,495 0.90350877,495 0,494.3642 0,493.5 0,492.39288 1.1578383,492 4.4205447,492 c 5.0142,0 4.917592,0.19393 6.0970623,-12.23948 0.35163,-3.70671 1.05932,-6.99905 1.572644,-7.3163 0.513324,-0.31725 2.210621,0.46552 3.77177,1.73948 l 2.838455,2.3163 -0.100238,16 -0.100238,16 5,0.68071 c 2.75,0.37439 9.05,1.18622 14,1.80406 11.984002,1.49581 26.785128,6.56206 42.465814,14.53556 28.555106,14.52003 46.351066,31.39588 58.517556,55.49204 2.36391,4.68181 4.99795,10.86931 5.85342,13.75 L 145.8922,600 72.9461,600 0,600 0,555 z m 484,44.16516 c 0,-1.71974 4.31349,-13.89462 7.10513,-20.05431 9.07452,-20.02276 29.06285,-41.01635 49.96166,-52.47437 13.30159,-7.29274 33.47393,-13.22717 54.68321,-16.08704 l 4.25,-0.57308 0,45.01182 0,45.01182 -58,0 c -31.9,0 -58,-0.37568 -58,-0.83484 z M 457,541.1662 c 0,-1.52415 12.92733,-26.45812 14.81757,-28.57983 1.02231,-1.1475 2.42876,-3.53097 3.12544,-5.2966 0.69668,-1.76563 3.22228,-5.72865 5.61245,-8.80672 2.39018,-3.07807 4.60161,-6.40258 4.91431,-7.3878 0.31269,-0.98522 2.32825,-3.20545 4.479,-4.93384 2.15075,-1.72839 4.16391,-3.93428 4.47367,-4.90197 0.30977,-0.96769 2.49093,-2.97467 4.84703,-4.45995 2.35609,-1.48529 5.28134,-3.84779 6.50055,-5.25 1.21922,-1.40222 3.05904,-2.54949 4.08851,-2.54949 1.02946,0 3.02776,-0.90932 4.44066,-2.0207 1.87355,-1.47374 3.87858,-1.97435 7.40736,-1.84945 2.66115,0.0942 5.80752,-0.43394 6.99193,-1.17362 1.82326,-1.13864 3.64489,-1.08061 11.87938,0.37843 21.6764,3.84077 36.38358,12.69146 43.55609,26.21177 2.61217,4.92399 3.19469,5.09062 10.28093,2.94096 5.28239,-1.60246 6.16437,-1.43928 5.24004,0.96948 C 599.24003,495.53805 597.68659,496 594.46564,496 589.27613,496 586,497.36697 586,499.5323 c 0,2.80885 -7.26874,9.47459 -13.85761,12.70802 L 565.5,515.5 l -21.63652,-0.30229 -21.63653,-0.30229 -12.36347,3.67367 C 497.5328,522.23301 476.15251,531.72521 465.07885,538.4521 459.25607,541.98926 457,542.74718 457,541.1662 z M 285.8625,435.98958 c -16.22247,-2.55977 -35.17288,-9.39123 -48.56146,-17.506 -26.80481,-16.24631 -44.4755,-39.01583 -51.9838,-66.98358 -2.4381,-9.08172 -2.69071,-11.69881 -2.75093,-28.5 -0.0545,-15.19318 0.27301,-19.75123 1.832,-25.5 9.51727,-35.09474 36.58646,-64.29533 72.15658,-77.8381 10.34612,-3.93913 30.18672,-8.27084 41.94511,-9.15769 13.75846,-1.03769 14.5,-1.25152 14.5,-4.1811 0,-1.72629 -1.47483,-4.0611 -4.43534,-7.02161 l -4.43535,-4.43535 -7.31465,0.69648 C 288.73026,196.33241 286,197.33459 286,199.5323 c 0,2.80885 -7.26874,9.47459 -13.85761,12.70802 L 265.5,215.5 l -21.63652,-0.30229 -21.63653,-0.30229 -12.36347,3.66525 c -11.56851,3.42957 -35.06021,13.96558 -47.05279,21.10313 -2.57912,1.535 -5.01026,2.46996 -5.40254,2.07768 -0.82671,-0.8267 12.12775,-27.11142 14.21609,-28.84459 0.76948,-0.63861 2.24965,-3.08403 3.28927,-5.43427 1.03962,-2.35023 3.70514,-6.5692 5.92338,-9.37548 2.21824,-2.80628 4.29601,-5.93053 4.61729,-6.94276 0.32127,-1.01224 2.34384,-3.25458 4.49459,-4.98297 2.15075,-1.72839 4.16391,-3.93428 4.47367,-4.90197 0.30977,-0.96769 2.49093,-2.97467 4.84703,-4.45995 2.35609,-1.48529 5.28134,-3.84779 6.50055,-5.25 1.21922,-1.40222 3.05904,-2.54949 4.08851,-2.54949 1.02946,0 3.02776,-0.90932 4.44066,-2.0207 1.87355,-1.47374 3.87858,-1.97435 7.40736,-1.84945 2.66115,0.0942 5.80752,-0.43394 6.99193,-1.17362 1.82326,-1.13864 3.64489,-1.08061 11.87938,0.37843 21.74032,3.8521 36.49182,12.75425 43.55781,26.28603 2.59808,4.97548 1.74225,4.81378 12.86433,2.43063 2.475,-0.53032 6.15175,-0.98382 8.17054,-1.00777 4.14582,-0.0492 4.19787,-0.16876 5.34707,-12.28303 0.35163,-3.70671 1.05932,-6.99905 1.57264,-7.3163 0.51332,-0.31725 2.21062,0.46552 3.77177,1.73948 l 2.83846,2.3163 -0.10024,16 -0.10024,16 5,0.68071 c 2.75,0.37439 9.05,1.18622 14,1.80406 11.984,1.49581 26.78513,6.56206 42.46581,14.53556 28.63311,14.55969 46.34669,31.38552 58.60669,55.66951 6.47192,12.81925 8.52935,20.99867 9.13336,36.31016 0.79584,20.17397 -2.70536,36.24297 -12.20158,56 -15.22514,31.67615 -47.02248,52.46033 -92.59112,60.52177 -13.79072,2.43969 -46.83652,3.57951 -57.05066,1.96781 z M 0,68.643577 0,0 l 72.883369,0 72.883371,0 0.69644,2.25 c 0.38305,1.2375 0.93474,8.1 1.22598,15.25 0.8208,20.150505 -2.67414,36.212759 -12.18488,56 C 117.18609,111.61129 73.545599,134.5541 15.25,136.72044 L 0,137.28715 0,68.643577 z m 585.8625,67.284493 c -15.67382,-2.30219 -35.07979,-9.2733 -48.56146,-17.44449 C 510.5023,102.24095 492.85024,79.499372 485.30824,51.5 482.84341,42.349431 482.60974,39.886081 482.5573,22.5 482.5258,12.05 482.82338,2.7125 483.21862,1.75 483.89137,0.11169287 487.64105,0 541.96862,0 L 600,0 l 0,68.5 0,68.5 -4.25,-0.12194 c -2.3375,-0.0671 -6.78687,-0.49456 -9.8875,-0.94999 z"
       id="path3039"
       inkscape:connector-curvature="0" />
    <path
       style="fill:#4a7736"
       d="m 457,540.6662 c 0,-1.1671 13.30692,-26.38419 14.81757,-28.07983 1.02231,-1.1475 2.42876,-3.53097 3.12544,-5.2966 0.69668,-1.76563 3.22228,-5.72865 5.61245,-8.80672 2.39018,-3.07807 4.60161,-6.40258 4.91431,-7.3878 0.31269,-0.98522 2.32825,-3.20545 4.479,-4.93384 2.15075,-1.72839 4.16391,-3.93428 4.47367,-4.90197 0.30977,-0.96769 2.49093,-2.97467 4.84703,-4.45995 2.35609,-1.48529 5.28134,-3.84779 6.50055,-5.25 1.21922,-1.40222 3.05904,-2.54949 4.08851,-2.54949 1.02946,0 3.02776,-0.90932 4.44066,-2.0207 1.87355,-1.47374 3.87858,-1.97435 7.40736,-1.84945 2.66115,0.0942 5.80752,-0.43394 6.99193,-1.17362 1.82326,-1.13864 3.64489,-1.08061 11.87938,0.37843 10.84738,1.92201 20.18468,5.2792 28.42214,10.21908 6.82012,4.08992 9.77688,7.17376 14.74578,15.37957 l 3.89559,6.4333 -1.77429,3.67237 c -3.57235,7.39391 -14.38103,14.25661 -24.43183,15.51238 -2.84766,0.35579 -13.02579,0.14207 -22.61807,-0.47494 l -17.4405,-1.12183 -13.42735,4.13576 c -12.45999,3.83781 -34.74363,13.96707 -45.07695,20.49022 C 459.45223,540.73961 457,541.61054 457,540.6662 z M 18,533.99321 c -0.825,-0.56574 -5.1,-0.94853 -9.5,-0.85066 -7.96762011,0.17724 -8.00128071,0.16719 -8.31642235,-2.4823 C -0.09622096,528.30791 0.20968962,528 2.8265889,528 c 1.6363946,0 3.2034557,-0.63591 3.5052733,-1.42244 0.300212,-0.78234 1.5555634,-1.56984 2.78967,-1.75 1.5050018,-0.2197 2.5218088,-1.31537 3.0880548,-3.32756 1.203308,-4.27603 1.362133,-16.69621 0.238325,-18.63712 C 10.71894,499.8768 2.9589484,494.07852 1.460907,494.65337 0.56840036,494.99586 0,494.6132 0,493.66986 c 0,-1.20551 0.76565111,-1.41987 3.4915364,-0.97752 5.1183587,0.83059 6.2089662,-0.66053 6.9973816,-9.56715 0.905885,-10.23365 1.421922,-10.99032 5.459448,-8.00524 2.694164,1.99188 3.098143,2.81925 2.620764,5.36746 -0.310405,1.65692 -0.62891,10.44361 -0.707788,19.52598 -0.129833,14.94966 0.05475,16.90181 1.949239,20.61532 2.172206,4.25787 4.542956,5.37129 11.436864,5.37129 2.457777,0 2.787972,0.2524 1.833982,1.40189 -0.639905,0.77103 -2.295744,1.68607 -3.679644,2.0334 -1.885052,0.47312 -2.439126,1.18751 -2.208982,2.84812 0.268351,1.93628 -0.198635,2.24958 -3.692801,2.4775 -2.2,0.1435 -4.675,-0.20196 -5.5,-0.7677 z m 579.70683,-3.75261 c -1.66457,-1.85052 -1.67223,-2.0399 -0.10687,-2.64058 2.15722,-0.82781 2.64105,-0.30053 2.23084,2.43116 -0.32943,2.1938 -0.33821,2.19466 -2.12397,0.20942 z m -2.53517,-36.21912 c 1.46941,-0.44363 3.15691,-1.10651 3.75,-1.47306 0.59499,-0.36773 1.07834,0.0323 1.07834,0.89256 0,1.15015 -0.98349,1.53648 -3.75,1.47307 -3.48598,-0.0799 -3.5619,-0.14274 -1.07834,-0.89257 z M 157,240.6662 c 0,-1.1671 13.30692,-26.38419 14.81757,-28.07983 1.02231,-1.1475 2.42876,-3.53097 3.12544,-5.2966 0.69668,-1.76563 3.22228,-5.72865 5.61245,-8.80672 2.39018,-3.07807 4.60161,-6.40258 4.91431,-7.3878 0.31269,-0.98522 2.32825,-3.20545 4.479,-4.93384 2.15075,-1.72839 4.16391,-3.93428 4.47367,-4.90197 0.30977,-0.96769 2.49093,-2.97467 4.84703,-4.45995 2.35609,-1.48529 5.28134,-3.84779 6.50055,-5.25 1.21922,-1.40222 3.05904,-2.54949 4.08851,-2.54949 1.02946,0 3.02776,-0.90932 4.44066,-2.0207 1.87355,-1.47374 3.87858,-1.97435 7.40736,-1.84945 2.66115,0.0942 5.80752,-0.43394 6.99193,-1.17362 1.82326,-1.13864 3.64489,-1.08061 11.87938,0.37843 10.84738,1.92201 20.18468,5.2792 28.42214,10.21908 6.82012,4.08992 9.77688,7.17376 14.74578,15.37957 l 3.89559,6.4333 -1.77429,3.67237 c -3.57235,7.39391 -14.38103,14.25661 -24.43183,15.51238 -2.84766,0.35579 -13.02579,0.14207 -22.61807,-0.47494 l -17.4405,-1.12183 -13.42735,4.13576 c -12.45999,3.83781 -34.74363,13.96707 -45.07695,20.49022 C 159.45223,240.73961 157,241.61054 157,240.6662 z m 161,-6.63998 c -0.825,-0.54758 -4.875,-1.01867 -9,-1.04687 -6.44316,-0.044 -7.92274,-0.39779 -10.5,-2.51035 l -3,-2.45907 5.14301,-0.005 c 3.52087,-0.003 5.31517,-0.45362 5.68885,-1.42741 0.30021,-0.78234 1.55557,-1.56984 2.78967,-1.75 2.80282,-0.40916 3.87258,-3.88376 4.10329,-13.32756 0.19717,-8.07123 -0.21392,-9.0179 -6.0083,-13.83604 -3.94736,-3.28232 -4.6928,-3.52769 -9.5,-3.12712 -3.83929,0.31992 -4.55649,0.20074 -2.71652,-0.4514 1.375,-0.48734 4.8074,-0.93094 7.62756,-0.98576 2.82015,-0.0548 5.5877,-0.66218 6.15012,-1.34968 0.56241,-0.6875 1.33946,-4.67442 1.72679,-8.85983 0.92715,-10.01858 1.4307,-10.73731 5.4439,-7.77022 2.69416,1.99188 3.09814,2.81925 2.62076,5.36746 -0.31041,1.65692 -0.62891,10.44361 -0.70779,19.52598 -0.12983,14.94966 0.0548,16.90181 1.94924,20.61532 2.17221,4.25787 4.54296,5.37129 11.43686,5.37129 2.45778,0 2.78798,0.2524 1.83399,1.40189 -0.63991,0.77103 -2.29575,1.68607 -3.67965,2.0334 -1.88505,0.47312 -2.43912,1.18751 -2.20898,2.84812 0.26835,1.93628 -0.19863,2.24958 -3.6928,2.4775 -2.2,0.1435 -4.675,-0.18711 -5.5,-0.73469 z"
       id="path3041"
       inkscape:connector-curvature="0" />
  </g>
</svg>
