<?xml version="1.0" encoding="utf-8"?>
<!-- Generator: Adobe Illustrator 27.8.1, SVG Export Plug-In . SVG Version: 6.00 Build 0)  -->
<svg version="1.1" id="Слой_1" xmlns="http://www.w3.org/2000/svg" xmlns:xlink="http://www.w3.org/1999/xlink" x="0px" y="0px"
	 viewBox="0 0 800 800" style="enable-background:new 0 0 800 800;" xml:space="preserve">
<style type="text/css">
	.st01{fill:none;stroke:#FFFFFF;stroke-width:66.6667;stroke-miterlimit:133.3333;}
	.st12{fill-rule:evenodd;clip-rule:evenodd;fill:#FFFFFF;}
	.st23{fill:#FFFFFF;}
</style>
<path class="st01" d="M100,400c0-247.1,52.9-300,300-300s300,52.9,300,300s-53,300-300,300S100,647,100,400z"/>
<g>
	<path class="st12" d="M563.4,294c7-3.2,15.3,0,18.5,7c8.7,19.3,18.5,51.6,18.5,99c0,40.9-7.3,70.5-14.9,90.3
		c-3.8,9.9-7.7,17.2-10.7,22.3c-1.5,2.5-2.8,4.4-3.8,5.8c-0.5,0.7-0.9,1.2-1.2,1.6c-0.2,0.2-0.3,0.4-0.4,0.5l-0.1,0.2l-0.1,0.1l0,0
		c0,0,0,0-10.8-8.9l10.7,9c-4.9,5.9-13.8,6.7-19.7,1.8s-6.7-13.7-1.9-19.6c0,0,0,0,0.1-0.1s0.3-0.4,0.6-0.8c0.6-0.8,1.4-2.1,2.6-3.9
		c2.2-3.7,5.4-9.6,8.6-17.9c6.4-16.6,13.1-42.8,13.1-80.3c0-43.4-9-71.8-16-87.5C553.3,305.5,556.4,297.2,563.4,294z"/>
	<path class="st12" d="M524.3,349c7.6-1.6,15,3.3,16.5,10.8c2.1,9.9,3.7,23.1,3.7,40.1c0,20.7-2.5,35.9-5.1,46.1
		c-1.3,5.1-2.7,9-3.8,11.8c-0.5,1.4-1,2.5-1.4,3.3c-0.2,0.4-0.4,0.7-0.5,1l-0.2,0.3l-0.1,0.1v0.1l0,0c0,0,0,0-12.2-6.8l12.2,6.8
		c-3.7,6.8-12.3,9.2-19,5.4c-6.7-3.7-9.1-12.1-5.5-18.8l0.1-0.2c0.1-0.3,0.4-0.8,0.7-1.6c0.7-1.6,1.6-4.4,2.6-8.3
		c2-7.9,4.2-20.7,4.2-39.2c0-15.2-1.5-26.5-3.1-34.4C511.8,358,516.7,350.6,524.3,349z"/>
	<path class="st23" d="M587,242.1c5.5-5.5,5.5-14.3,0-19.8s-14.3-5.5-19.8,0l-83,83c-0.9-9.8-2-18.4-3.6-25.9
		c-3.2-14.7-8.9-27.5-20.8-35.9c-4.4-3.1-9.3-5.6-14.3-7.3c-15.3-5.2-30.4-1-45.8,6.4c-15.2,7.4-33.6,19.5-56.5,34.6l-5,3.3
		c-8.4,5.5-11.2,7.3-14.2,8.7c-3.2,1.4-6.5,2.4-10,3c-3.2,0.5-6.6,0.6-16.6,0.6h-3c-22.7,0-38.5,0-52.5,6.5
		c-13,6-25.4,17.7-32.2,30.3c-7.3,13.6-8.2,27.8-9.4,48l-0.1,2.4c-0.4,6.9-0.7,13.7-0.7,20c0,6.4,0.3,13.2,0.7,20l0.1,2.4
		c1.2,20.2,2.1,34.4,9.4,48c6.8,12.6,19.2,24.3,32.2,30.3c11.4,5.3,23.9,6.3,40.4,6.4l-50.7,50.7c-5.5,5.5-5.5,14.3,0,19.8
		s14.3,5.5,19.8,0L587,242.1z"/>
	<path class="st23" d="M488.6,400c0-7.7-6.3-14-14-14c-3.6,0-6.9,1.4-9.4,3.6l-1.3,1.4L352,508c-6.4,6.7-4.9,17.7,3.1,22.5
		c19.4,12.7,35.4,22.8,49.1,28.9c13.8,6.1,27.6,9.1,41.4,4.4c5.1-1.7,9.9-4.2,14.3-7.3c13.2-9.3,18.7-23.9,21.8-40.6
		c3-16.5,4-38.3,5.2-65.6l0.1-1.1C487.9,428.4,488.6,410.3,488.6,400z"/>
</g>
</svg>
