<?xml version="1.0" encoding="utf-8"?>
<!-- Generator: Adobe Illustrator 27.8.1, SVG Export Plug-In . SVG Version: 6.00 Build 0)  -->
<svg version="1.1" id="Слой_1" xmlns="http://www.w3.org/2000/svg" xmlns:xlink="http://www.w3.org/1999/xlink" x="0px" y="0px"
	 viewBox="0 0 800 800" style="enable-background:new 0 0 800 800;" xml:space="preserve">
<style type="text/css">
	.st00{fill:none;stroke:#323232;stroke-width:66.6667;stroke-miterlimit:133.3333;}
	.st11{fill:#FFFFFF;}
	.st22{fill-rule:evenodd;clip-rule:evenodd;fill:#FFFFFF;}
</style>
<path class="st00" d="M100,400c0-247.1,52.9-300,300-300s300,52.9,300,300s-53,300-300,300S100,647,100,400z"/>
<path class="st11" d="M191.1,394.1c0.8-38.5,1.2-57.7,14-74.2c2.3-3,5.8-6.6,8.6-9c15.7-13.3,36.5-13.3,78-13.3
	c14.8,0,22.2,0,29.3-1.9c1.5-0.4,2.9-0.9,4.4-1.4c6.9-2.5,13.1-6.9,25.5-15.6c48.9-34.4,73.3-51.5,93.8-44.1c3.9,1.4,7.7,3.5,11.1,6
	c17.7,13.3,19.1,44.2,21.8,106c1,22.9,1.7,42.5,1.7,53.4s-0.7,30.5-1.7,53.4c-2.7,61.8-4,92.7-21.8,106c-3.4,2.5-7.2,4.6-11.1,6
	c-20.5,7.5-44.9-9.7-93.8-44.1c-12.4-8.7-18.6-13.1-25.5-15.6c-1.4-0.5-2.9-1-4.4-1.4c-7.1-1.9-14.5-1.9-29.3-1.9
	c-41.5,0-62.3,0-78-13.3c-2.9-2.4-6.3-6-8.6-9c-12.8-16.5-13.2-35.7-14-74.2c0-2-0.1-4-0.1-5.9S191.1,396.1,191.1,394.1z"/>
<path class="st22" d="M556.5,265.3c6.1-5.4,15.2-4.6,20.3,2l-11.1,9.8c11.1-9.8,11.1-9.8,11.1-9.8l0,0l0,0l0.1,0.1l0.1,0.2
	c0.1,0.1,0.2,0.3,0.4,0.5c0.3,0.4,0.7,1,1.2,1.8c1,1.5,2.3,3.6,3.9,6.4c3.1,5.5,7.1,13.6,11,24.5c7.8,21.7,15.4,54.3,15.4,99.2
	s-7.5,77.5-15.4,99.2c-3.9,10.9-7.9,18.9-11,24.5c-1.6,2.8-2.9,4.9-3.9,6.4c-0.5,0.7-0.9,1.3-1.2,1.8c-0.2,0.2-0.3,0.4-0.4,0.5
	l-0.1,0.2l-0.1,0.1l0,0c0,0,0,0-11.1-9.8l11.1,9.8c-5.1,6.5-14.2,7.4-20.3,2s-6.9-15-1.9-21.5c0,0,0,0,0.1-0.1s0.3-0.4,0.6-0.9
	c0.6-0.9,1.5-2.3,2.6-4.3c2.3-4.1,5.5-10.6,8.8-19.7c6.6-18.2,13.4-47.1,13.4-88.2s-6.9-70-13.4-88.2c-3.3-9.1-6.5-15.6-8.8-19.7
	c-1.1-2-2.1-3.5-2.6-4.3c-0.3-0.4-0.5-0.7-0.6-0.8l-0.1-0.1l0,0"/>
<path class="st22" d="M520.3,325.1c7-4.1,15.7-1.4,19.6,6l-12.6,7.5c12.6-7.5,12.6-7.5,12.6-7.5l0,0l0,0v0.1l0.1,0.1l0.2,0.4
	c0.1,0.3,0.3,0.7,0.5,1.1c0.4,0.9,0.9,2.1,1.5,3.6c1.1,3,2.5,7.3,3.9,12.9c2.7,11.3,5.3,27.9,5.3,50.7c0,22.7-2.5,39.4-5.3,50.7
	c-1.4,5.6-2.7,9.9-3.9,12.9c-0.6,1.5-1.1,2.7-1.5,3.6c-0.2,0.4-0.4,0.8-0.5,1.1l-0.2,0.4l-0.1,0.1v0.1l0,0c0,0,0,0-12.6-7.4
	l12.6,7.5c-3.9,7.4-12.6,10.1-19.6,6c-6.9-4.1-9.4-13.3-5.7-20.7l0.1-0.2c0.1-0.3,0.4-0.9,0.7-1.8c0.7-1.8,1.7-4.8,2.7-9.2
	c2.1-8.7,4.4-22.8,4.4-43c0-20.3-2.3-34.4-4.4-43c-1-4.3-2.1-7.4-2.7-9.2c-0.3-0.9-0.6-1.5-0.7-1.8l-0.1-0.2
	C510.9,338.4,513.4,329.2,520.3,325.1z"/>
</svg>
